<svg width="25" height="25" viewBox="0 0 25 25" fill="none" xmlns="http://www.w3.org/2000/svg">
<g clip-path="url(#clip0_186_3459)">
<path opacity="0.15" d="M2.2395 23.4165C2.2395 23.556 2.5049 23.6942 3.02053 23.8231C3.53616 23.952 4.29194 24.0691 5.24471 24.1678C6.19748 24.2665 7.32858 24.3447 8.57343 24.3981C9.81828 24.4515 11.1525 24.479 12.4999 24.479C13.8473 24.479 15.1816 24.4515 16.4264 24.3981C17.6713 24.3447 18.8024 24.2665 19.7551 24.1678C20.7079 24.0691 21.4637 23.952 21.9793 23.8231C22.4949 23.6942 22.7603 23.556 22.7603 23.4165C22.7603 23.277 22.4949 23.1388 21.9793 23.0099C21.4637 22.881 20.7079 22.7639 19.7551 22.6652C18.8024 22.5665 17.6713 22.4883 16.4264 22.4349C15.1816 22.3815 13.8473 22.354 12.4999 22.354C11.1525 22.354 9.81828 22.3815 8.57343 22.4349C7.32858 22.4883 6.19748 22.5665 5.24471 22.6652C4.29194 22.7639 3.53616 22.881 3.02053 23.0099C2.5049 23.1388 2.2395 23.277 2.2395 23.4165Z" fill="#45413C"/>
<path d="M22.9167 2.99472C22.8521 2.77924 22.735 2.58317 22.5759 2.42409C22.4168 2.26501 22.2207 2.1479 22.0052 2.08326C16.2396 0.328055 9.98962 1.49993 5.7292 5.7291C1.46879 9.95826 0.322953 16.2395 2.08337 22.0103C2.147 22.2249 2.26323 22.4202 2.42149 22.5785C2.57975 22.7367 2.77504 22.853 2.98962 22.9166C8.76045 24.677 15.0052 23.5051 19.2709 19.2708C23.5365 15.0364 24.6719 8.76035 22.9167 2.99472Z" fill="#BF8256"/>
<path d="M5.72905 9.45826C9.97384 5.21347 16.2238 4.0416 21.9895 5.81243C22.1978 5.87705 22.3873 5.99144 22.5416 6.1457C22.6959 6.29997 22.8103 6.48947 22.8749 6.69785C23.2134 7.78946 23.4471 8.91085 23.5728 10.0468C23.8341 7.67593 23.6108 5.27668 22.9165 2.99472C22.8528 2.77962 22.7366 2.58371 22.5785 2.42462C22.4203 2.26553 22.225 2.14823 22.0103 2.08326C16.2447 0.328055 9.99467 1.49993 5.72905 5.7291C4.0774 7.41469 2.82902 9.45251 2.07762 11.6896C1.32621 13.9267 1.09129 16.3049 1.39051 18.6458C1.74233 15.1769 3.27379 11.9338 5.72905 9.45826Z" fill="#DEA47A"/>
<path d="M22.9167 2.99472C22.8521 2.77924 22.735 2.58317 22.5759 2.42409C22.4168 2.26501 22.2207 2.1479 22.0052 2.08326C16.2396 0.328055 9.98962 1.49993 5.7292 5.7291C1.46879 9.95826 0.322953 16.2395 2.08337 22.0103C2.147 22.2249 2.26323 22.4202 2.42149 22.5785C2.57975 22.7367 2.77504 22.853 2.98962 22.9166C8.76045 24.677 15.0052 23.5051 19.2709 19.2708C23.5365 15.0364 24.6719 8.76035 22.9167 2.99472Z" stroke="#45413C" stroke-linecap="round" stroke-linejoin="round"/>
<path d="M22.9166 3.0835V2.99495C22.8529 2.77985 22.7367 2.58395 22.5785 2.42485C22.4203 2.26576 22.2251 2.14846 22.0103 2.0835H21.9218L2.08325 21.9168V22.0106C2.14737 22.2258 2.26438 22.4214 2.4236 22.5797C2.58282 22.7381 2.77917 22.8539 2.99471 22.9168H3.08325L22.9166 3.0835Z" fill="#915E3A" stroke="#45413C" stroke-linecap="round" stroke-linejoin="round"/>
<path d="M15.7553 7.74951L17.2584 9.25212L9.25163 17.2589L7.74902 15.7563L15.7553 7.74951Z" fill="#E0E0E0" stroke="#45413C" stroke-linecap="round" stroke-linejoin="round"/>
<path d="M11.0001 10.9998C11.1328 10.8675 11.3126 10.7932 11.5001 10.7932C11.6875 10.7932 11.8673 10.8675 12.0001 10.9998L14.0053 13.0207C14.0926 13.0789 14.1659 13.1558 14.2199 13.2458C14.2738 13.3358 14.3071 13.4367 14.3173 13.5412C14.3275 13.6456 14.3144 13.751 14.2788 13.8498C14.2433 13.9486 14.1863 14.0382 14.1119 14.1122C14.0375 14.1862 13.9475 14.2428 13.8486 14.2778C13.7496 14.3128 13.6442 14.3254 13.5398 14.3146C13.4354 14.3039 13.3346 14.27 13.2449 14.2156C13.1552 14.1612 13.0787 14.0875 13.0209 13.9998L11.0001 11.979C10.874 11.8472 10.8036 11.6718 10.8036 11.4894C10.8036 11.307 10.874 11.1317 11.0001 10.9998ZM11.7501 16.255C11.6173 16.3874 11.4375 16.4616 11.2501 16.4616C11.0626 16.4616 10.8828 16.3874 10.7501 16.255L8.75008 14.2498C8.67793 14.1857 8.61964 14.1075 8.5788 14.0201C8.53796 13.9326 8.51543 13.8377 8.51259 13.7412C8.50975 13.6447 8.52666 13.5487 8.56229 13.459C8.59791 13.3693 8.65149 13.2878 8.71975 13.2195C8.78801 13.1513 8.86949 13.0977 8.95921 13.062C9.04892 13.0264 9.14497 13.0095 9.24146 13.0123C9.33795 13.0152 9.43284 13.0377 9.5203 13.0786C9.60776 13.1194 9.68596 13.1777 9.75008 13.2498L11.7501 15.255C11.8824 15.3878 11.9567 15.5676 11.9567 15.755C11.9567 15.9425 11.8824 16.1223 11.7501 16.255ZM16.2553 11.7498C16.1225 11.8821 15.9427 11.9564 15.7553 11.9564C15.5679 11.9564 15.3881 11.8821 15.2553 11.7498L13.2553 9.74984C13.1831 9.68571 13.1248 9.60752 13.084 9.52006C13.0432 9.43259 13.0206 9.3377 13.0178 9.24122C13.015 9.14473 13.0319 9.04868 13.0675 8.95897C13.1031 8.86925 13.1567 8.78776 13.225 8.71951C13.2932 8.65125 13.3747 8.59767 13.4644 8.56204C13.5541 8.52642 13.6502 8.50951 13.7467 8.51235C13.8432 8.51519 13.938 8.53772 14.0255 8.57856C14.113 8.6194 14.1912 8.67768 14.2553 8.74984L16.2553 10.7498C16.3876 10.8826 16.4619 11.0624 16.4619 11.2498C16.4619 11.4373 16.3876 11.6171 16.2553 11.7498ZM23.6928 8.17692L20.7605 5.24463L18.2553 7.74463L23.1095 12.604C23.5048 11.1618 23.7011 9.67231 23.6928 8.17692ZM7.75008 18.255L5.24487 20.755L8.18237 23.6925C9.67605 23.7008 11.1638 23.5046 12.6042 23.1092L7.75008 18.255Z" fill="#F0F0F0" stroke="#45413C" stroke-linecap="round" stroke-linejoin="round"/>
<path d="M1.31253 16.8228L4.24482 19.755L6.77086 17.255L1.89586 12.4009C1.5002 13.8412 1.30393 15.3291 1.31253 16.8228Z" fill="#F0F0F0"/>
<path d="M2.92182 13.4219C2.33503 14.6155 1.90943 15.8818 1.65619 17.1875L1.31765 16.849C1.30085 15.3534 1.49548 13.863 1.89578 12.4219L2.92182 13.4219Z" fill="white"/>
<path d="M19.7551 4.24504L17.2603 6.77108L12.3958 1.89087C13.8345 1.49564 15.3203 1.29765 16.8124 1.30233L19.7551 4.24504Z" fill="#F0F0F0"/>
<path d="M19.7551 4.24504L17.2603 6.77108L12.3958 1.89087C13.8345 1.49564 15.3203 1.29765 16.8124 1.30233L19.7551 4.24504Z" fill="#F0F0F0"/>
<path d="M19.7551 4.24501L18.8593 5.14605C17.7687 5.01792 16.6688 4.98829 15.5728 5.05751L12.3958 1.89084C13.8347 1.4965 15.3204 1.29852 16.8124 1.3023L19.7551 4.24501Z" fill="white"/>
<path d="M19.7552 4.24504L17.2604 6.77108L12.3959 1.89087C13.8346 1.49564 15.3204 1.29765 16.8125 1.30233L19.7552 4.24504ZM1.31253 16.8232L4.24482 19.7555L6.77086 17.2555L1.89586 12.4013C1.5002 13.8416 1.30393 15.3295 1.31253 16.8232Z" stroke="#45413C" stroke-linecap="round" stroke-linejoin="round"/>
</g>
<defs>
<clipPath id="clip0_186_3459">
<rect width="25" height="25" fill="white"/>
</clipPath>
</defs>
</svg>
