<svg width="25" height="25" viewBox="0 0 25 25" fill="none" xmlns="http://www.w3.org/2000/svg">
<path d="M3.82281 16.9376L4.38531 17.4897L3.73948 18.1251C4.00085 18.5325 4.2934 18.9191 4.61448 19.2813L19.2811 4.60424C18.9178 4.29223 18.5351 4.00346 18.1353 3.73966L17.4895 4.37507L16.9374 3.82299L17.4374 3.32299C15.4647 2.26213 13.2025 1.86541 10.9865 2.19168C8.77049 2.51796 6.71868 3.54984 5.13542 5.13427C3.55216 6.7187 2.52179 8.77127 2.19716 10.9875C1.87252 13.2038 2.27091 15.4656 3.33323 17.4376L3.82281 16.9376ZM15.4791 5.28132L16.0311 5.83341L14.5832 7.29174L14.0311 6.73966L15.4791 5.28132ZM12.5728 8.19799L13.1145 8.75007L11.6666 10.2084L11.1145 9.65632L12.5728 8.19799ZM9.65614 11.1147L10.2082 11.6667L8.74989 13.1147L8.19781 12.5626L9.65614 11.1147ZM6.73948 14.0209L7.29156 14.5834L5.83323 16.0417L5.28114 15.4897L6.73948 14.0209ZM6.86448 21.2605L7.51031 20.6251L8.06239 21.1772L7.56239 21.6772C9.53513 22.738 11.7973 23.1347 14.0133 22.8085C16.2293 22.4822 18.2811 21.4503 19.8644 19.8659C21.4476 18.2814 22.478 16.2289 22.8026 14.0126C23.1273 11.7964 22.7289 9.53453 21.6666 7.56257L21.177 8.06257L20.6145 7.51049L21.2603 6.87507C20.9989 6.46764 20.7064 6.08107 20.3853 5.71882L5.71864 20.3959C6.08202 20.7079 6.46473 20.9967 6.86448 21.2605ZM19.1666 8.96882L19.7186 9.52091L18.2603 10.9792L17.7082 10.4167L19.1666 8.96882ZM16.2499 11.8855L16.802 12.4376L15.3436 13.8855L14.7916 13.3334L16.2499 11.8855ZM13.3332 14.7917L13.8853 15.3438L12.4374 16.8022L11.8749 16.2501L13.3332 14.7917ZM10.4166 17.7084L10.9686 18.2605L9.51031 19.7188L8.95823 19.1667L10.4166 17.7084Z" fill="#C00D0B"/>
</svg>
