<svg width="25" height="25" viewBox="0 0 25 25" fill="none" xmlns="http://www.w3.org/2000/svg">
<path d="M3.73565 16.857L4.29815 17.4091L3.65232 18.0445C3.9137 18.4519 4.20624 18.8385 4.52732 19.2008L19.194 4.52367C18.8306 4.21166 18.4479 3.9229 18.0482 3.65909L17.4023 4.29451L16.8502 3.74242L17.3502 3.24242C15.3775 2.18156 13.1153 1.78484 10.8993 2.11112C8.68334 2.43739 6.63153 3.46927 5.04827 5.0537C3.46501 6.63813 2.43464 8.69071 2.11 10.9069C1.78536 13.1232 2.18375 15.3851 3.24607 17.357L3.73565 16.857ZM15.3919 5.20076L15.944 5.75284L14.4961 7.21117L13.944 6.65909L15.3919 5.20076ZM12.4857 8.11742L13.0273 8.66951L11.5794 10.1278L11.0273 9.57576L12.4857 8.11742ZM9.56898 11.0341L10.1211 11.5862L8.66273 13.0341L8.11065 12.482L9.56898 11.0341ZM6.65232 13.9403L7.2044 14.5028L5.74607 15.9612L5.19398 15.4091L6.65232 13.9403ZM6.77732 21.1799L7.42315 20.5445L7.97523 21.0966L7.47523 21.5966C9.44797 22.6574 11.7101 23.0542 13.9261 22.7279C16.1421 22.4016 18.1939 21.3697 19.7772 19.7853C21.3605 18.2009 22.3908 16.1483 22.7155 13.9321C23.0401 11.7158 22.6417 9.45396 21.5794 7.48201L21.0898 7.98201L20.5273 7.42992L21.1732 6.79451C20.9118 6.38708 20.6192 6.00051 20.2982 5.63826L5.63148 20.3153C5.99486 20.6273 6.37757 20.9161 6.77732 21.1799ZM19.0794 8.88826L19.6315 9.44034L18.1732 10.8987L17.6211 10.3362L19.0794 8.88826ZM16.1627 11.8049L16.7148 12.357L15.2565 13.8049L14.7044 13.2528L16.1627 11.8049ZM13.2461 14.7112L13.7982 15.2633L12.3502 16.7216L11.7877 16.1695L13.2461 14.7112ZM10.3294 17.6278L10.8815 18.1799L9.42315 19.6383L8.87107 19.0862L10.3294 17.6278Z" fill="#C00D0B"/>
</svg>
