<svg width="25" height="25" viewBox="0 0 25 25" fill="none" xmlns="http://www.w3.org/2000/svg">
<path d="M3.82257 16.9376L4.38507 17.4897L3.73923 18.1251C4.00061 18.5325 4.29315 18.9191 4.61423 19.2813L19.2809 4.60424C18.9175 4.29223 18.5348 4.00346 18.1351 3.73966L17.4892 4.37507L16.9371 3.82299L17.4371 3.32299C15.4644 2.26213 13.2023 1.86541 10.9863 2.19168C8.77025 2.51796 6.71844 3.54984 5.13518 5.13427C3.55192 6.7187 2.52155 8.77127 2.19691 10.9875C1.87228 13.2038 2.27066 15.4656 3.33298 17.4376L3.82257 16.9376ZM15.4788 5.28132L16.0309 5.83341L14.583 7.29174L14.0309 6.73966L15.4788 5.28132ZM12.5726 8.19799L13.1142 8.75007L11.6663 10.2084L11.1142 9.65632L12.5726 8.19799ZM9.6559 11.1147L10.208 11.6667L8.74965 13.1147L8.19757 12.5626L9.6559 11.1147ZM6.73923 14.0209L7.29132 14.5834L5.83298 16.0417L5.2809 15.4897L6.73923 14.0209ZM6.86423 21.2605L7.51007 20.6251L8.06215 21.1772L7.56215 21.6772C9.53489 22.738 11.797 23.1347 14.013 22.8085C16.229 22.4822 18.2809 21.4503 19.8641 19.8659C21.4474 18.2814 22.4777 16.2289 22.8024 14.0126C23.127 11.7964 22.7286 9.53453 21.6663 7.56257L21.1767 8.06257L20.6142 7.51049L21.2601 6.87507C20.9987 6.46764 20.7061 6.08107 20.3851 5.71882L5.7184 20.3959C6.08178 20.7079 6.46448 20.9967 6.86423 21.2605ZM19.1663 8.96882L19.7184 9.52091L18.2601 10.9792L17.708 10.4167L19.1663 8.96882ZM16.2496 11.8855L16.8017 12.4376L15.3434 13.8855L14.7913 13.3334L16.2496 11.8855ZM13.333 14.7917L13.8851 15.3438L12.4371 16.8022L11.8746 16.2501L13.333 14.7917ZM10.4163 17.7084L10.9684 18.2605L9.51007 19.7188L8.95798 19.1667L10.4163 17.7084Z" fill="#C00D0B"/>
</svg>
