<svg width="25" height="25" viewBox="0 0 25 25" fill="none" xmlns="http://www.w3.org/2000/svg">
<path d="M3.82293 16.9376L4.38543 17.4897L3.7396 18.1251C4.00098 18.5325 4.29352 18.9191 4.6146 19.2813L19.2813 4.60424C18.9179 4.29223 18.5352 4.00346 18.1354 3.73966L17.4896 4.37507L16.9375 3.82299L17.4375 3.32299C15.4648 2.26213 13.2026 1.86541 10.9866 2.19168C8.77062 2.51796 6.71881 3.54984 5.13555 5.13427C3.55229 6.7187 2.52192 8.77127 2.19728 10.9875C1.87264 13.2038 2.27103 15.4656 3.33335 17.4376L3.82293 16.9376ZM15.4792 5.28132L16.0313 5.83341L14.5833 7.29174L14.0313 6.73966L15.4792 5.28132ZM12.5729 8.19799L13.1146 8.75007L11.6667 10.2084L11.1146 9.65632L12.5729 8.19799ZM9.65627 11.1147L10.2083 11.6667L8.75001 13.1147L8.19793 12.5626L9.65627 11.1147ZM6.7396 14.0209L7.29168 14.5834L5.83335 16.0417L5.28127 15.4897L6.7396 14.0209ZM6.8646 21.2605L7.51043 20.6251L8.06251 21.1772L7.56252 21.6772C9.53525 22.738 11.7974 23.1347 14.0134 22.8085C16.2294 22.4822 18.2812 21.4503 19.8645 19.8659C21.4477 18.2814 22.4781 16.2289 22.8028 14.0126C23.1274 11.7964 22.729 9.53453 21.6667 7.56257L21.1771 8.06257L20.6146 7.51049L21.2604 6.87507C20.9991 6.46764 20.7065 6.08107 20.3854 5.71882L5.71876 20.3959C6.08214 20.7079 6.46485 20.9967 6.8646 21.2605ZM19.1667 8.96882L19.7188 9.52091L18.2604 10.9792L17.7083 10.4167L19.1667 8.96882ZM16.25 11.8855L16.8021 12.4376L15.3438 13.8855L14.7917 13.3334L16.25 11.8855ZM13.3333 14.7917L13.8854 15.3438L12.4375 16.8022L11.875 16.2501L13.3333 14.7917ZM10.4167 17.7084L10.9688 18.2605L9.51043 19.7188L8.95835 19.1667L10.4167 17.7084Z" fill="#C00D0B"/>
</svg>
