<svg width="25" height="25" viewBox="0 0 25 25" fill="none" xmlns="http://www.w3.org/2000/svg">
<path d="M3.82305 16.9376L4.38555 17.4897L3.73972 18.1251C4.0011 18.5325 4.29364 18.9191 4.61472 19.2813L19.2814 4.60424C18.918 4.29223 18.5353 4.00346 18.1356 3.73966L17.4897 4.37507L16.9376 3.82299L17.4376 3.32299C15.4649 2.26213 13.2027 1.86541 10.9867 2.19168C8.77074 2.51796 6.71893 3.54984 5.13567 5.13427C3.55241 6.7187 2.52204 8.77127 2.1974 10.9875C1.87276 13.2038 2.27115 15.4656 3.33347 17.4376L3.82305 16.9376ZM15.4793 5.28132L16.0314 5.83341L14.5835 7.29174L14.0314 6.73966L15.4793 5.28132ZM12.5731 8.19799L13.1147 8.75007L11.6668 10.2084L11.1147 9.65632L12.5731 8.19799ZM9.65639 11.1147L10.2085 11.6667L8.75014 13.1147L8.19805 12.5626L9.65639 11.1147ZM6.73972 14.0209L7.2918 14.5834L5.83347 16.0417L5.28139 15.4897L6.73972 14.0209ZM6.86472 21.2605L7.51055 20.6251L8.06264 21.1772L7.56264 21.6772C9.53538 22.738 11.7975 23.1347 14.0135 22.8085C16.2295 22.4822 18.2813 21.4503 19.8646 19.8659C21.4479 18.2814 22.4782 16.2289 22.8029 14.0126C23.1275 11.7964 22.7291 9.53453 21.6668 7.56257L21.1772 8.06257L20.6147 7.51049L21.2606 6.87507C20.9992 6.46764 20.7066 6.08107 20.3856 5.71882L5.71889 20.3959C6.08227 20.7079 6.46497 20.9967 6.86472 21.2605ZM19.1668 8.96882L19.7189 9.52091L18.2606 10.9792L17.7085 10.4167L19.1668 8.96882ZM16.2501 11.8855L16.8022 12.4376L15.3439 13.8855L14.7918 13.3334L16.2501 11.8855ZM13.3335 14.7917L13.8856 15.3438L12.4376 16.8022L11.8751 16.2501L13.3335 14.7917ZM10.4168 17.7084L10.9689 18.2605L9.51055 19.7188L8.95847 19.1667L10.4168 17.7084Z" fill="#C00D0B"/>
</svg>
