<svg width="22" height="22" viewBox="0 0 22 22" fill="none" xmlns="http://www.w3.org/2000/svg">
<path d="M2.75118 18.3087H19.2512C19.4182 18.3082 19.582 18.2621 19.7248 18.1755C19.8676 18.0888 19.9841 17.9648 20.0617 17.8169C20.1393 17.669 20.1751 17.5027 20.1652 17.3359C20.1553 17.1691 20.1001 17.0082 20.0056 16.8705L11.7556 4.95381C11.4137 4.45973 10.5905 4.45973 10.2477 4.95381L1.99768 16.8705C1.90218 17.0079 1.84618 17.1689 1.83576 17.336C1.82534 17.503 1.8609 17.6697 1.93856 17.818C2.01623 17.9662 2.13305 18.0903 2.27631 18.1769C2.41958 18.2634 2.58381 18.309 2.75118 18.3087Z" fill="black"/>
</svg>
