<svg width="25" height="25" viewBox="0 0 25 25" fill="none" xmlns="http://www.w3.org/2000/svg">
<g clip-path="url(#clip0_687_2939)">
<path d="M22.4806 5.6476C26.2673 11.1593 24.8677 18.6964 19.3564 22.4796C13.8446 26.2663 6.30714 24.8675 2.52042 19.3546C-1.2663 13.8429 0.133313 6.30502 5.64542 2.51869C11.1571 -1.26647 18.6939 0.132753 22.4775 5.64369" fill="#C3D82E"/>
<path d="M17.7094 23.4356C17.7094 23.4356 11.9281 10.5536 18.0867 1.7583L18.6035 2.04346C18.6035 2.04346 12.1527 10.881 18.9348 22.7763L17.7094 23.4364M2.52345 19.3563C2.52345 19.3563 8.21993 10.8958 6.65001 1.90205L5.94845 2.38447C5.94845 2.38447 9.02267 4.89463 2.08478 18.7173" fill="white"/>
</g>
<defs>
<clipPath id="clip0_687_2939">
<rect width="25" height="25" fill="white"/>
</clipPath>
</defs>
</svg>
