<svg width="25" height="25" viewBox="0 0 25 25" fill="none" xmlns="http://www.w3.org/2000/svg">
<g clip-path="url(#clip0_186_5592)">
<path d="M22.4803 5.64711C26.2671 11.1588 24.8674 18.6959 19.3561 22.4791C13.8444 26.2659 6.3069 24.867 2.52018 19.3541C-1.26654 13.8424 0.133069 6.30453 5.64518 2.5182C11.1569 -1.26695 18.6936 0.132265 22.4772 5.6432" fill="#C3D82E"/>
<path d="M17.7096 23.4356C17.7096 23.4356 11.9283 10.5536 18.0869 1.7583L18.6037 2.04346C18.6037 2.04346 12.1529 10.881 18.935 22.7763L17.7096 23.4364M2.52363 19.3563C2.52363 19.3563 8.22012 10.8958 6.6502 1.90205L5.94863 2.38447C5.94863 2.38447 9.02285 4.89463 2.08496 18.7173" fill="white"/>
</g>
<defs>
<clipPath id="clip0_186_5592">
<rect width="25" height="25" fill="white"/>
</clipPath>
</defs>
</svg>
