<svg width="25" height="25" viewBox="0 0 25 25" fill="none" xmlns="http://www.w3.org/2000/svg">
<g clip-path="url(#clip0_687_831)">
<path d="M22.4808 5.6476C26.2675 11.1593 24.8679 18.6964 19.3566 22.4796C13.8449 26.2663 6.30739 24.8675 2.52067 19.3546C-1.26605 13.8429 0.133557 6.30502 5.64567 2.51869C11.1574 -1.26647 18.6941 0.132753 22.4777 5.64369" fill="#C3D82E"/>
<path d="M17.7096 23.4356C17.7096 23.4356 11.9283 10.5536 18.0869 1.7583L18.6037 2.04346C18.6037 2.04346 12.1529 10.881 18.935 22.7763L17.7096 23.4364M2.52363 19.3563C2.52363 19.3563 8.22012 10.8958 6.6502 1.90205L5.94863 2.38447C5.94863 2.38447 9.02285 4.89463 2.08496 18.7173" fill="white"/>
</g>
<defs>
<clipPath id="clip0_687_831">
<rect width="25" height="25" fill="white"/>
</clipPath>
</defs>
</svg>
