<svg width="16" height="16" viewBox="0 0 16 16" fill="none" xmlns="http://www.w3.org/2000/svg">
<g clip-path="url(#clip0_168_2799)">
<path d="M15.8295 8.4295C15.7729 8.27459 15.7102 8.12197 15.6415 7.972C14.5708 5.61775 11.6578 2.3775 10.218 0.8525C9.90476 0.471 9.66101 0.17925 9.52201 0.01225V0C9.52051 0.00175 9.51851 0.00425 9.51701 0.005C9.51701 0.005 9.51301 0.00125 9.51301 0V0.012C9.37101 0.179 9.12851 0.47075 8.81501 0.8525C7.37351 2.37775 4.46226 5.6175 3.39151 7.972C3.32211 8.12164 3.25938 8.27429 3.20351 8.4295C2.74851 9.48075 3.09851 10.631 3.83651 11.442C3.94026 11.558 4.05651 11.669 4.17926 11.7725C5.21626 12.648 6.91651 13.0555 9.14526 11.9432C9.19501 12.6795 8.88376 13.979 6.23176 14.392C6.23176 14.392 5.47676 15.1713 6.14751 15.4993H12.8858C13.5588 15.171 12.803 14.392 12.803 14.392C10.15 13.979 9.83876 12.6797 9.88951 11.9432C12.12 13.0555 13.8188 12.648 14.8558 11.7725C14.9785 11.6685 15.0925 11.5578 15.1983 11.442C15.9368 10.63 16.287 9.48025 15.8315 8.4295" fill="black"/>
</g>
<defs>
<clipPath id="clip0_168_2799">
<rect width="16" height="16" fill="white"/>
</clipPath>
</defs>
</svg>
