<svg width="25" height="25" viewBox="0 0 25 25" fill="none" xmlns="http://www.w3.org/2000/svg">
<g clip-path="url(#clip0_158_8235)">
<path d="M22.4805 5.64711C26.2672 11.1588 24.8676 18.6959 19.3562 22.4791C13.8445 26.2659 6.30702 24.867 2.5203 19.3541C-1.26642 13.8424 0.133191 6.30453 5.6453 2.5182C11.157 -1.26695 18.6937 0.132265 22.4773 5.6432" fill="#C3D82E"/>
<path d="M17.7094 23.4356C17.7094 23.4356 11.9281 10.5536 18.0867 1.7583L18.6035 2.04346C18.6035 2.04346 12.1527 10.881 18.9348 22.7763L17.7094 23.4364M2.52345 19.3563C2.52345 19.3563 8.21993 10.8958 6.65001 1.90205L5.94845 2.38447C5.94845 2.38447 9.02267 4.89463 2.08478 18.7173" fill="white"/>
</g>
<defs>
<clipPath id="clip0_158_8235">
<rect width="25" height="25" fill="white"/>
</clipPath>
</defs>
</svg>
