<svg width="25" height="25" viewBox="0 0 25 25" fill="none" xmlns="http://www.w3.org/2000/svg">
<g clip-path="url(#clip0_186_3276)">
<path d="M22.4806 5.64711C26.2673 11.1588 24.8677 18.6959 19.3564 22.4791C13.8446 26.2659 6.30714 24.867 2.52042 19.3541C-1.2663 13.8424 0.133313 6.30453 5.64542 2.5182C11.1571 -1.26695 18.6939 0.132265 22.4775 5.6432" fill="#C3D82E"/>
<path d="M17.7093 23.4356C17.7093 23.4356 11.9281 10.5536 18.0867 1.7583L18.6035 2.04346C18.6035 2.04346 12.1527 10.881 18.9347 22.7763L17.7093 23.4364M2.52339 19.3563C2.52339 19.3563 8.21987 10.8958 6.64995 1.90205L5.94839 2.38447C5.94839 2.38447 9.02261 4.89463 2.08472 18.7173" fill="white"/>
</g>
<defs>
<clipPath id="clip0_186_3276">
<rect width="25" height="25" fill="white"/>
</clipPath>
</defs>
</svg>
