<svg version="1.1" id="Layer_1" xmlns="http://www.w3.org/2000/svg" xmlns:xlink="http://www.w3.org/1999/xlink" x="0px" y="0px"
	 width="100%" viewBox="0 0 58 58" enable-background="new 0 0 58 58" xml:space="preserve">
<path fill="#020303" opacity="1.000000" stroke="none" 
	d="
M39.000957,59.000000 
	C26.000774,59.000000 13.500793,59.000000 1.000608,59.000000 
	C1.000406,39.666965 1.000406,20.333931 1.000203,1.000673 
	C20.333006,1.000449 39.666012,1.000449 58.999260,1.000224 
	C58.999508,20.332975 58.999508,39.665951 58.999756,58.999466 
	C52.500385,59.000000 46.000774,59.000000 39.000957,59.000000 
M40.187706,19.784414 
	C38.760765,19.978315 37.333820,20.172218 35.780098,19.555946 
	C34.884670,19.005478 33.989239,18.455008 33.316917,18.103035 
	C33.316917,18.103035 33.506580,17.935116 33.506580,17.935116 
	C33.506580,17.935116 33.201862,17.983524 32.204159,18.143517 
	C30.177128,18.154583 28.150095,18.165648 26.161108,17.813602 
	C26.261528,17.865253 26.361946,17.916904 26.462366,17.968555 
	C26.365032,18.033228 26.267698,18.097898 25.439690,18.427689 
	C23.292459,18.954071 21.145229,19.480452 18.636259,19.645594 
	C18.081762,20.093393 17.527266,20.541191 16.272991,21.099669 
	C14.553816,25.143612 12.310436,29.063755 11.315011,33.278625 
	C10.731857,35.747837 12.137854,38.686832 12.649049,41.414497 
	C14.419581,39.603489 16.190115,37.792480 18.689713,35.978649 
	C26.029209,33.261116 33.507576,33.679020 41.671112,35.312653 
	C42.217247,36.409447 42.552631,37.707443 43.360859,38.554020 
	C44.464596,39.710140 45.928322,40.522583 47.237724,41.482357 
	C47.851162,39.736500 49.118629,37.919350 48.937752,36.260082 
	C48.593468,33.101852 47.563553,29.985006 46.520428,26.953487 
	C46.128483,25.814428 44.908283,24.960369 43.682430,23.701719 
	C43.451809,23.143827 43.221184,22.585938 43.034115,21.444866 
	C42.905216,21.298632 42.776318,21.152399 42.525234,20.599422 
	C42.021828,20.413103 41.518417,20.226784 40.187706,19.784414 
z"/>
<path fill="#ECECED" opacity="1.000000" stroke="none" 
	d="
M33.093811,17.904537 
	C33.989239,18.455008 34.884670,19.005478 35.870674,20.220322 
	C35.973717,21.232058 35.986187,21.579416 35.687088,21.975967 
	C34.900085,22.630278 34.424644,23.235392 33.821243,24.187149 
	C32.474201,25.531427 31.238731,27.351835 30.040001,27.327957 
	C28.369728,27.294685 25.124048,27.714401 25.956465,23.677128 
	C25.173082,23.056240 24.434116,22.755777 23.695152,22.455317 
	C23.831873,22.983812 23.968594,23.512310 24.136055,24.378155 
	C26.569151,28.711920 21.731470,27.333145 20.705231,28.850689 
	C20.552418,27.376328 20.683867,26.046404 20.891369,23.947008 
	C20.570040,23.671173 19.523985,22.773228 18.258194,21.686657 
	C16.999310,23.295521 16.021276,24.545456 14.909447,25.966383 
	C16.784246,27.426958 18.456684,28.729881 20.073967,30.389277 
	C19.332758,32.490990 18.646702,34.236233 17.960648,35.981476 
	C16.190115,37.792480 14.419581,39.603489 12.649050,41.414497 
	C12.137854,38.686832 10.731857,35.747837 11.315011,33.278625 
	C12.310436,29.063755 14.553816,25.143612 16.927647,21.055977 
	C18.054199,20.677134 18.526098,20.341982 18.997999,20.006832 
	C21.145229,19.480452 23.292459,18.954071 25.797085,18.264187 
	C26.154480,18.100685 26.123064,18.176712 26.123064,18.176712 
	C28.150095,18.165648 30.177128,18.154583 32.691757,18.032278 
	C33.179359,17.921040 33.093811,17.904537 33.093811,17.904537 
M31.529448,24.399399 
	C31.529448,24.399399 31.603830,24.516129 31.529448,24.399399 
z"/>
<path fill="#252727" opacity="1.000000" stroke="none" 
	d="
M20.989491,28.995125 
	C21.731470,27.333145 26.569151,28.711920 24.452444,24.328999 
	C25.159023,23.960850 25.579954,23.979202 26.000883,23.997555 
	C25.124048,27.714401 28.369728,27.294685 30.040001,27.327957 
	C31.238731,27.351835 32.474201,25.531427 34.117813,24.148674 
	C34.728943,23.833782 34.915535,23.904011 35.107018,24.395605 
	C34.120701,28.587305 36.760056,28.051653 38.958221,28.433517 
	C39.654110,30.873575 40.339790,32.931477 41.025471,34.989376 
	C33.507576,33.679020 26.029209,33.261116 18.325180,35.980064 
	C18.646702,34.236233 19.332758,32.490990 20.311970,30.312290 
	C20.733248,29.584263 20.861370,29.289694 20.989491,28.995125 
z"/>
<path fill="#ECECED" opacity="1.000000" stroke="none" 
	d="
M41.348289,35.151016 
	C40.339790,32.931477 39.654110,30.873575 38.996819,28.397020 
	C39.025215,27.978367 39.102661,27.905642 39.403076,27.971741 
	C41.057796,28.071917 42.412102,28.105993 43.766407,28.140068 
	C43.495094,26.777311 43.223782,25.414557 42.983582,24.019478 
	C43.014690,23.987156 43.077263,23.922853 43.323574,23.950878 
	C43.569885,23.978905 44.065685,23.976379 44.065685,23.976379 
	C44.908283,24.960369 46.128483,25.814428 46.520428,26.953487 
	C47.563553,29.985006 48.593468,33.101852 48.937752,36.260082 
	C49.118629,37.919350 47.851162,39.736500 47.237724,41.482357 
	C45.928322,40.522583 44.464596,39.710140 43.360859,38.554020 
	C42.552631,37.707443 42.217247,36.409447 41.348289,35.151016 
z"/>
<path fill="#ECECED" opacity="1.000000" stroke="none" 
	d="
M38.986618,28.014866 
	C36.760056,28.051653 34.120701,28.587305 35.385941,24.362740 
	C35.772865,23.247929 35.885757,22.587353 35.998653,21.926775 
	C35.986187,21.579416 35.973717,21.232058 35.934067,20.625408 
	C37.333820,20.172218 38.760765,19.978315 40.733479,20.126598 
	C41.735306,20.647911 42.191364,20.827038 42.647419,21.006165 
	C42.776318,21.152399 42.905216,21.298632 43.007729,22.053160 
	C43.013313,23.081921 43.045288,23.502386 43.077263,23.922853 
	C43.077263,23.922853 43.014690,23.987156 42.615044,23.998941 
	C41.087784,24.075235 39.960171,24.139744 38.691544,24.212320 
	C38.848698,25.624138 38.975677,26.764891 39.102661,27.905642 
	C39.102661,27.905642 39.025215,27.978367 38.986618,28.014866 
z"/>
<path fill="#DADADA" opacity="1.000000" stroke="none" 
	d="
M18.817129,19.826212 
	C18.526098,20.341982 18.054199,20.677134 17.277534,21.000637 
	C17.527266,20.541191 18.081762,20.093393 18.817129,19.826212 
z"/>
<path fill="#E9EAEA" opacity="1.000000" stroke="none" 
	d="
M42.586327,20.802794 
	C42.191364,20.827038 41.735306,20.647911 41.147133,20.254623 
	C41.518417,20.226784 42.021828,20.413103 42.586327,20.802794 
z"/>
<path fill="#E9EAEA" opacity="1.000000" stroke="none" 
	d="
M43.323574,23.950878 
	C43.045288,23.502386 43.013313,23.081921 42.985947,22.344749 
	C43.221184,22.585938 43.451809,23.143827 43.874058,23.839050 
	C44.065685,23.976379 43.569885,23.978905 43.323574,23.950878 
z"/>
<path fill="#DADADA" opacity="1.000000" stroke="none" 
	d="
M26.142086,17.995157 
	C26.123064,18.176712 26.154480,18.100685 26.162422,18.131626 
	C26.267698,18.097898 26.365032,18.033228 26.462366,17.968555 
	C26.361946,17.916904 26.261528,17.865253 26.142086,17.995157 
z"/>
<path fill="#DADADA" opacity="1.000000" stroke="none" 
	d="
M33.205364,18.003786 
	C33.093811,17.904537 33.179359,17.921040 33.190613,17.952282 
	C33.201862,17.983524 33.506580,17.935116 33.506580,17.935116 
	C33.506580,17.935116 33.316917,18.103035 33.205364,18.003786 
z"/>
<path fill="#DADADA" opacity="1.000000" stroke="none" 
	d="
M20.705231,28.850689 
	C20.861370,29.289694 20.733248,29.584263 20.367125,29.955818 
	C18.456684,28.729881 16.784246,27.426958 14.909447,25.966383 
	C16.021276,24.545456 16.999310,23.295521 18.258194,21.686657 
	C19.523985,22.773228 20.570040,23.671173 20.891369,23.947008 
	C20.683867,26.046404 20.552418,27.376328 20.705231,28.850689 
z"/>
<path fill="#E4E4E5" opacity="1.000000" stroke="none" 
	d="
M25.956465,23.677128 
	C25.579954,23.979202 25.159023,23.960850 24.421703,23.991652 
	C23.968594,23.512310 23.831873,22.983812 23.695152,22.455317 
	C24.434116,22.755777 25.173082,23.056240 25.956465,23.677128 
z"/>
<path fill="#E4E4E5" opacity="1.000000" stroke="none" 
	d="
M35.687088,21.975967 
	C35.885757,22.587353 35.772865,23.247929 35.381050,23.941372 
	C34.915535,23.904011 34.728943,23.833782 34.245773,23.802031 
	C34.424644,23.235392 34.900085,22.630278 35.687088,21.975967 
z"/>
<path fill="#E4E4E5" opacity="1.000000" stroke="none" 
	d="
M31.566639,24.457764 
	C31.603830,24.516129 31.529448,24.399399 31.566639,24.457764 
z"/>
<path fill="#E9EAEA" opacity="1.000000" stroke="none" 
	d="
M39.403076,27.971741 
	C38.975677,26.764891 38.848698,25.624138 38.691544,24.212320 
	C39.960171,24.139744 41.087784,24.075235 42.583931,24.031263 
	C43.223782,25.414557 43.495094,26.777311 43.766407,28.140068 
	C42.412102,28.105993 41.057796,28.071917 39.403076,27.971741 
z"/>
</svg>