<svg width="61" height="59" viewBox="0 0 61 59" fill="none" xmlns="http://www.w3.org/2000/svg">
<g clip-path="url(#clip0_688_21924)">
<path d="M43.2395 40.7473C44.9164 40.7473 46.2123 41.2177 47.2033 42.1587C48.1942 43.0995 48.6515 44.354 48.6515 45.9221V53.4491H46.5172V51.7244H46.441C45.5263 53.1357 44.2304 53.8414 42.7059 53.8414C41.41 53.8414 40.2666 53.4492 39.352 52.6653C38.5135 51.8812 37.9798 50.7835 37.9798 49.6074C37.9798 48.3529 38.4373 47.3335 39.352 46.5495C40.2666 45.7654 41.5625 45.4518 43.087 45.4518C44.459 45.4518 45.5263 45.6871 46.3647 46.2359V45.6871C46.3647 44.9552 46.0991 44.2235 45.5679 43.7467L45.4499 43.6485C44.8402 43.0996 44.0779 42.786 43.2395 42.786C41.9436 42.786 40.9527 43.3349 40.2666 44.4326L38.2848 43.1778C39.5043 41.5312 41.1051 40.7473 43.2395 40.7473ZM32.4916 35.4156C33.8593 35.4156 35.1592 35.9052 36.1984 36.8182L36.3792 36.9837C37.4463 37.9246 37.9798 39.336 37.9798 40.8257C37.9798 42.3154 37.4463 43.6484 36.3792 44.6676C35.3119 45.687 34.0161 46.2357 32.4916 46.2357L28.8328 46.1573V53.4492H26.5459V35.4155L32.4916 35.4156ZM43.5443 47.3335C42.6296 47.3335 41.8674 47.5687 41.2576 48.0392C40.6477 48.4312 40.3429 48.98 40.3429 49.6856C40.3429 50.313 40.6479 50.8617 41.1051 51.1755C41.6388 51.5675 42.2485 51.8027 42.8584 51.8027C43.712 51.8027 44.5658 51.4611 45.2336 50.8419L45.3738 50.705C46.1361 49.9993 46.5172 49.1369 46.5172 48.1959C45.8312 47.6471 44.8402 47.3334 43.5444 47.3334L43.5443 47.3335ZM32.6441 37.611H28.8328V43.8837H32.6441C33.4825 43.8837 34.321 43.5701 34.8546 42.9429C36.0742 41.7668 36.0742 39.8066 34.9309 38.6304L34.8546 38.5519C34.2448 37.9247 33.4825 37.5327 32.644 37.6111L32.6441 37.611ZM61.0002 41.1393L53.4538 58.9377H51.167L53.9873 52.7436L49.0326 41.2177H51.4719L55.0545 50.0777H55.1307L58.6371 41.2177H61.0002V41.1393Z" fill="#5F6368"/>
<path d="M19.7616 44.5891C19.7616 43.8834 19.6853 43.1778 19.6091 42.4722H10.0811V46.4709H15.493C15.2644 47.7254 14.5784 48.9015 13.5112 49.6072V52.1946H16.7889C18.6946 50.3913 19.7617 47.7254 19.7617 44.5892L19.7616 44.5891Z" fill="#4285F4"/>
<path d="M10.0806 54.7035C12.8246 54.7035 15.1114 53.7626 16.7884 52.1945L13.5108 49.6071C12.596 50.2343 11.4526 50.6263 10.0806 50.6263C7.48879 50.6263 5.20201 48.823 4.43975 46.314H1.08594V48.9798C2.83909 52.5081 6.26927 54.7035 10.0806 54.7035Z" fill="#34A853"/>
<path d="M4.4401 46.314C3.98284 45.0595 3.98284 43.6482 4.4401 42.3152V39.6494H1.08629C-0.362098 42.5505 -0.362098 46.0004 1.08629 48.9798L4.4401 46.314Z" fill="#FBBC04"/>
<path d="M10.0806 38.0814C11.5289 38.0814 12.9009 38.6303 13.9682 39.6496L16.8647 36.6701C15.0352 34.9451 12.596 33.9259 10.1567 34.0042C6.34544 34.0042 2.83913 36.1997 1.16211 39.728L4.51604 42.3938C5.20205 39.8847 7.48883 38.0814 10.0806 38.0814Z" fill="#EA4335"/>
</g>
<defs>
<clipPath id="clip0_688_21924">
<rect width="61" height="25" fill="white" transform="translate(0 34)"/>
</clipPath>
</defs>
</svg>
