<svg width="24" height="44" viewBox="0 0 24 44" fill="none" xmlns="http://www.w3.org/2000/svg">
<path d="M3.33946 37.0002C2.90721 36.2515 2.58277 35.4702 2.36133 34.6741C3.3338 34.1779 3.99972 33.1668 3.99972 32.0002C3.99972 30.8345 3.3348 29.824 2.36353 29.3274C2.81025 27.7165 3.65857 26.2163 4.86474 24.99C5.7807 25.5842 6.98935 25.6553 7.99972 25.072C9.01009 24.4887 9.55277 23.4063 9.4962 22.316C11.1613 21.8846 12.8847 21.9 14.5031 22.3186C14.4475 23.4081 14.9901 24.4891 15.9997 25.072C17.0101 25.6553 18.2187 25.5842 19.1346 24.9901C19.7133 25.5799 20.2277 26.2515 20.66 27.0002C21.0922 27.7489 21.4167 28.5302 21.6381 29.3263C20.6656 29.8225 19.9997 30.8336 19.9997 32.0002C19.9997 33.166 20.6646 34.1764 21.6359 34.673C21.1892 36.2839 20.3409 37.7841 19.1347 39.0104C18.2187 38.4163 17.0101 38.3451 15.9997 38.9284C14.9893 39.5117 14.4467 40.5941 14.5032 41.6844C12.8382 42.1158 11.1148 42.1004 9.49633 41.6818C9.55191 40.5923 9.00929 39.5113 7.99972 38.9284C6.98938 38.3451 5.78079 38.4162 4.86484 39.0103C4.28617 38.4205 3.77172 37.7489 3.33946 37.0002ZM8.99972 37.1964C10.0911 37.8265 10.8749 38.8227 11.2503 39.9659C11.7486 40.0133 12.2502 40.014 12.7486 39.9675C13.1238 38.8237 13.9078 37.8268 14.9997 37.1964C16.0916 36.5659 17.347 36.3855 18.5252 36.6324C18.8146 36.224 19.0648 35.7892 19.2729 35.334C18.4706 34.4373 17.9997 33.2604 17.9997 32.0002C17.9997 30.74 18.4706 29.5632 19.2729 28.6665C19.1688 28.4405 19.0538 28.2182 18.9279 28.0002C18.802 27.7822 18.667 27.5715 18.5233 27.3684C17.3457 27.6148 16.0911 27.4341 14.9997 26.804C13.9083 26.1739 13.1246 25.1777 12.7491 24.0345C12.2509 23.9871 11.7492 23.9865 11.2509 24.0329C10.8756 25.1767 10.0916 26.1736 8.99972 26.804C7.9078 27.4345 6.65245 27.6149 5.47428 27.368C5.18485 27.7764 4.93463 28.2112 4.72656 28.6664C5.52881 29.5631 5.99972 30.74 5.99972 32.0002C5.99972 33.2604 5.52883 34.4372 4.72656 35.3339C4.83067 35.5599 4.94564 35.7822 5.07152 36.0002C5.19739 36.2182 5.3324 36.4289 5.47612 36.632C6.65377 36.3857 7.90838 36.5663 8.99972 37.1964ZM11.9997 35.0002C10.3429 35.0002 8.99972 33.6571 8.99972 32.0002C8.99972 30.3434 10.3429 29.0002 11.9997 29.0002C13.6566 29.0002 14.9997 30.3434 14.9997 32.0002C14.9997 33.6571 13.6566 35.0002 11.9997 35.0002ZM11.9997 33.0002C12.552 33.0002 12.9997 32.5525 12.9997 32.0002C12.9997 31.4479 12.552 31.0002 11.9997 31.0002C11.4474 31.0002 10.9997 31.4479 10.9997 32.0002C10.9997 32.5525 11.4474 33.0002 11.9997 33.0002Z" fill="white"/>
</svg>
