<svg width="28" height="28" viewBox="0 0 28 28" fill="none" xmlns="http://www.w3.org/2000/svg">
<path d="M10.9594 1.49805L9.89297 10.008H12.2336L14.9187 1.99242L10.9594 1.49805ZM15.9742 1.93555L13.2727 10.008L21.4594 10.0134L23.3352 4.40195L15.9742 1.93555ZM9.84375 2.51742L5.91172 2.94617L6.68281 10.008H8.90859L9.84375 2.51742ZM3.5 8.36734C2.87109 8.36734 2.45109 8.84859 2.3368 9.30797C2.27992 9.53766 2.31219 9.72359 2.37672 9.8275C2.4407 9.92594 2.5293 10.008 2.84375 10.008H5.69297L5.5125 8.36734H3.5ZM23.0453 8.36734L22.4984 10.008H25.0961C24.9539 9.73453 24.8937 9.44469 24.932 9.15484C24.9703 8.87047 25.0797 8.61344 25.2219 8.36734H23.0453ZM2.24219 10.9923V24.4947C2.24219 24.7736 2.39477 25.1017 2.64523 25.3533C2.89625 25.6048 3.22656 25.758 3.5 25.758L24.5 25.7634C24.7734 25.7634 25.1016 25.6103 25.3531 25.3587C25.6047 25.1072 25.7578 24.7791 25.7578 24.5002V20.6173H21C18.5938 20.6173 18.5938 16.133 21 16.133H25.7578V10.9978L2.24219 10.9923ZM21 17.1173C19.9062 17.1173 19.9062 19.633 21 19.633H22.2195C21.7273 19.4252 21.3828 18.9384 21.3828 18.3752C21.3828 17.8119 21.7273 17.3252 22.2195 17.1173H21ZM23.2805 17.1173C23.7727 17.3252 24.1172 17.8119 24.1172 18.3752C24.1172 18.9384 23.7727 19.4252 23.2805 19.633H26.6328V17.1173H23.2805ZM22.75 17.9923C22.5312 17.9923 22.3672 18.1564 22.3672 18.3752C22.3672 18.5939 22.5312 18.758 22.75 18.758C22.9688 18.758 23.1328 18.5939 23.1328 18.3752C23.1328 18.1564 22.9688 17.9923 22.75 17.9923Z" fill="white"/>
</svg>
