<svg width="25" height="25" viewBox="0 0 25 25" fill="none" xmlns="http://www.w3.org/2000/svg">
<path d="M9.70936 3.16167C9.66126 3.16167 9.61297 3.16314 9.56434 3.16626C8.78724 3.21582 7.99959 3.72944 7.71961 4.48154C6.05594 8.95088 5.22523 10.7738 4.71668 15.3642C5.43118 16.0229 6.26111 16.6557 7.17029 17.2257L10.4128 7.63262L11.2764 7.92402L7.97283 17.7002C8.92547 18.2313 9.94695 18.6882 11.0002 19.0323L14.6822 9.19194L15.5367 9.51079L11.8776 19.2902C12.8275 19.539 13.7919 19.6906 14.7477 19.7235L18.6205 11.0108L19.4552 11.3816L15.7504 19.7144C16.8158 19.654 17.86 19.4328 18.8479 19.0171C20.963 16.388 22.3944 13.6566 22.9739 10.585C23.2225 9.26704 22.2531 7.99107 20.3264 7.90874L20.0259 7.89497L19.919 7.61421C19.5064 6.52105 18.9547 6.14483 18.3809 6.02876C17.8072 5.91275 17.1472 6.10371 16.6491 6.38892L16.0112 6.75366L15.967 6.02124C15.9186 5.22066 15.4619 4.57608 14.7798 4.28169C14.0977 3.98726 13.1654 4.02622 12.1034 4.76538L11.5938 5.11939L11.4076 4.52734C11.0894 3.51338 10.4307 3.16089 9.70941 3.16162L9.70936 3.16167ZM5.04315 9.19653C3.47396 11.3989 2.33065 14.627 2.51028 17.5614C3.85501 18.6278 5.17679 19.2065 6.41961 19.2917C7.11077 19.3391 7.78387 19.2388 8.44134 18.9774C6.71063 18.1358 5.15228 17.0471 3.92015 15.8753L3.75692 15.7212L3.78133 15.4968C4.06424 12.829 4.46229 11.0291 5.04324 9.19653H5.04315Z" fill="#F0C193"/>
</svg>
