<svg width="25" height="25" viewBox="0 0 25 25" fill="none" xmlns="http://www.w3.org/2000/svg">
<path d="M9.70911 3.16167C9.66102 3.16167 9.61273 3.16314 9.56409 3.16626C8.78699 3.21582 7.99935 3.72944 7.71937 4.48154C6.05569 8.95088 5.22498 10.7738 4.71644 15.3642C5.43094 16.0229 6.26087 16.6557 7.17005 17.2257L10.4125 7.63262L11.2762 7.92402L7.97259 17.7002C8.92523 18.2313 9.94671 18.6882 10.9999 19.0323L14.6819 9.19194L15.5364 9.51079L11.8774 19.2902C12.8273 19.539 13.7917 19.6906 14.7475 19.7235L18.6203 11.0108L19.455 11.3816L15.7501 19.7144C16.8156 19.654 17.8597 19.4328 18.8476 19.0171C20.9627 16.388 22.3942 13.6566 22.9736 10.585C23.2222 9.26704 22.2528 7.99107 20.3262 7.90874L20.0256 7.89497L19.9188 7.61421C19.5062 6.52105 18.9544 6.14483 18.3807 6.02876C17.807 5.91275 17.147 6.10371 16.6489 6.38892L16.011 6.75366L15.9667 6.02124C15.9184 5.22066 15.4617 4.57608 14.7796 4.28169C14.0974 3.98726 13.1651 4.02622 12.1032 4.76538L11.5935 5.11939L11.4074 4.52734C11.0892 3.51338 10.4305 3.16089 9.70916 3.16162L9.70911 3.16167ZM5.0429 9.19653C3.47371 11.3989 2.3304 14.627 2.51004 17.5614C3.85477 18.6278 5.17654 19.2065 6.41937 19.2917C7.11053 19.3391 7.78362 19.2388 8.44109 18.9774C6.71038 18.1358 5.15203 17.0471 3.9199 15.8753L3.75667 15.7212L3.78109 15.4968C4.064 12.829 4.46204 11.0291 5.043 9.19653H5.0429Z" fill="#F0C193"/>
</svg>
