<svg width="25" height="25" viewBox="0 0 25 25" fill="none" xmlns="http://www.w3.org/2000/svg">
<path d="M9.70917 3.16167C9.66108 3.16167 9.61279 3.16314 9.56415 3.16626C8.78705 3.21582 7.99941 3.72944 7.71943 4.48154C6.05576 8.95088 5.22504 10.7738 4.7165 15.3642C5.431 16.0229 6.26093 16.6557 7.17011 17.2257L10.4126 7.63262L11.2763 7.92402L7.97265 17.7002C8.92529 18.2313 9.94677 18.6882 11 19.0323L14.682 9.19194L15.5365 9.51079L11.8774 19.2902C12.8273 19.539 13.7917 19.6906 14.7476 19.7235L18.6204 11.0108L19.455 11.3816L15.7502 19.7144C16.8156 19.654 17.8598 19.4328 18.8477 19.0171C20.9628 16.388 22.3942 13.6566 22.9737 10.585C23.2223 9.26704 22.2529 7.99107 20.3262 7.90874L20.0257 7.89497L19.9188 7.61421C19.5062 6.52105 18.9545 6.14483 18.3808 6.02876C17.807 5.91275 17.147 6.10371 16.6489 6.38892L16.011 6.75366L15.9668 6.02124C15.9185 5.22066 15.4618 4.57608 14.7796 4.28169C14.0975 3.98726 13.1652 4.02622 12.1033 4.76538L11.5936 5.11939L11.4075 4.52734C11.0893 3.51338 10.4306 3.16089 9.70922 3.16162L9.70917 3.16167ZM5.04296 9.19653C3.47377 11.3989 2.33046 14.627 2.5101 17.5614C3.85483 18.6278 5.17661 19.2065 6.41943 19.2917C7.11059 19.3391 7.78369 19.2388 8.44116 18.9774C6.71044 18.1358 5.15209 17.0471 3.91996 15.8753L3.75673 15.7212L3.78115 15.4968C4.06406 12.829 4.4621 11.0291 5.04306 9.19653H5.04296Z" fill="#F0C193"/>
</svg>
