<svg width="25" height="25" viewBox="0 0 25 25" fill="none" xmlns="http://www.w3.org/2000/svg">
<path d="M9.70923 3.16167C9.66114 3.16167 9.61285 3.16314 9.56422 3.16626C8.78712 3.21582 7.99947 3.72944 7.71949 4.48154C6.05582 8.95088 5.2251 10.7738 4.71656 15.3642C5.43106 16.0229 6.26099 16.6557 7.17017 17.2257L10.4127 7.63262L11.2763 7.92402L7.97271 17.7002C8.92535 18.2313 9.94683 18.6882 11.0001 19.0323L14.682 9.19194L15.5365 9.51079L11.8775 19.2902C12.8274 19.539 13.7918 19.6906 14.7476 19.7235L18.6204 11.0108L19.4551 11.3816L15.7503 19.7144C16.8157 19.654 17.8599 19.4328 18.8478 19.0171C20.9628 16.388 22.3943 13.6566 22.9737 10.585C23.2224 9.26704 22.2529 7.99107 20.3263 7.90874L20.0257 7.89497L19.9189 7.61421C19.5063 6.52105 18.9545 6.14483 18.3808 6.02876C17.8071 5.91275 17.1471 6.10371 16.649 6.38892L16.0111 6.75366L15.9669 6.02124C15.9185 5.22066 15.4618 4.57608 14.7797 4.28169C14.0976 3.98726 13.1652 4.02622 12.1033 4.76538L11.5937 5.11939L11.4075 4.52734C11.0893 3.51338 10.4306 3.16089 9.70928 3.16162L9.70923 3.16167ZM5.04302 9.19653C3.47383 11.3989 2.33052 14.627 2.51016 17.5614C3.85489 18.6278 5.17667 19.2065 6.41949 19.2917C7.11065 19.3391 7.78375 19.2388 8.44122 18.9774C6.7105 18.1358 5.15215 17.0471 3.92003 15.8753L3.75679 15.7212L3.78121 15.4968C4.06412 12.829 4.46216 11.0291 5.04312 9.19653H5.04302Z" fill="#F0C193"/>
</svg>
