<svg width="25" height="25" viewBox="0 0 25 25" fill="none" xmlns="http://www.w3.org/2000/svg">
<path d="M9.70887 3.16167C9.66077 3.16167 9.61248 3.16314 9.56385 3.16626C8.78675 3.21582 7.9991 3.72944 7.71912 4.48154C6.05545 8.95088 5.22474 10.7738 4.71619 15.3642C5.43069 16.0229 6.26063 16.6557 7.16981 17.2257L10.4123 7.63262L11.276 7.92402L7.97234 17.7002C8.92498 18.2313 9.94647 18.6882 10.9997 19.0323L14.6817 9.19194L15.5362 9.51079L11.8771 19.2902C12.827 19.539 13.7914 19.6906 14.7472 19.7235L18.6201 11.0108L19.4547 11.3816L15.7499 19.7144C16.8153 19.654 17.8595 19.4328 18.8474 19.0171C20.9625 16.388 22.3939 13.6566 22.9734 10.585C23.222 9.26704 22.2526 7.99107 20.3259 7.90874L20.0254 7.89497L19.9185 7.61421C19.5059 6.52105 18.9542 6.14483 18.3805 6.02876C17.8067 5.91275 17.1467 6.10371 16.6486 6.38892L16.0107 6.75366L15.9665 6.02124C15.9181 5.22066 15.4615 4.57608 14.7793 4.28169C14.0972 3.98726 13.1649 4.02622 12.103 4.76538L11.5933 5.11939L11.4072 4.52734C11.0889 3.51338 10.4303 3.16089 9.70892 3.16162L9.70887 3.16167ZM5.04266 9.19653C3.47347 11.3989 2.33016 14.627 2.5098 17.5614C3.85452 18.6278 5.1763 19.2065 6.41912 19.2917C7.11028 19.3391 7.78338 19.2388 8.44085 18.9774C6.71014 18.1358 5.15179 17.0471 3.91966 15.8753L3.75643 15.7212L3.78084 15.4968C4.06375 12.829 4.4618 11.0291 5.04276 9.19653H5.04266Z" fill="#F0C193"/>
</svg>
