<svg width="188" height="31" viewBox="0 0 188 31" fill="none" xmlns="http://www.w3.org/2000/svg">
<path d="M14.8861 1.58156L17.8304 8.29719C17.9412 8.54993 18.1178 8.7683 18.3417 8.92953C18.5656 9.09075 18.8288 9.1889 19.1036 9.21375L26.2764 9.85688C27.0879 9.975 27.4117 10.9703 26.8233 11.5434L21.4201 16.0825C20.9826 16.45 20.7836 17.0275 20.9039 17.5853L22.4745 24.9375C22.6123 25.7447 21.7658 26.3616 21.0395 25.9788L14.7789 22.3125C14.5428 22.1739 14.2739 22.1008 14.0001 22.1008C13.7263 22.1008 13.4575 22.1739 13.2214 22.3125L6.96076 25.9766C6.2367 26.3572 5.38795 25.7425 5.52576 24.9353L7.09638 17.5831C7.21451 17.0253 7.01763 16.4478 6.58013 16.0803L1.17482 11.5456C0.588572 10.9747 0.912322 9.97719 1.7217 9.85906L8.89451 9.21594C9.16933 9.19109 9.43244 9.09294 9.65638 8.93171C9.88032 8.77049 10.0569 8.55211 10.1676 8.29937L13.112 1.58375C13.4773 0.84875 14.5229 0.84875 14.8861 1.58156Z" fill="#FDD835"/>
<path d="M14.6715 8.69967L14.1727 3.75154C14.153 3.47592 14.0962 3.00342 14.538 3.00342C14.888 3.00342 15.0783 3.73186 15.0783 3.73186L16.5746 7.70436C17.139 9.21592 16.9071 9.73436 16.3624 10.0406C15.7368 10.3906 14.8137 10.1172 14.6715 8.69967Z" fill="#FFFF8D"/>
<path d="M20.8426 15.643L25.1344 12.294C25.3466 12.1168 25.7294 11.8346 25.4232 11.513C25.1804 11.2593 24.5241 11.6246 24.5241 11.6246L20.7682 13.0924C19.6482 13.4796 18.9044 14.0527 18.8388 14.7746C18.7535 15.7371 19.6176 16.4787 20.8426 15.643Z" fill="#F4B400"/>
<path d="M54.8861 1.58156L57.8304 8.29719C57.9412 8.54993 58.1178 8.7683 58.3417 8.92953C58.5656 9.09075 58.8288 9.1889 59.1036 9.21375L66.2764 9.85688C67.0879 9.975 67.4117 10.9703 66.8233 11.5434L61.4201 16.0825C60.9826 16.45 60.7836 17.0275 60.9039 17.5853L62.4745 24.9375C62.6123 25.7447 61.7658 26.3616 61.0395 25.9788L54.7789 22.3125C54.5428 22.1739 54.2739 22.1008 54.0001 22.1008C53.7263 22.1008 53.4575 22.1739 53.2214 22.3125L46.9608 25.9766C46.2367 26.3572 45.3879 25.7425 45.5258 24.9353L47.0964 17.5831C47.2145 17.0253 47.0176 16.4478 46.5801 16.0803L41.1748 11.5456C40.5886 10.9747 40.9123 9.97719 41.7217 9.85906L48.8945 9.21594C49.1693 9.19109 49.4324 9.09294 49.6564 8.93171C49.8803 8.77049 50.0569 8.55211 50.1676 8.29937L53.112 1.58375C53.4773 0.84875 54.5229 0.84875 54.8861 1.58156Z" fill="#FDD835"/>
<path d="M54.6715 8.69967L54.1727 3.75154C54.153 3.47592 54.0962 3.00342 54.538 3.00342C54.888 3.00342 55.0783 3.73186 55.0783 3.73186L56.5746 7.70436C57.139 9.21592 56.9071 9.73436 56.3624 10.0406C55.7368 10.3906 54.8137 10.1172 54.6715 8.69967Z" fill="#FFFF8D"/>
<path d="M60.8426 15.643L65.1344 12.294C65.3466 12.1168 65.7294 11.8346 65.4232 11.513C65.1804 11.2593 64.5241 11.6246 64.5241 11.6246L60.7682 13.0924C59.6482 13.4796 58.9044 14.0527 58.8388 14.7746C58.7535 15.7371 59.6176 16.4787 60.8426 15.643Z" fill="#F4B400"/>
<path d="M94.8861 2.58156L97.8304 9.29719C97.9412 9.54993 98.1178 9.7683 98.3417 9.92953C98.5656 10.0907 98.8288 10.1889 99.1036 10.2137L106.276 10.8569C107.088 10.975 107.412 11.9703 106.823 12.5434L101.42 17.0825C100.983 17.45 100.784 18.0275 100.904 18.5853L102.475 25.9375C102.612 26.7447 101.766 27.3616 101.04 26.9788L94.7789 23.3125C94.5428 23.1739 94.2739 23.1008 94.0001 23.1008C93.7263 23.1008 93.4575 23.1739 93.2214 23.3125L86.9608 26.9766C86.2367 27.3572 85.3879 26.7425 85.5258 25.9353L87.0964 18.5831C87.2145 18.0253 87.0176 17.4478 86.5801 17.0803L81.1748 12.5456C80.5886 11.9747 80.9123 10.9772 81.7217 10.8591L88.8945 10.2159C89.1693 10.1911 89.4324 10.0929 89.6564 9.93171C89.8803 9.77049 90.0569 9.55211 90.1676 9.29937L93.112 2.58375C93.4773 1.84875 94.5229 1.84875 94.8861 2.58156Z" fill="#FDD835"/>
<path d="M94.6715 9.69967L94.1727 4.75154C94.153 4.47592 94.0962 4.00342 94.538 4.00342C94.888 4.00342 95.0783 4.73186 95.0783 4.73186L96.5746 8.70436C97.139 10.2159 96.9071 10.7344 96.3624 11.0406C95.7368 11.3906 94.8137 11.1172 94.6715 9.69967Z" fill="#FFFF8D"/>
<path d="M100.843 16.643L105.134 13.294C105.347 13.1168 105.729 12.8346 105.423 12.513C105.18 12.2593 104.524 12.6246 104.524 12.6246L100.768 14.0924C99.6482 14.4796 98.9044 15.0527 98.8388 15.7746C98.7535 16.7371 99.6176 17.4787 100.843 16.643Z" fill="#F4B400"/>
<path d="M134.886 4.58156L137.83 11.2972C137.941 11.5499 138.118 11.7683 138.341 11.9295C138.565 12.0907 138.829 12.1889 139.103 12.2137L146.276 12.8569C147.088 12.975 147.411 13.9703 146.823 14.5434L141.42 19.0825C140.982 19.45 140.783 20.0275 140.904 20.5853L142.474 27.9375C142.612 28.7447 141.766 29.3616 141.039 28.9788L134.779 25.3125C134.543 25.1739 134.274 25.1008 134 25.1008C133.726 25.1008 133.457 25.1739 133.221 25.3125L126.961 28.9766C126.236 29.3572 125.388 28.7425 125.526 27.9353L127.096 20.5831C127.214 20.0253 127.017 19.4478 126.58 19.0803L121.175 14.5456C120.588 13.9747 120.912 12.9772 121.721 12.8591L128.894 12.2159C129.169 12.1911 129.432 12.0929 129.656 11.9317C129.88 11.7705 130.057 11.5521 130.167 11.2994L133.112 4.58375C133.477 3.84875 134.523 3.84875 134.886 4.58156Z" fill="#FDD835"/>
<path d="M134.671 11.6997L134.173 6.75154C134.153 6.47592 134.096 6.00342 134.538 6.00342C134.888 6.00342 135.078 6.73186 135.078 6.73186L136.575 10.7044C137.139 12.2159 136.907 12.7344 136.362 13.0406C135.737 13.3906 134.814 13.1172 134.671 11.6997Z" fill="#FFFF8D"/>
<path d="M140.843 18.643L145.134 15.294C145.347 15.1168 145.729 14.8346 145.423 14.513C145.18 14.2593 144.524 14.6246 144.524 14.6246L140.768 16.0924C139.648 16.4796 138.904 17.0527 138.839 17.7746C138.753 18.7371 139.618 19.4787 140.843 18.643Z" fill="#F4B400"/>
<path d="M174.886 3.58156L177.83 10.2972C177.941 10.5499 178.118 10.7683 178.341 10.9295C178.565 11.0907 178.829 11.1889 179.103 11.2137L186.276 11.8569C187.088 11.975 187.411 12.9703 186.823 13.5434L181.42 18.0825C180.982 18.45 180.783 19.0275 180.904 19.5853L182.474 26.9375C182.612 27.7447 181.766 28.3616 181.039 27.9788L174.779 24.3125C174.543 24.1739 174.274 24.1008 174 24.1008C173.726 24.1008 173.457 24.1739 173.221 24.3125L166.961 27.9766C166.236 28.3572 165.388 27.7425 165.526 26.9353L167.096 19.5831C167.214 19.0253 167.017 18.4478 166.58 18.0803L161.175 13.5456C160.588 12.9747 160.912 11.9772 161.721 11.8591L168.894 11.2159C169.169 11.1911 169.432 11.0929 169.656 10.9317C169.88 10.7705 170.057 10.5521 170.167 10.2994L173.112 3.58375C173.477 2.84875 174.523 2.84875 174.886 3.58156Z" fill="#FDD835"/>
<path d="M174.671 10.6997L174.173 5.75154C174.153 5.47592 174.096 5.00342 174.538 5.00342C174.888 5.00342 175.078 5.73186 175.078 5.73186L176.575 9.70436C177.139 11.2159 176.907 11.7344 176.362 12.0406C175.737 12.3906 174.814 12.1172 174.671 10.6997Z" fill="#FFFF8D"/>
<path d="M180.843 17.643L185.134 14.294C185.347 14.1168 185.729 13.8346 185.423 13.513C185.18 13.2593 184.524 13.6246 184.524 13.6246L180.768 15.0924C179.648 15.4796 178.904 16.0527 178.839 16.7746C178.753 17.7371 179.618 18.4787 180.843 17.643Z" fill="#F4B400"/>
</svg>
