<svg width="43" height="42" viewBox="0 0 43 42" fill="none" xmlns="http://www.w3.org/2000/svg">
<ellipse cx="21.4881" cy="20.8726" rx="21.4881" ry="20.8723" fill="white"/>
<path d="M22.3841 10.5813C27.7411 10.5813 32.0835 14.7993 32.0835 20.0028C32.0835 25.2064 27.7411 29.4244 22.3841 29.4244C20.67 29.4271 18.986 28.9864 17.5052 28.1478L12.6885 29.4244L13.9998 24.7438C13.1357 23.305 12.6817 21.6686 12.6846 20.0028C12.6846 14.7993 17.027 10.5813 22.3841 10.5813ZM19.0785 15.5747L18.8845 15.5823C18.7589 15.5897 18.6362 15.6217 18.5237 15.6765C18.4185 15.7343 18.3224 15.8067 18.2385 15.8913C18.1221 15.9977 18.0562 16.0901 17.9854 16.1796C17.6266 16.6327 17.4334 17.1889 17.4364 17.7605C17.4383 18.2222 17.5625 18.6716 17.7564 19.0918C18.1532 19.9416 18.8059 20.8414 19.6672 21.6752C19.8748 21.8758 20.0785 22.0775 20.2977 22.265C21.3679 23.1802 22.6433 23.8403 24.0223 24.1926L24.5732 24.2746C24.7527 24.284 24.9321 24.2708 25.1125 24.2623C25.395 24.2482 25.6708 24.1739 25.9205 24.0447C26.0475 23.9811 26.1715 23.912 26.292 23.8374C26.292 23.8374 26.3337 23.811 26.4132 23.7526C26.5442 23.6584 26.6247 23.5915 26.7333 23.4813C26.8138 23.4002 26.8837 23.3051 26.937 23.1967C27.0127 23.0432 27.0883 22.7502 27.1194 22.5061C27.1426 22.3196 27.1358 22.2178 27.1329 22.1547C27.1291 22.0539 27.0427 21.9493 26.9486 21.9051L26.3841 21.6591C26.3841 21.6591 25.5403 21.3021 25.0243 21.0741C24.9703 21.0512 24.9124 21.0381 24.8536 21.0354C24.7872 21.0288 24.7201 21.0361 24.6569 21.0567C24.5937 21.0774 24.5357 21.1109 24.4869 21.1551C24.4821 21.1532 24.4171 21.2069 23.7158 22.0322C23.6756 22.0848 23.6201 22.1245 23.5565 22.1463C23.493 22.1681 23.4242 22.171 23.3589 22.1547C23.2957 22.1383 23.2338 22.1175 23.1736 22.0925C23.0533 22.0435 23.0116 22.0247 22.9292 21.9908C22.3725 21.7548 21.8571 21.436 21.4015 21.0458C21.2793 20.9422 21.1658 20.8291 21.0494 20.7198C20.6678 20.3648 20.3353 19.9633 20.0601 19.5252L20.0028 19.4357C19.9617 19.3755 19.9285 19.3106 19.9039 19.2425C19.8671 19.104 19.9631 18.9929 19.9631 18.9929C19.9631 18.9929 20.1988 18.7422 20.3084 18.6066C20.4151 18.4747 20.5053 18.3465 20.5635 18.2551C20.6779 18.0761 20.7138 17.8924 20.6537 17.7502C20.3821 17.1057 20.1008 16.4641 19.8118 15.8272C19.7545 15.701 19.5848 15.6105 19.4306 15.5926C19.3782 15.587 19.3258 15.5813 19.2734 15.5775C19.1432 15.5713 19.0127 15.5725 18.8826 15.5813L19.0775 15.5738L19.0785 15.5747Z" fill="black"/>
</svg>
