<svg width="37" height="19" viewBox="0 0 37 19" fill="none" xmlns="http://www.w3.org/2000/svg">
<rect x="0.5" y="0.5" width="18" height="18" rx="1.5" stroke="white"/>
<path d="M15.1673 16.6665H3.83398V15.3332C3.83398 13.4922 5.41965 11.9998 7.37565 11.9998H11.6257C13.5816 11.9998 15.1673 13.4922 15.1673 15.3332V16.6665ZM9.50065 10.6665C7.15344 10.6665 5.25065 8.87564 5.25065 6.6665C5.25065 4.45736 7.15344 2.6665 9.50065 2.6665C11.8479 2.6665 13.7507 4.45736 13.7507 6.6665C13.7507 8.87564 11.8479 10.6665 9.50065 10.6665Z" fill="white"/>
<path d="M28.5 11.3298L32.0061 7.82373L33.0078 8.82546L28.5 13.3333L23.9922 8.82546L24.9939 7.82373L28.5 11.3298Z" fill="white"/>
</svg>
