<svg width="37" height="19" viewBox="0 0 37 19" fill="none" xmlns="http://www.w3.org/2000/svg">
<rect x="0.5" y="0.5" width="18" height="18" rx="1.5" stroke="white"/>
<path d="M15.1668 16.6665H3.8335V15.3332C3.8335 13.4922 5.41916 11.9998 7.37516 11.9998H11.6252C13.5812 11.9998 15.1668 13.4922 15.1668 15.3332V16.6665ZM9.50016 10.6665C7.15295 10.6665 5.25016 8.87564 5.25016 6.6665C5.25016 4.45736 7.15295 2.6665 9.50016 2.6665C11.8474 2.6665 13.7502 4.45736 13.7502 6.6665C13.7502 8.87564 11.8474 10.6665 9.50016 10.6665Z" fill="white"/>
<path d="M28.5 11.3298L32.0061 7.82373L33.0078 8.82546L28.5 13.3333L23.9922 8.82546L24.9939 7.82373L28.5 11.3298Z" fill="white"/>
</svg>
