<svg width="43" height="42" viewBox="0 0 43 42" fill="none" xmlns="http://www.w3.org/2000/svg">
<ellipse cx="21.4881" cy="20.8726" rx="21.4881" ry="20.8723" fill="white"/>
<path d="M32.5281 14.8846C31.7813 15.2143 30.9762 15.431 30.1421 15.5346C30.9956 15.0353 31.6552 14.2439 31.9656 13.2923C31.1605 13.7634 30.2682 14.0931 29.3273 14.2816C28.561 13.4713 27.4844 13.0002 26.2623 13.0002C23.9829 13.0002 22.1206 14.8092 22.1206 17.0421C22.1206 17.3624 22.1594 17.6733 22.2273 17.9654C18.7743 17.7958 15.6995 16.1847 13.6529 13.7445C13.2941 14.3381 13.0904 15.0353 13.0904 15.7702C13.0904 17.174 13.8178 18.4176 14.943 19.1242C14.2543 19.1242 13.6141 18.9358 13.0516 18.6532V18.6814C13.0516 20.6411 14.4871 22.2805 16.3882 22.6479C15.7778 22.8101 15.1371 22.8327 14.5162 22.7139C14.7796 23.517 15.2956 24.2198 15.9915 24.7234C16.6874 25.227 17.5283 25.5061 18.396 25.5215C16.9252 26.6525 15.102 27.2638 13.2262 27.255C12.8964 27.255 12.5666 27.2362 12.2368 27.1985C14.0797 28.3479 16.2718 29.0169 18.6191 29.0169C26.2623 29.0169 30.4621 22.8552 30.4621 17.5132C30.4621 17.3342 30.4621 17.1646 30.4524 16.9856C31.2672 16.4203 31.9656 15.7042 32.5281 14.8846Z" fill="black"/>
</svg>
