<svg width="37" height="19" viewBox="0 0 37 19" fill="none" xmlns="http://www.w3.org/2000/svg">
<rect x="0.5" y="0.5" width="18" height="18" rx="1.5" stroke="white"/>
<path d="M15.3333 17H4V15.6667C4 13.8257 5.58566 12.3333 7.54167 12.3333H11.7917C13.7477 12.3333 15.3333 13.8257 15.3333 15.6667V17ZM9.66667 11C7.31946 11 5.41667 9.20913 5.41667 7C5.41667 4.79086 7.31946 3 9.66667 3C12.0139 3 13.9167 4.79086 13.9167 7C13.9167 9.20913 12.0139 11 9.66667 11Z" fill="white"/>
<path d="M28.5 11.3298L32.0061 7.82373L33.0078 8.82546L28.5 13.3333L23.9922 8.82546L24.9939 7.82373L28.5 11.3298Z" fill="white"/>
</svg>
