<svg width="37" height="19" viewBox="0 0 37 19" fill="none" xmlns="http://www.w3.org/2000/svg">
<rect x="0.5" y="0.5" width="18" height="18" rx="1.5" stroke="white"/>
<path d="M15.1666 16.6665H3.83325V15.3332C3.83325 13.4922 5.41891 11.9998 7.37492 11.9998H11.6249C13.5809 11.9998 15.1666 13.4922 15.1666 15.3332V16.6665ZM9.49992 10.6665C7.15271 10.6665 5.24992 8.87564 5.24992 6.6665C5.24992 4.45736 7.15271 2.6665 9.49992 2.6665C11.8471 2.6665 13.7499 4.45736 13.7499 6.6665C13.7499 8.87564 11.8471 10.6665 9.49992 10.6665Z" fill="white"/>
<path d="M28.4997 11.3298L32.0059 7.82373L33.0076 8.82546L28.4997 13.3333L23.9919 8.82546L24.9937 7.82373L28.4997 11.3298Z" fill="white"/>
</svg>
