<svg width="37" height="19" viewBox="0 0 37 19" fill="none" xmlns="http://www.w3.org/2000/svg">
<rect x="0.5" y="0.5" width="18" height="18" rx="1.5" stroke="white"/>
<path d="M15.1667 16.6665H3.83334V15.3332C3.83334 13.4922 5.419 11.9998 7.37501 11.9998H11.625C13.581 11.9998 15.1667 13.4922 15.1667 15.3332V16.6665ZM9.50001 10.6665C7.1528 10.6665 5.25001 8.87564 5.25001 6.6665C5.25001 4.45736 7.1528 2.6665 9.50001 2.6665C11.8472 2.6665 13.75 4.45736 13.75 6.6665C13.75 8.87564 11.8472 10.6665 9.50001 10.6665Z" fill="white"/>
<path d="M28.4998 11.3298L32.0059 7.82373L33.0076 8.82546L28.4998 13.3333L23.992 8.82546L24.9937 7.82373L28.4998 11.3298Z" fill="white"/>
</svg>
