<svg width="44" height="40" viewBox="0 0 44 40" fill="none" xmlns="http://www.w3.org/2000/svg">
<path d="M4.92727 34.6819C4.65658 34.5972 4.42174 34.4377 4.25552 34.2258C4.08929 34.0139 3.99996 33.7602 4 33.4999C4 27.789 5.26156 23.2218 7.75117 19.9241C10.759 15.9397 15.5036 13.7944 21.875 13.528V7.24989C21.875 7.00513 21.9541 6.76575 22.1024 6.56147C22.2507 6.35718 22.4617 6.19697 22.7093 6.10072C22.9568 6.00446 23.23 5.97639 23.4949 6.01999C23.7599 6.06359 24.0049 6.17694 24.1996 6.34598L39.3246 19.471C39.459 19.5877 39.566 19.728 39.6391 19.8833C39.7122 20.0387 39.7499 20.2059 39.7499 20.3749C39.7499 20.5439 39.7122 20.7111 39.6391 20.8664C39.566 21.0218 39.459 21.1621 39.3246 21.2788L24.1996 34.4038C24.0049 34.5728 23.7599 34.6862 23.4949 34.7298C23.23 34.7734 22.9568 34.7453 22.7093 34.6491C22.4617 34.5528 22.2507 34.3926 22.1024 34.1883C21.9541 33.984 21.875 33.7447 21.875 33.4999V27.2679C18.0078 27.3741 15.0859 27.9436 12.7596 29.0366C10.2459 30.2179 8.4232 31.9827 6.45867 34.271C6.28243 34.4761 6.04014 34.6262 5.76561 34.7001C5.49107 34.7741 5.19799 34.7682 4.92727 34.6835V34.6819Z" fill="white"/>
</svg>
