<svg width="44" height="40" viewBox="0 0 44 40" fill="none" xmlns="http://www.w3.org/2000/svg">
<path d="M5.05227 34.3069C4.78158 34.2222 4.54674 34.0627 4.38052 33.8508C4.21429 33.6389 4.12496 33.3852 4.125 33.1249C4.125 27.414 5.38656 22.8468 7.87617 19.5491C10.884 15.5647 15.6286 13.4194 22 13.153V6.87489C22 6.63013 22.0791 6.39075 22.2274 6.18647C22.3757 5.98218 22.5867 5.82197 22.8343 5.72572C23.0818 5.62946 23.355 5.60139 23.6199 5.64499C23.8849 5.68859 24.1299 5.80194 24.3246 5.97098L39.4496 19.096C39.584 19.2127 39.691 19.353 39.7641 19.5083C39.8372 19.6637 39.8749 19.8309 39.8749 19.9999C39.8749 20.1689 39.8372 20.3361 39.7641 20.4914C39.691 20.6468 39.584 20.7871 39.4496 20.9038L24.3246 34.0288C24.1299 34.1978 23.8849 34.3112 23.6199 34.3548C23.355 34.3984 23.0818 34.3703 22.8343 34.2741C22.5867 34.1778 22.3757 34.0176 22.2274 33.8133C22.0791 33.609 22 33.3697 22 33.1249V26.8929C18.1328 26.9991 15.2109 27.5686 12.8846 28.6616C10.3709 29.8429 8.5482 31.6077 6.58367 33.896C6.40743 34.1011 6.16514 34.2512 5.89061 34.3251C5.61607 34.3991 5.32299 34.3932 5.05227 34.3085V34.3069Z" fill="white"/>
</svg>
