<svg width="61" height="25" viewBox="0 0 61 25" fill="none" xmlns="http://www.w3.org/2000/svg">
<g clip-path="url(#clip0_230_2812)">
<path d="M43.2385 6.74718C44.9155 6.74718 46.2113 7.21764 47.2024 8.15857C48.1932 9.09938 48.6505 10.3539 48.6505 11.9221V19.449H46.5162V17.7243H46.44C45.5253 19.1357 44.2294 19.8413 42.7049 19.8413C41.409 19.8413 40.2656 19.4491 39.351 18.6652C38.5125 17.8811 37.9788 16.7835 37.9788 15.6073C37.9788 14.3528 38.4363 13.3335 39.351 12.5494C40.2656 11.7653 41.5615 11.4517 43.086 11.4517C44.4581 11.4517 45.5253 11.687 46.3637 12.2358V11.687C46.3637 10.9551 46.0982 10.2234 45.5669 9.74656L45.449 9.6484C44.8392 9.0995 44.0769 8.7859 43.2385 8.7859C41.9427 8.7859 40.9518 9.3348 40.2656 10.4325L38.2838 9.17769C39.5034 7.53112 41.1041 6.74718 43.2385 6.74718ZM32.4906 1.41556C33.8584 1.41556 35.1582 1.90514 36.1975 2.81813L36.3782 2.98357C37.4453 3.9245 37.9788 5.3359 37.9788 6.82561C37.9788 8.31531 37.4453 9.64828 36.3782 10.6675C35.3109 11.6869 34.0152 12.2357 32.4906 12.2357L28.8318 12.1572V19.4491H26.5449V1.41544L32.4906 1.41556ZM43.5433 13.3335C42.6287 13.3335 41.8664 13.5686 41.2566 14.0391C40.6468 14.4311 40.3419 14.9799 40.3419 15.6855C40.3419 16.3129 40.6469 16.8616 41.1041 17.1754C41.6378 17.5674 42.2475 17.8026 42.8574 17.8026C43.7111 17.8026 44.5648 17.461 45.2326 16.8418L45.3728 16.7049C46.1351 15.9993 46.5162 15.1368 46.5162 14.1958C45.8302 13.6471 44.8392 13.3333 43.5434 13.3333L43.5433 13.3335ZM32.6431 3.6109H28.8318V9.88357H32.6431C33.4815 9.88357 34.32 9.56997 34.8537 8.94276C36.0732 7.76666 36.0732 5.80649 34.9299 4.63026L34.8537 4.55183C34.2438 3.92463 33.4815 3.53259 32.643 3.61102L32.6431 3.6109ZM60.9992 7.13921L53.4528 24.9376H51.166L53.9863 18.7435L49.0316 7.21764H51.4709L55.0535 16.0776H55.1297L58.6362 7.21764H60.9992V7.13921Z" fill="#5F6368"/>
<path d="M19.7626 10.5891C19.7626 9.88346 19.6863 9.17782 19.6101 8.47218H10.082V12.471H15.494C15.2654 13.7254 14.5794 14.9015 13.5122 15.6072V18.1946H16.7899C18.6955 16.3913 19.7627 13.7254 19.7627 10.5892L19.7626 10.5891Z" fill="#4285F4"/>
<path d="M10.0806 20.7035C12.8246 20.7035 15.1114 19.7626 16.7884 18.1945L13.5108 15.6071C12.596 16.2343 11.4526 16.6263 10.0806 16.6263C7.48879 16.6263 5.20201 14.823 4.43975 12.314H1.08594V14.9798C2.83909 18.5081 6.26927 20.7035 10.0806 20.7035Z" fill="#34A853"/>
<path d="M4.4401 12.3141C3.98284 11.0596 3.98284 9.64828 4.4401 8.31531V5.64951H1.08629C-0.362098 8.55061 -0.362098 12.0005 1.08629 14.9799L4.4401 12.3141Z" fill="#FBBC04"/>
<path d="M10.0806 4.08141C11.5289 4.08141 12.9009 4.63031 13.9682 5.64955L16.8647 2.67014C15.0352 0.94514 12.596 -0.0741004 10.1567 0.00420839C6.34544 0.00420839 2.83913 2.19967 1.16211 5.72798L4.51604 8.39379C5.20205 5.88472 7.48883 4.08141 10.0806 4.08141Z" fill="#EA4335"/>
</g>
<defs>
<clipPath id="clip0_230_2812">
<rect width="61" height="25" fill="white"/>
</clipPath>
</defs>
</svg>
