<svg width="61" height="25" viewBox="0 0 61 25" fill="none" xmlns="http://www.w3.org/2000/svg">
<g clip-path="url(#clip0_230_3034)">
<path d="M43.2385 6.74727C44.9155 6.74727 46.2113 7.21773 47.2024 8.15866C48.1932 9.09947 48.6505 10.354 48.6505 11.9221V19.4491H46.5162V17.7244H46.44C45.5253 19.1357 44.2294 19.8414 42.7049 19.8414C41.409 19.8414 40.2656 19.4492 39.351 18.6653C38.5125 17.8812 37.9788 16.7835 37.9788 15.6074C37.9788 14.3529 38.4363 13.3335 39.351 12.5495C40.2656 11.7654 41.5615 11.4518 43.086 11.4518C44.4581 11.4518 45.5253 11.6871 46.3637 12.2359V11.6871C46.3637 10.9552 46.0982 10.2235 45.5669 9.74665L45.449 9.64849C44.8392 9.0996 44.0769 8.78599 43.2385 8.78599C41.9427 8.78599 40.9518 9.33489 40.2656 10.4326L38.2838 9.17778C39.5034 7.53121 41.1041 6.74727 43.2385 6.74727ZM32.4906 1.41565C33.8584 1.41565 35.1582 1.90523 36.1975 2.81822L36.3782 2.98366C37.4453 3.9246 37.9788 5.33599 37.9788 6.8257C37.9788 8.3154 37.4453 9.64837 36.3782 10.6676C35.3109 11.687 34.0152 12.2357 32.4906 12.2357L28.8318 12.1573V19.4492H26.5449V1.41553L32.4906 1.41565ZM43.5433 13.3335C42.6287 13.3335 41.8664 13.5687 41.2566 14.0392C40.6468 14.4312 40.3419 14.98 40.3419 15.6856C40.3419 16.313 40.6469 16.8617 41.1041 17.1755C41.6378 17.5675 42.2475 17.8027 42.8574 17.8027C43.7111 17.8027 44.5648 17.4611 45.2326 16.8419L45.3728 16.705C46.1351 15.9993 46.5162 15.1369 46.5162 14.1959C45.8302 13.6471 44.8392 13.3334 43.5434 13.3334L43.5433 13.3335ZM32.6431 3.61099H28.8318V9.88367H32.6431C33.4815 9.88367 34.32 9.57006 34.8537 8.94286C36.0732 7.76675 36.0732 5.80658 34.9299 4.63036L34.8537 4.55192C34.2438 3.92472 33.4815 3.53268 32.643 3.61112L32.6431 3.61099ZM60.9992 7.1393L53.4528 24.9377H51.166L53.9863 18.7436L49.0316 7.21773H51.4709L55.0535 16.0777H55.1297L58.6362 7.21773H60.9992V7.1393Z" fill="#5F6368"/>
<path d="M19.7626 10.5891C19.7626 9.88344 19.6863 9.17781 19.6101 8.47217H10.082V12.4709H15.494C15.2654 13.7254 14.5794 14.9015 13.5122 15.6072V18.1946H16.7899C18.6955 16.3913 19.7627 13.7254 19.7627 10.5892L19.7626 10.5891Z" fill="#4285F4"/>
<path d="M10.0806 20.7035C12.8246 20.7035 15.1114 19.7626 16.7884 18.1945L13.5108 15.6071C12.596 16.2343 11.4526 16.6263 10.0806 16.6263C7.48879 16.6263 5.20201 14.823 4.43975 12.314H1.08594V14.9798C2.83909 18.5081 6.26927 20.7035 10.0806 20.7035Z" fill="#34A853"/>
<path d="M4.4401 12.314C3.98284 11.0595 3.98284 9.64819 4.4401 8.31522V5.64941H1.08629C-0.362098 8.55052 -0.362098 12.0004 1.08629 14.9798L4.4401 12.314Z" fill="#FBBC04"/>
<path d="M10.0806 4.08141C11.5289 4.08141 12.9009 4.63031 13.9682 5.64955L16.8647 2.67014C15.0352 0.94514 12.596 -0.0741004 10.1567 0.00420839C6.34544 0.00420839 2.83913 2.19967 1.16211 5.72798L4.51604 8.39379C5.20205 5.88472 7.48883 4.08141 10.0806 4.08141Z" fill="#EA4335"/>
</g>
<defs>
<clipPath id="clip0_230_3034">
<rect width="61" height="25" fill="white"/>
</clipPath>
</defs>
</svg>
