<svg width="61" height="25" viewBox="0 0 61 25" fill="none" xmlns="http://www.w3.org/2000/svg">
<g clip-path="url(#clip0_150_7680)">
<path d="M43.2393 6.74727C44.9163 6.74727 46.2121 7.21773 47.2032 8.15866C48.194 9.09947 48.6513 10.354 48.6513 11.9221V19.4491H46.517V17.7244H46.4408C45.5261 19.1357 44.2302 19.8414 42.7057 19.8414C41.4098 19.8414 40.2664 19.4492 39.3518 18.6653C38.5133 17.8812 37.9796 16.7835 37.9796 15.6074C37.9796 14.3529 38.4371 13.3335 39.3518 12.5495C40.2664 11.7654 41.5623 11.4518 43.0868 11.4518C44.4589 11.4518 45.5261 11.6871 46.3645 12.2359V11.6871C46.3645 10.9552 46.099 10.2235 45.5677 9.74665L45.4498 9.64849C44.84 9.0996 44.0777 8.78599 43.2393 8.78599C41.9435 8.78599 40.9526 9.33489 40.2664 10.4326L38.2846 9.17778C39.5042 7.53121 41.1049 6.74727 43.2393 6.74727ZM32.4914 1.41565C33.8592 1.41565 35.159 1.90523 36.1983 2.81822L36.379 2.98366C37.4461 3.9246 37.9796 5.33599 37.9796 6.8257C37.9796 8.3154 37.4461 9.64837 36.379 10.6676C35.3117 11.687 34.016 12.2357 32.4914 12.2357L28.8326 12.1573V19.4492H26.5457V1.41553L32.4914 1.41565ZM43.5441 13.3335C42.6295 13.3335 41.8672 13.5687 41.2574 14.0392C40.6476 14.4312 40.3427 14.98 40.3427 15.6856C40.3427 16.313 40.6477 16.8617 41.1049 17.1755C41.6386 17.5675 42.2483 17.8027 42.8582 17.8027C43.7119 17.8027 44.5656 17.4611 45.2334 16.8419L45.3736 16.705C46.1359 15.9993 46.517 15.1369 46.517 14.1959C45.831 13.6471 44.84 13.3334 43.5442 13.3334L43.5441 13.3335ZM32.6439 3.61099H28.8326V9.88367H32.6439C33.4823 9.88367 34.3208 9.57006 34.8545 8.94286C36.074 7.76675 36.074 5.80658 34.9307 4.63036L34.8545 4.55192C34.2446 3.92472 33.4823 3.53268 32.6438 3.61112L32.6439 3.61099ZM61 7.1393L53.4536 24.9377H51.1668L53.9871 18.7436L49.0324 7.21773H51.4717L55.0543 16.0777H55.1305L58.637 7.21773H61V7.1393Z" fill="#5F6368"/>
<path d="M19.7616 10.5891C19.7616 9.88344 19.6854 9.17781 19.6091 8.47217H10.0811V12.4709H15.493C15.2644 13.7254 14.5784 14.9015 13.5113 15.6072V18.1946H16.7889C18.6946 16.3913 19.7617 13.7254 19.7617 10.5892L19.7616 10.5891Z" fill="#4285F4"/>
<path d="M10.081 20.7035C12.825 20.7035 15.1118 19.7626 16.7888 18.1945L13.5111 15.6071C12.5964 16.2343 11.453 16.6263 10.081 16.6263C7.48918 16.6263 5.2024 14.823 4.44014 12.314H1.08633V14.9798C2.83948 18.5081 6.26966 20.7035 10.081 20.7035Z" fill="#34A853"/>
<path d="M4.44013 12.314C3.98287 11.0595 3.98287 9.64819 4.44013 8.31522V5.64941H1.08632C-0.362068 8.55052 -0.362068 12.0004 1.08632 14.9798L4.44013 12.314Z" fill="#FBBC04"/>
<path d="M10.081 4.08141C11.5292 4.08141 12.9013 4.63031 13.9685 5.64955L16.8651 2.67014C15.0355 0.94514 12.5964 -0.0741004 10.1571 0.00420839C6.34578 0.00420839 2.83948 2.19967 1.16245 5.72798L4.51638 8.39379C5.20239 5.88472 7.48918 4.08141 10.081 4.08141Z" fill="#EA4335"/>
</g>
<defs>
<clipPath id="clip0_150_7680">
<rect width="61" height="25" fill="white"/>
</clipPath>
</defs>
</svg>
