<svg width="61" height="25" viewBox="0 0 61 25" fill="none" xmlns="http://www.w3.org/2000/svg">
<g clip-path="url(#clip0_215_2514)">
<path d="M43.2395 6.74727C44.9164 6.74727 46.2123 7.21773 47.2033 8.15866C48.1942 9.09947 48.6515 10.354 48.6515 11.9221V19.4491H46.5172V17.7244H46.441C45.5263 19.1357 44.2304 19.8414 42.7059 19.8414C41.41 19.8414 40.2666 19.4492 39.352 18.6653C38.5135 17.8812 37.9798 16.7835 37.9798 15.6074C37.9798 14.3529 38.4373 13.3335 39.352 12.5495C40.2666 11.7654 41.5625 11.4518 43.087 11.4518C44.459 11.4518 45.5263 11.6871 46.3647 12.2359V11.6871C46.3647 10.9552 46.0991 10.2235 45.5679 9.74665L45.4499 9.64849C44.8402 9.0996 44.0779 8.78599 43.2395 8.78599C41.9436 8.78599 40.9527 9.33489 40.2666 10.4326L38.2848 9.17778C39.5043 7.53121 41.1051 6.74727 43.2395 6.74727ZM32.4916 1.41565C33.8593 1.41565 35.1592 1.90523 36.1984 2.81822L36.3792 2.98366C37.4463 3.9246 37.9798 5.33599 37.9798 6.8257C37.9798 8.3154 37.4463 9.64837 36.3792 10.6676C35.3119 11.687 34.0161 12.2357 32.4916 12.2357L28.8328 12.1573V19.4492H26.5459V1.41553L32.4916 1.41565ZM43.5443 13.3335C42.6296 13.3335 41.8674 13.5687 41.2576 14.0392C40.6477 14.4312 40.3429 14.98 40.3429 15.6856C40.3429 16.313 40.6479 16.8617 41.1051 17.1755C41.6388 17.5675 42.2485 17.8027 42.8584 17.8027C43.712 17.8027 44.5658 17.4611 45.2336 16.8419L45.3738 16.705C46.1361 15.9993 46.5172 15.1369 46.5172 14.1959C45.8312 13.6471 44.8402 13.3334 43.5444 13.3334L43.5443 13.3335ZM32.6441 3.61099H28.8328V9.88367H32.6441C33.4825 9.88367 34.321 9.57006 34.8546 8.94286C36.0742 7.76675 36.0742 5.80658 34.9309 4.63036L34.8546 4.55192C34.2448 3.92472 33.4825 3.53268 32.644 3.61112L32.6441 3.61099ZM61.0002 7.1393L53.4538 24.9377H51.167L53.9873 18.7436L49.0326 7.21773H51.4719L55.0545 16.0777H55.1307L58.6371 7.21773H61.0002V7.1393Z" fill="#5F6368"/>
<path d="M19.7616 10.5891C19.7616 9.88344 19.6853 9.17781 19.6091 8.47217H10.0811V12.4709H15.493C15.2644 13.7254 14.5784 14.9015 13.5112 15.6072V18.1946H16.7889C18.6946 16.3913 19.7617 13.7254 19.7617 10.5892L19.7616 10.5891Z" fill="#4285F4"/>
<path d="M10.0806 20.7035C12.8246 20.7035 15.1114 19.7626 16.7884 18.1945L13.5108 15.6071C12.596 16.2343 11.4526 16.6263 10.0806 16.6263C7.48879 16.6263 5.20201 14.823 4.43975 12.314H1.08594V14.9798C2.83909 18.5081 6.26927 20.7035 10.0806 20.7035Z" fill="#34A853"/>
<path d="M4.4401 12.314C3.98284 11.0595 3.98284 9.64819 4.4401 8.31522V5.64941H1.08629C-0.362098 8.55052 -0.362098 12.0004 1.08629 14.9798L4.4401 12.314Z" fill="#FBBC04"/>
<path d="M10.0806 4.08141C11.5289 4.08141 12.9009 4.63031 13.9682 5.64955L16.8647 2.67014C15.0352 0.94514 12.596 -0.0741004 10.1567 0.00420839C6.34544 0.00420839 2.83913 2.19967 1.16211 5.72798L4.51604 8.39379C5.20205 5.88472 7.48883 4.08141 10.0806 4.08141Z" fill="#EA4335"/>
</g>
<defs>
<clipPath id="clip0_215_2514">
<rect width="61" height="25" fill="white"/>
</clipPath>
</defs>
</svg>
