<svg width="15" height="16" viewBox="0 0 15 16" fill="none" xmlns="http://www.w3.org/2000/svg">
<g clip-path="url(#clip0_298_22833)">
<path d="M12.5 12.1667L12.75 12.5C12.8536 12.6381 12.8256 12.8339 12.6875 12.9375C12.6334 12.9781 12.5676 13 12.5 13H2.5C2.32741 13 2.1875 12.8601 2.1875 12.6875C2.1875 12.6199 2.20943 12.5541 2.25 12.5L2.5 12.1667V6.75C2.5 3.98857 4.73857 1.75 7.5 1.75C10.2614 1.75 12.5 3.98857 12.5 6.75V12.1667ZM5.9375 13.625H9.0625C9.0625 14.4879 8.36294 15.1875 7.5 15.1875C6.63706 15.1875 5.9375 14.4879 5.9375 13.625Z" fill="black"/>
</g>
<defs>
<clipPath id="clip0_298_22833">
<rect width="15" height="15" fill="white" transform="translate(0 0.5)"/>
</clipPath>
</defs>
</svg>
