<svg width="15" height="15" viewBox="0 0 15 15" fill="none" xmlns="http://www.w3.org/2000/svg">
<path d="M12.5 11.6667L12.75 12C12.8536 12.1381 12.8256 12.3339 12.6875 12.4375C12.6334 12.4781 12.5676 12.5 12.5 12.5H2.5C2.32741 12.5 2.1875 12.3601 2.1875 12.1875C2.1875 12.1199 2.20943 12.0541 2.25 12L2.5 11.6667V6.25C2.5 3.48857 4.73857 1.25 7.5 1.25C10.2614 1.25 12.5 3.48857 12.5 6.25V11.6667ZM5.9375 13.125H9.0625C9.0625 13.9879 8.36294 14.6875 7.5 14.6875C6.63706 14.6875 5.9375 13.9879 5.9375 13.125Z" fill="black"/>
</svg>
