<svg width="25" height="25" viewBox="0 0 25 25" fill="none" xmlns="http://www.w3.org/2000/svg">
<g clip-path="url(#clip0_230_3154)">
<path d="M12.5 24.2441C18.9872 24.2441 24.2461 18.9861 24.2461 12.5C24.2461 6.01389 18.9872 0.755859 12.5 0.755859C6.01281 0.755859 0.753906 6.01389 0.753906 12.5C0.753906 18.9861 6.01281 24.2441 12.5 24.2441Z" fill="white"/>
<path d="M17.3212 12.3556C16.8661 12.2912 16.4619 12.6544 16.1064 12.883C15.3388 13.3732 14.6611 13.9416 14.0068 14.5822C13.6025 14.9787 13.0556 15.506 12.9111 16.0763C12.8447 16.34 12.9267 16.6427 12.9794 16.9005C13.0712 17.3498 13.2119 17.7873 13.3525 18.2228C13.5114 18.7123 13.6952 19.1934 13.9033 19.6642C14.0068 19.9005 14.1201 20.1349 14.2314 20.3693C14.3349 20.588 14.4033 20.7169 14.6572 20.7501C14.9423 20.7873 15.2275 20.7443 15.5107 20.7326C15.9286 20.7169 16.3466 20.6759 16.7587 20.6056C17.3036 20.5138 17.8525 20.4142 18.374 20.2287C18.8564 20.0548 19.4091 19.7853 19.6884 19.3419C20.288 18.3888 20.6513 17.3068 20.8505 16.2033C20.9091 15.8849 20.9658 15.5607 20.9638 15.2345C20.9658 14.9474 20.9911 14.6525 20.7841 14.4318C20.413 14.0333 19.9736 13.7033 19.5185 13.4044C18.8447 12.9669 18.1396 12.4728 17.3212 12.3556ZM4.06927 7.75015C3.64544 7.97476 3.31341 8.50991 3.06537 8.90249C2.56927 9.68374 2.16888 10.5861 1.98138 11.4943C1.8388 12.1896 2.14935 12.8673 2.38177 13.5099C2.60834 14.1291 3.00287 14.6193 3.43451 15.1056C3.54388 15.2306 3.68255 15.3244 3.79193 15.4474C3.91693 15.5861 4.07513 15.7169 4.2392 15.8087C4.35638 15.8751 4.46185 15.7853 4.58099 15.758C4.89545 15.6818 5.12982 15.5216 5.41498 15.3712C5.67084 15.2345 5.93451 15.1193 6.19232 14.9826C6.74505 14.6857 7.40326 14.4416 7.88568 14.0333C7.94818 13.9806 8.03021 13.9142 8.04779 13.8302C8.09271 13.6212 8.03021 13.3498 8.02045 13.1369C8.00873 12.838 8.00482 12.5412 8.00287 12.2423C8.00091 11.5666 8.0263 10.8908 8.0263 10.215C8.03216 9.83804 8.07904 9.46304 8.06146 9.08608C8.03021 8.52554 7.42474 8.32632 6.96966 8.21304C6.33099 8.05483 5.68841 7.83804 5.03607 7.75796C4.76654 7.72866 4.32123 7.61733 4.06927 7.75015ZM20.6494 6.0646C20.7099 5.64077 20.4267 5.13101 20.2216 4.7521C19.8154 3.99624 19.2333 3.25405 18.5068 2.66421C17.9521 2.21304 17.1357 2.02944 16.3759 1.95327C15.0146 1.8146 13.9755 1.89858 13.6884 1.94351C13.3994 1.98843 13.1279 2.07632 12.9736 2.26773C12.6689 2.63882 12.6161 3.17007 12.5517 3.6271C12.4579 4.27944 12.3759 4.95132 12.4619 5.60757C12.4755 5.72476 12.4931 5.87905 12.5497 5.98257C12.6572 6.17397 12.8837 6.26968 13.1083 6.36929C14.2724 6.88296 16.4931 8.15444 16.8544 8.32632C17.3935 8.58608 17.9677 8.24038 18.3661 7.96108C18.9189 7.57241 19.5341 7.20718 20.0224 6.76773C20.2236 6.58804 20.6122 6.3146 20.6494 6.0646ZM3.92865 20.5939C3.97552 20.6662 4.02045 20.7209 4.09271 20.7755C4.20795 20.8634 4.31732 20.9533 4.42669 21.049C5.38177 21.8869 6.50091 22.5177 7.61029 23.1232C7.94427 23.3068 8.26263 23.4943 8.60248 23.6642C8.96966 23.8459 9.34857 23.9689 9.7431 24.0783C10.0107 24.1525 10.2822 24.2248 10.5595 24.2521C10.8173 24.2775 11.081 24.338 11.3408 24.3419C11.4892 24.3439 11.6259 24.338 11.7704 24.3185C11.7001 24.2052 11.6376 24.0607 11.5771 23.9396C11.4814 23.7501 11.3837 23.5587 11.2861 23.3712C11.1728 23.1544 11.0849 22.9279 10.9697 22.713C10.8798 22.549 10.7626 22.3791 10.6005 22.2833C10.3837 22.1544 10.1767 22.0275 9.94037 21.9318C9.07709 21.5802 8.30365 21.0841 7.50091 20.6193C7.09466 20.383 6.69623 20.131 6.31341 19.8556C6.10834 19.7091 5.90912 19.5568 5.69232 19.4259C5.6474 19.3966 5.60248 19.3615 5.54974 19.3537C5.50287 19.3458 5.4306 19.3478 5.38373 19.3537C5.34076 19.3595 5.28998 19.3673 5.24896 19.3751C4.96771 19.4337 4.66302 19.508 4.37201 19.5724C4.09466 19.6349 3.78412 19.6564 3.51849 19.758C3.41498 19.797 3.42669 19.8556 3.46771 19.9455C3.53021 20.0861 3.62201 20.215 3.71771 20.3322C3.78216 20.4162 3.86224 20.4943 3.92865 20.5939Z" fill="#FCDE3E"/>
<path d="M7.3072 9.4374C7.24107 9.43745 7.17626 9.41879 7.12028 9.38357C7.0643 9.34836 7.01942 9.29802 6.99082 9.23839C6.96223 9.17875 6.95109 9.11224 6.95869 9.04654C6.96629 8.98084 6.99231 8.91863 7.03377 8.86709C7.12947 8.7499 9.38338 5.98818 13.4146 5.36318C13.46 5.35626 13.5063 5.35834 13.5509 5.36932C13.5955 5.38029 13.6375 5.39995 13.6745 5.42715C13.7115 5.45435 13.7428 5.48858 13.7666 5.52787C13.7903 5.56716 13.8061 5.61075 13.8131 5.65615C13.82 5.70155 13.8179 5.74787 13.8069 5.79246C13.796 5.83705 13.7763 5.87905 13.7491 5.91605C13.7219 5.95305 13.6877 5.98432 13.6484 6.00809C13.6091 6.03187 13.5655 6.04767 13.5201 6.05459C9.76814 6.63858 7.60017 9.28115 7.57869 9.30654C7.50837 9.39248 7.40877 9.4374 7.3072 9.4374ZM6.47517 21.6991C6.37361 21.6991 6.27205 21.6562 6.20369 21.5702C6.10798 21.453 3.88728 18.664 4.12752 14.5937C4.13923 14.4003 4.3033 14.2519 4.49666 14.2636C4.69002 14.2753 4.8365 14.4413 4.82478 14.6347C4.60213 18.4374 6.72517 21.1034 6.74666 21.1288C6.8697 21.2792 6.84431 21.4999 6.69587 21.621C6.63142 21.6718 6.5533 21.6991 6.47517 21.6991ZM9.1158 23.0741C8.93611 23.0741 8.78377 22.9374 8.76814 22.7538C8.75252 22.5604 8.89509 22.3905 9.08845 22.3749C9.12166 22.3729 12.524 22.0526 15.106 19.2675C15.1696 19.1995 15.2575 19.1595 15.3504 19.1562C15.4434 19.1529 15.5339 19.1866 15.6021 19.2499C15.7447 19.3808 15.7525 19.6034 15.6197 19.746C12.8463 22.7343 9.29548 23.0604 9.14705 23.0741C9.13533 23.0722 9.12556 23.0741 9.1158 23.0741ZM4.25056 9.01748C4.0865 9.01748 3.94002 8.90225 3.90877 8.73428C3.88923 8.63662 3.44783 6.32217 4.399 3.57998C4.46345 3.39639 4.66072 3.29873 4.84431 3.36318C5.02595 3.42764 5.12361 3.6249 5.06111 3.8085C4.17048 6.3749 4.59041 8.57607 4.59627 8.59951C4.63338 8.78897 4.51033 8.97451 4.31892 9.01162C4.29744 9.01553 4.274 9.01748 4.25056 9.01748ZM14.4283 3.27334C14.356 3.27334 14.2818 3.2499 14.2213 3.20303C14.2037 3.19131 12.3814 1.86904 9.69197 1.57412C9.50056 1.55459 9.35994 1.38076 9.38142 1.18936C9.40095 0.995997 9.57478 0.859278 9.76619 0.878809C12.6529 1.19326 14.5553 2.57998 14.6353 2.63857C14.7896 2.75381 14.8228 2.97256 14.7076 3.12881C14.6412 3.22451 14.5357 3.27334 14.4283 3.27334ZM23.2681 8.97061C23.1666 8.97061 23.065 8.92568 22.9947 8.83975C21.2877 6.72842 19.1978 5.91787 19.1783 5.91006C19.0914 5.87722 19.0211 5.81133 18.9827 5.72679C18.9442 5.64225 18.9408 5.54593 18.9732 5.45889C19.0416 5.27725 19.2447 5.1874 19.4244 5.25381C19.5181 5.28897 21.7135 6.14053 23.5377 8.39834C23.6607 8.54873 23.6353 8.76943 23.4849 8.89053C23.4224 8.94522 23.3443 8.97061 23.2681 8.97061ZM17.0865 13.705C17.0728 13.705 17.0553 13.703 17.0416 13.7011C16.996 13.6952 16.952 13.6804 16.9122 13.6574C16.8723 13.6345 16.8374 13.6039 16.8095 13.5674C16.7815 13.5309 16.761 13.4892 16.7493 13.4448C16.7375 13.4004 16.7346 13.354 16.7408 13.3085C17.1881 9.96084 16.7486 7.48818 16.7428 7.46279C16.7076 7.27334 16.8326 7.08975 17.024 7.05654C17.2154 7.01943 17.397 7.14834 17.4322 7.33779C17.4498 7.44326 17.897 9.94522 17.4342 13.4022C17.4107 13.578 17.2603 13.705 17.0865 13.705ZM14.0474 16.5644C14.0357 16.5644 14.0279 16.5644 14.0162 16.5624C9.66463 16.1776 6.80134 13.7226 6.68025 13.619C6.61036 13.558 6.56744 13.4718 6.56085 13.3792C6.55427 13.2867 6.58455 13.1952 6.64509 13.1249C6.77205 12.9784 6.99275 12.9628 7.13923 13.0897C7.16853 13.1132 9.9615 15.5019 14.0787 15.8651C14.1682 15.8736 14.251 15.9162 14.3101 15.984C14.3691 16.0519 14.3997 16.1398 14.3957 16.2296C14.3917 16.3194 14.3533 16.4043 14.2885 16.4666C14.2237 16.5289 14.1374 16.5639 14.0474 16.5644ZM1.54939 12.5507C1.25447 12.5507 0.932203 12.5136 0.631422 12.3983C0.544555 12.3655 0.47422 12.2996 0.435791 12.2151C0.397363 12.1305 0.393966 12.0342 0.426344 11.9472C0.496656 11.7675 0.695875 11.6757 0.879469 11.7421C1.524 11.9882 2.38533 11.7362 2.39509 11.7343C2.57869 11.6796 2.774 11.7831 2.82869 11.9706C2.88533 12.1542 2.77986 12.3495 2.59627 12.4062C2.56697 12.414 2.10603 12.5507 1.54939 12.5507ZM20.6392 15.539C20.5064 15.539 20.3814 15.4628 20.3228 15.3358C20.2408 15.162 20.3189 14.953 20.4928 14.871C20.5123 14.8612 22.5474 13.8983 24.0963 11.6796C24.2056 11.5194 24.4244 11.4804 24.5826 11.5917C24.7408 11.703 24.7799 11.9198 24.6705 12.078C23.0103 14.4589 20.8775 15.4628 20.7877 15.5058C20.7369 15.5272 20.6881 15.539 20.6392 15.539ZM20.6392 21.4511C20.5611 21.4511 20.483 21.4257 20.4166 21.3749C19.6158 20.744 18.8404 19.5976 18.8072 19.5507C18.6978 19.3866 18.7408 19.164 18.9049 19.0526C19.067 18.9433 19.2916 18.9862 19.401 19.1522C19.4088 19.162 20.147 20.2519 20.8599 20.8124C21.0142 20.9354 21.0416 21.1601 20.9205 21.3163C20.8482 21.4022 20.7447 21.4511 20.6392 21.4511Z" fill="#FCDE3E"/>
<path d="M12.5 24.9453C5.63672 24.9453 0.0546875 19.3633 0.0546875 12.5C0.0546875 5.63867 5.63672 0.0546875 12.5 0.0546875C19.3633 0.0546875 24.9453 5.63867 24.9453 12.498C24.9453 19.3633 19.3613 24.9453 12.5 24.9453ZM12.5 1.45508C6.41016 1.45508 1.45508 6.41016 1.45508 12.5C1.45508 18.5898 6.4082 23.5449 12.498 23.5449C18.5879 23.5449 23.543 18.5898 23.543 12.5C23.5449 6.41016 18.5879 1.45508 12.5 1.45508Z" fill="#FCDE3E"/>
</g>
<defs>
<clipPath id="clip0_230_3154">
<rect width="25" height="25" fill="white"/>
</clipPath>
</defs>
</svg>
