<svg width="25" height="25" viewBox="0 0 25 25" fill="none" xmlns="http://www.w3.org/2000/svg">
<g clip-path="url(#clip0_186_3539)">
<path d="M12.5 24.2441C18.9872 24.2441 24.2461 18.9861 24.2461 12.5C24.2461 6.01389 18.9872 0.755859 12.5 0.755859C6.01281 0.755859 0.753906 6.01389 0.753906 12.5C0.753906 18.9861 6.01281 24.2441 12.5 24.2441Z" fill="white"/>
<path d="M17.3202 12.3556C16.8652 12.2912 16.4609 12.6544 16.1054 12.883C15.3378 13.3732 14.6601 13.9416 14.0058 14.5822C13.6015 14.9787 13.0546 15.506 12.9101 16.0763C12.8437 16.34 12.9257 16.6427 12.9785 16.9005C13.0702 17.3498 13.2109 17.7873 13.3515 18.2228C13.5104 18.7123 13.6942 19.1934 13.9023 19.6642C14.0058 19.9005 14.1191 20.1349 14.2304 20.3693C14.3339 20.588 14.4023 20.7169 14.6562 20.7501C14.9413 20.7873 15.2265 20.7443 15.5097 20.7326C15.9277 20.7169 16.3456 20.6759 16.7578 20.6056C17.3027 20.5138 17.8515 20.4142 18.373 20.2287C18.8554 20.0548 19.4081 19.7853 19.6874 19.3419C20.287 18.3888 20.6503 17.3068 20.8495 16.2033C20.9081 15.8849 20.9648 15.5607 20.9628 15.2345C20.9648 14.9474 20.9902 14.6525 20.7831 14.4318C20.412 14.0333 19.9726 13.7033 19.5175 13.4044C18.8437 12.9669 18.1386 12.4728 17.3202 12.3556ZM4.0683 7.75015C3.64447 7.97476 3.31244 8.50991 3.06439 8.90249C2.5683 9.68374 2.16791 10.5861 1.98041 11.4943C1.83783 12.1896 2.14837 12.8673 2.3808 13.5099C2.60736 14.1291 3.00189 14.6193 3.43353 15.1056C3.54291 15.2306 3.68158 15.3244 3.79095 15.4474C3.91595 15.5861 4.07416 15.7169 4.23822 15.8087C4.35541 15.8751 4.46087 15.7853 4.58002 15.758C4.89447 15.6818 5.12884 15.5216 5.414 15.3712C5.66986 15.2345 5.93353 15.1193 6.19134 14.9826C6.74408 14.6857 7.40228 14.4416 7.8847 14.0333C7.9472 13.9806 8.02923 13.9142 8.04681 13.8302C8.09173 13.6212 8.02923 13.3498 8.01947 13.1369C8.00775 12.838 8.00384 12.5412 8.00189 12.2423C7.99994 11.5666 8.02533 10.8908 8.02533 10.215C8.03119 9.83804 8.07806 9.46304 8.06048 9.08608C8.02923 8.52554 7.42377 8.32632 6.96869 8.21304C6.33002 8.05483 5.68744 7.83804 5.03509 7.75796C4.76556 7.72866 4.32025 7.61733 4.0683 7.75015ZM20.6484 6.0646C20.7089 5.64077 20.4257 5.13101 20.2206 4.7521C19.8144 3.99624 19.2324 3.25405 18.5058 2.66421C17.9511 2.21304 17.1347 2.02944 16.3749 1.95327C15.0136 1.8146 13.9745 1.89858 13.6874 1.94351C13.3984 1.98843 13.1269 2.07632 12.9726 2.26773C12.6679 2.63882 12.6152 3.17007 12.5507 3.6271C12.457 4.27944 12.3749 4.95132 12.4609 5.60757C12.4745 5.72476 12.4921 5.87905 12.5488 5.98257C12.6562 6.17397 12.8827 6.26968 13.1074 6.36929C14.2714 6.88296 16.4921 8.15444 16.8535 8.32632C17.3925 8.58608 17.9667 8.24038 18.3652 7.96108C18.9179 7.57241 19.5331 7.20718 20.0214 6.76773C20.2226 6.58804 20.6113 6.3146 20.6484 6.0646ZM3.92767 20.5939C3.97455 20.6662 4.01947 20.7209 4.09173 20.7755C4.20697 20.8634 4.31634 20.9533 4.42572 21.049C5.3808 21.8869 6.49994 22.5177 7.60931 23.1232C7.9433 23.3068 8.26166 23.4943 8.6015 23.6642C8.96869 23.8459 9.34759 23.9689 9.74212 24.0783C10.0097 24.1525 10.2812 24.2248 10.5585 24.2521C10.8163 24.2775 11.08 24.338 11.3398 24.3419C11.4882 24.3439 11.6249 24.338 11.7695 24.3185C11.6992 24.2052 11.6367 24.0607 11.5761 23.9396C11.4804 23.7501 11.3827 23.5587 11.2851 23.3712C11.1718 23.1544 11.0839 22.9279 10.9687 22.713C10.8788 22.549 10.7617 22.3791 10.5995 22.2833C10.3827 22.1544 10.1757 22.0275 9.93939 21.9318C9.07611 21.5802 8.30267 21.0841 7.49994 20.6193C7.09369 20.383 6.69525 20.131 6.31244 19.8556C6.10736 19.7091 5.90814 19.5568 5.69134 19.4259C5.64642 19.3966 5.6015 19.3615 5.54877 19.3537C5.50189 19.3458 5.42962 19.3478 5.38275 19.3537C5.33978 19.3595 5.289 19.3673 5.24798 19.3751C4.96673 19.4337 4.66205 19.508 4.37103 19.5724C4.09369 19.6349 3.78314 19.6564 3.51752 19.758C3.414 19.797 3.42572 19.8556 3.46673 19.9455C3.52923 20.0861 3.62103 20.215 3.71673 20.3322C3.78119 20.4162 3.86127 20.4943 3.92767 20.5939Z" fill="#FCDE3E"/>
<path d="M7.30672 9.4374C7.24058 9.43745 7.17577 9.41879 7.11979 9.38357C7.06381 9.34836 7.01893 9.29802 6.99033 9.23839C6.96174 9.17875 6.9506 9.11224 6.9582 9.04654C6.9658 8.98084 6.99183 8.91863 7.03328 8.86709C7.12898 8.7499 9.38289 5.98818 13.4141 5.36318C13.4595 5.35626 13.5059 5.35834 13.5504 5.36932C13.595 5.38029 13.637 5.39995 13.674 5.42715C13.711 5.45435 13.7423 5.48858 13.7661 5.52787C13.7899 5.56716 13.8056 5.61075 13.8126 5.65615C13.8195 5.70155 13.8174 5.74787 13.8064 5.79246C13.7955 5.83705 13.7758 5.87905 13.7486 5.91605C13.7214 5.95305 13.6872 5.98432 13.6479 6.00809C13.6086 6.03187 13.565 6.04767 13.5196 6.05459C9.76765 6.63858 7.59968 9.28115 7.5782 9.30654C7.50789 9.39248 7.40828 9.4374 7.30672 9.4374ZM6.47468 21.6991C6.37312 21.6991 6.27156 21.6562 6.2032 21.5702C6.1075 21.453 3.88679 18.664 4.12703 14.5937C4.13875 14.4003 4.30281 14.2519 4.49617 14.2636C4.68953 14.2753 4.83601 14.4413 4.82429 14.6347C4.60164 18.4374 6.72468 21.1034 6.74617 21.1288C6.86922 21.2792 6.84382 21.4999 6.69539 21.621C6.63093 21.6718 6.55281 21.6991 6.47468 21.6991ZM9.11531 23.0741C8.93562 23.0741 8.78328 22.9374 8.76765 22.7538C8.75203 22.5604 8.89461 22.3905 9.08797 22.3749C9.12117 22.3729 12.5235 22.0526 15.1055 19.2675C15.1691 19.1995 15.257 19.1595 15.35 19.1562C15.4429 19.1529 15.5335 19.1866 15.6016 19.2499C15.7442 19.3808 15.752 19.6034 15.6192 19.746C12.8458 22.7343 9.295 23.0604 9.14656 23.0741C9.13484 23.0722 9.12507 23.0741 9.11531 23.0741ZM4.25007 9.01748C4.08601 9.01748 3.93953 8.90225 3.90828 8.73428C3.88875 8.63662 3.44734 6.32217 4.39851 3.57998C4.46297 3.39639 4.66023 3.29873 4.84382 3.36318C5.02547 3.42764 5.12312 3.6249 5.06062 3.8085C4.17 6.3749 4.58992 8.57607 4.59578 8.59951C4.63289 8.78897 4.50984 8.97451 4.31843 9.01162C4.29695 9.01553 4.27351 9.01748 4.25007 9.01748ZM14.4278 3.27334C14.3555 3.27334 14.2813 3.2499 14.2208 3.20303C14.2032 3.19131 12.3809 1.86904 9.69148 1.57412C9.50007 1.55459 9.35945 1.38076 9.38093 1.18936C9.40047 0.995997 9.57429 0.859278 9.7657 0.878809C12.6524 1.19326 14.5548 2.57998 14.6348 2.63857C14.7891 2.75381 14.8223 2.97256 14.7071 3.12881C14.6407 3.22451 14.5352 3.27334 14.4278 3.27334ZM23.2677 8.97061C23.1661 8.97061 23.0645 8.92568 22.9942 8.83975C21.2872 6.72842 19.1973 5.91787 19.1778 5.91006C19.0909 5.87722 19.0206 5.81133 18.9822 5.72679C18.9438 5.64225 18.9404 5.54593 18.9727 5.45889C19.0411 5.27725 19.2442 5.1874 19.4239 5.25381C19.5177 5.28897 21.713 6.14053 23.5372 8.39834C23.6602 8.54873 23.6348 8.76943 23.4844 8.89053C23.4219 8.94522 23.3438 8.97061 23.2677 8.97061ZM17.086 13.705C17.0723 13.705 17.0548 13.703 17.0411 13.7011C16.9955 13.6952 16.9515 13.6804 16.9117 13.6574C16.8718 13.6345 16.8369 13.6039 16.809 13.5674C16.781 13.5309 16.7606 13.4892 16.7488 13.4448C16.737 13.4004 16.7341 13.354 16.7403 13.3085C17.1876 9.96084 16.7481 7.48818 16.7423 7.46279C16.7071 7.27334 16.8321 7.08975 17.0235 7.05654C17.2149 7.01943 17.3966 7.14834 17.4317 7.33779C17.4493 7.44326 17.8966 9.94522 17.4337 13.4022C17.4102 13.578 17.2598 13.705 17.086 13.705ZM14.0469 16.5644C14.0352 16.5644 14.0274 16.5644 14.0157 16.5624C9.66414 16.1776 6.80086 13.7226 6.67976 13.619C6.60987 13.558 6.56695 13.4718 6.56036 13.3792C6.55378 13.2867 6.58406 13.1952 6.64461 13.1249C6.77156 12.9784 6.99226 12.9628 7.13875 13.0897C7.16804 13.1132 9.96101 15.5019 14.0782 15.8651C14.1677 15.8736 14.2506 15.9162 14.3096 15.984C14.3686 16.0519 14.3992 16.1398 14.3952 16.2296C14.3912 16.3194 14.3528 16.4043 14.288 16.4666C14.2232 16.5289 14.1369 16.5639 14.0469 16.5644ZM1.5489 12.5507C1.25398 12.5507 0.931715 12.5136 0.630934 12.3983C0.544066 12.3655 0.473731 12.2996 0.435303 12.2151C0.396874 12.1305 0.393478 12.0342 0.425856 11.9472C0.496168 11.7675 0.695387 11.6757 0.878981 11.7421C1.52351 11.9882 2.38484 11.7362 2.39461 11.7343C2.5782 11.6796 2.77351 11.7831 2.8282 11.9706C2.88484 12.1542 2.77937 12.3495 2.59578 12.4062C2.56648 12.414 2.10554 12.5507 1.5489 12.5507ZM20.6387 15.539C20.5059 15.539 20.3809 15.4628 20.3223 15.3358C20.2403 15.162 20.3184 14.953 20.4923 14.871C20.5118 14.8612 22.547 13.8983 24.0958 11.6796C24.2052 11.5194 24.4239 11.4804 24.5821 11.5917C24.7403 11.703 24.7794 11.9198 24.67 12.078C23.0098 14.4589 20.877 15.4628 20.7872 15.5058C20.7364 15.5272 20.6876 15.539 20.6387 15.539ZM20.6387 21.4511C20.5606 21.4511 20.4825 21.4257 20.4161 21.3749C19.6153 20.744 18.8399 19.5976 18.8067 19.5507C18.6973 19.3866 18.7403 19.164 18.9044 19.0526C19.0665 18.9433 19.2911 18.9862 19.4005 19.1522C19.4083 19.162 20.1466 20.2519 20.8595 20.8124C21.0137 20.9354 21.0411 21.1601 20.92 21.3163C20.8477 21.4022 20.7442 21.4511 20.6387 21.4511Z" fill="#FCDE3E"/>
<path d="M12.5 24.9453C5.63672 24.9453 0.0546875 19.3633 0.0546875 12.5C0.0546875 5.63867 5.63672 0.0546875 12.5 0.0546875C19.3633 0.0546875 24.9453 5.63867 24.9453 12.498C24.9453 19.3633 19.3613 24.9453 12.5 24.9453ZM12.5 1.45508C6.41016 1.45508 1.45508 6.41016 1.45508 12.5C1.45508 18.5898 6.4082 23.5449 12.498 23.5449C18.5879 23.5449 23.543 18.5898 23.543 12.5C23.5449 6.41016 18.5879 1.45508 12.5 1.45508Z" fill="#FCDE3E"/>
</g>
<defs>
<clipPath id="clip0_186_3539">
<rect width="25" height="25" fill="white"/>
</clipPath>
</defs>
</svg>
