<svg width="25" height="24" viewBox="0 0 25 24" fill="none" xmlns="http://www.w3.org/2000/svg">
<path d="M13.2911 1.35563L15.92 7.11187C16.0189 7.32851 16.1765 7.51569 16.3764 7.65388C16.5764 7.79207 16.8113 7.8762 17.0567 7.8975L23.461 8.44875C24.1856 8.55 24.4747 9.40312 23.9493 9.89437L19.1251 13.785C18.7344 14.1 18.5567 14.595 18.6641 15.0731L20.0665 21.375C20.1895 22.0669 19.4336 22.5956 18.7852 22.2675L13.1954 19.125C12.9845 19.0062 12.7445 18.9436 12.5001 18.9436C12.2556 18.9436 12.0156 19.0062 11.8047 19.125L6.21489 22.2656C5.56841 22.5919 4.8106 22.065 4.93364 21.3731L6.33599 15.0712C6.44146 14.5931 6.26568 14.0981 5.87505 13.7831L1.04888 9.89625C0.525441 9.40687 0.814504 8.55187 1.53716 8.45062L7.94146 7.89937C8.18683 7.87808 8.42175 7.79394 8.6217 7.65575C8.82165 7.51756 8.97929 7.33038 9.07818 7.11375L11.7071 1.3575C12.0333 0.7275 12.9668 0.7275 13.2911 1.35563Z" fill="#FDD835"/>
<path d="M13.0996 7.45672L12.6543 3.21547C12.6367 2.97922 12.5859 2.57422 12.9805 2.57422C13.293 2.57422 13.4629 3.19859 13.4629 3.19859L14.7988 6.60359C15.3027 7.89922 15.0957 8.34359 14.6094 8.60609C14.0508 8.90609 13.2266 8.67172 13.0996 7.45672Z" fill="#FFFF8D"/>
<path d="M18.6094 13.4079L22.4415 10.5373C22.6309 10.3854 22.9727 10.1435 22.6993 9.86789C22.4825 9.65039 21.8965 9.96351 21.8965 9.96351L18.543 11.2216C17.543 11.5535 16.879 12.0448 16.8204 12.6635C16.7442 13.4885 17.5157 14.1241 18.6094 13.4079Z" fill="#F4B400"/>
</svg>
