<svg width="29" height="29" viewBox="0 0 29 29" fill="none" xmlns="http://www.w3.org/2000/svg">
<path d="M15.4177 1.6378L18.4672 8.59327C18.5819 8.85504 18.7648 9.08121 18.9967 9.24819C19.2287 9.41517 19.5012 9.51684 19.7858 9.54257L27.2148 10.2087C28.0554 10.331 28.3907 11.3619 27.7812 11.9555L22.1851 16.6566C21.732 17.0373 21.5258 17.6354 21.6504 18.2131L23.2772 25.8279C23.4199 26.6639 22.5431 27.3028 21.7909 26.9063L15.3067 23.1091C15.0621 22.9656 14.7837 22.8899 14.5001 22.8899C14.2166 22.8899 13.9381 22.9656 13.6936 23.1091L7.20934 26.9041C6.45942 27.2983 5.58036 26.6616 5.72309 25.8256L7.34981 18.2108C7.47215 17.6331 7.26825 17.035 6.81512 16.6544L1.21676 11.9577C0.609575 11.3664 0.944888 10.3333 1.78317 10.2109L9.21215 9.54483C9.49679 9.5191 9.76929 9.41744 10.0012 9.25046C10.2332 9.08348 10.416 8.8573 10.5307 8.59554L13.5803 1.64007C13.9586 0.878819 15.0416 0.878819 15.4177 1.6378Z" fill="#FDD835"/>
<path d="M15.1956 9.01053L14.6791 3.88568C14.6587 3.60021 14.5998 3.11084 15.0574 3.11084C15.4199 3.11084 15.617 3.86529 15.617 3.86529L17.1667 7.97967C17.7512 9.54522 17.5111 10.0822 16.9469 10.3994C16.299 10.7619 15.3429 10.4787 15.1956 9.01053Z" fill="#FFFF8D"/>
<path d="M20.824 16.2014L25.2692 12.7328C25.4889 12.5493 25.8854 12.257 25.5682 11.9239C25.3167 11.6611 24.637 12.0395 24.637 12.0395L20.747 13.5597C19.587 13.9607 18.8167 14.5543 18.7487 15.302C18.6603 16.2989 19.5552 17.0669 20.824 16.2014Z" fill="#F4B400"/>
</svg>
