<svg width="25" height="24" viewBox="0 0 25 24" fill="none" xmlns="http://www.w3.org/2000/svg">
<path d="M13.2909 1.35563L15.9199 7.11187C16.0187 7.32851 16.1764 7.51569 16.3763 7.65388C16.5763 7.79207 16.8112 7.8762 17.0566 7.8975L23.4609 8.44875C24.1855 8.55 24.4745 9.40312 23.9492 9.89437L19.1249 13.785C18.7343 14.1 18.5566 14.595 18.664 15.0731L20.0663 21.375C20.1894 22.0669 19.4335 22.5956 18.7851 22.2675L13.1952 19.125C12.9844 19.0062 12.7444 18.9436 12.4999 18.9436C12.2555 18.9436 12.0154 19.0062 11.8046 19.125L6.21477 22.2656C5.56829 22.5919 4.81048 22.065 4.93352 21.3731L6.33587 15.0712C6.44134 14.5931 6.26555 14.0981 5.87493 13.7831L1.04876 9.89625C0.525319 9.40687 0.814382 8.55187 1.53704 8.45062L7.94134 7.89937C8.18671 7.87808 8.42163 7.79394 8.62158 7.65575C8.82153 7.51756 8.97917 7.33038 9.07805 7.11375L11.707 1.3575C12.0331 0.7275 12.9667 0.7275 13.2909 1.35563Z" fill="#FDD835"/>
<path d="M13.0997 7.45672L12.6544 3.21547C12.6368 2.97922 12.5861 2.57422 12.9806 2.57422C13.2931 2.57422 13.463 3.19859 13.463 3.19859L14.7989 6.60359C15.3029 7.89922 15.0958 8.34359 14.6095 8.60609C14.0509 8.90609 13.2267 8.67172 13.0997 7.45672Z" fill="#FFFF8D"/>
<path d="M18.6094 13.4079L22.4415 10.5373C22.6309 10.3854 22.9727 10.1435 22.6993 9.86789C22.4825 9.65039 21.8965 9.96351 21.8965 9.96351L18.543 11.2216C17.543 11.5535 16.879 12.0448 16.8204 12.6635C16.7442 13.4885 17.5157 14.1241 18.6094 13.4079Z" fill="#F4B400"/>
</svg>
