<svg width="25" height="25" viewBox="0 0 25 25" fill="none" xmlns="http://www.w3.org/2000/svg">
<g clip-path="url(#clip0_10_76)">
<path d="M12.5 24.2441C18.9872 24.2441 24.2461 18.9861 24.2461 12.5C24.2461 6.01389 18.9872 0.755859 12.5 0.755859C6.01281 0.755859 0.753906 6.01389 0.753906 12.5C0.753906 18.9861 6.01281 24.2441 12.5 24.2441Z" fill="white"/>
<path d="M17.3204 12.3556C16.8653 12.2912 16.461 12.6544 16.1055 12.883C15.3379 13.3732 14.6602 13.9416 14.0059 14.5822C13.6016 14.9787 13.0547 15.506 12.9102 16.0763C12.8438 16.34 12.9258 16.6427 12.9786 16.9005C13.0704 17.3498 13.211 17.7873 13.3516 18.2228C13.5105 18.7123 13.6944 19.1934 13.9024 19.6642C14.0059 19.9005 14.1192 20.1349 14.2305 20.3693C14.334 20.588 14.4024 20.7169 14.6563 20.7501C14.9415 20.7873 15.2266 20.7443 15.5098 20.7326C15.9278 20.7169 16.3458 20.6759 16.7579 20.6056C17.3028 20.5138 17.8516 20.4142 18.3731 20.2287C18.8555 20.0548 19.4083 19.7853 19.6876 19.3419C20.2872 18.3888 20.6504 17.3068 20.8497 16.2033C20.9083 15.8849 20.9649 15.5607 20.9629 15.2345C20.9649 14.9474 20.9903 14.6525 20.7833 14.4318C20.4122 14.0333 19.9727 13.7033 19.5176 13.4044C18.8438 12.9669 18.1387 12.4728 17.3204 12.3556ZM4.06842 7.75015C3.64459 7.97476 3.31256 8.50991 3.06451 8.90249C2.56842 9.68374 2.16803 10.5861 1.98053 11.4943C1.83795 12.1896 2.1485 12.8673 2.38092 13.5099C2.60748 14.1291 3.00201 14.6193 3.43365 15.1056C3.54303 15.2306 3.6817 15.3244 3.79107 15.4474C3.91607 15.5861 4.07428 15.7169 4.23834 15.8087C4.35553 15.8751 4.461 15.7853 4.58014 15.758C4.89459 15.6818 5.12897 15.5216 5.41412 15.3712C5.66998 15.2345 5.93365 15.1193 6.19147 14.9826C6.7442 14.6857 7.4024 14.4416 7.88482 14.0333C7.94732 13.9806 8.02936 13.9142 8.04693 13.8302C8.09186 13.6212 8.02936 13.3498 8.01959 13.1369C8.00787 12.838 8.00397 12.5412 8.00201 12.2423C8.00006 11.5666 8.02545 10.8908 8.02545 10.215C8.03131 9.83804 8.07818 9.46304 8.06061 9.08608C8.02936 8.52554 7.42389 8.32632 6.96881 8.21304C6.33014 8.05483 5.68756 7.83804 5.03522 7.75796C4.76568 7.72866 4.32037 7.61733 4.06842 7.75015ZM20.6485 6.0646C20.709 5.64077 20.4258 5.13101 20.2208 4.7521C19.8145 3.99624 19.2325 3.25405 18.5059 2.66421C17.9512 2.21304 17.1348 2.02944 16.3751 1.95327C15.0137 1.8146 13.9747 1.89858 13.6876 1.94351C13.3985 1.98843 13.127 2.07632 12.9727 2.26773C12.668 2.63882 12.6153 3.17007 12.5508 3.6271C12.4571 4.27944 12.3751 4.95132 12.461 5.60757C12.4747 5.72476 12.4922 5.87905 12.5489 5.98257C12.6563 6.17397 12.8829 6.26968 13.1075 6.36929C14.2715 6.88296 16.4922 8.15444 16.8536 8.32632C17.3926 8.58608 17.9669 8.24038 18.3653 7.96108C18.918 7.57241 19.5333 7.20718 20.0215 6.76773C20.2227 6.58804 20.6114 6.3146 20.6485 6.0646ZM3.92779 20.5939C3.97467 20.6662 4.01959 20.7209 4.09186 20.7755C4.20709 20.8634 4.31647 20.9533 4.42584 21.049C5.38092 21.8869 6.50006 22.5177 7.60943 23.1232C7.94342 23.3068 8.26178 23.4943 8.60162 23.6642C8.96881 23.8459 9.34772 23.9689 9.74225 24.0783C10.0098 24.1525 10.2813 24.2248 10.5587 24.2521C10.8165 24.2775 11.0801 24.338 11.3399 24.3419C11.4883 24.3439 11.6251 24.338 11.7696 24.3185C11.6993 24.2052 11.6368 24.0607 11.5762 23.9396C11.4805 23.7501 11.3829 23.5587 11.2852 23.3712C11.1719 23.1544 11.084 22.9279 10.9688 22.713C10.879 22.549 10.7618 22.3791 10.5997 22.2833C10.3829 22.1544 10.1758 22.0275 9.93951 21.9318C9.07623 21.5802 8.30279 21.0841 7.50006 20.6193C7.09381 20.383 6.69537 20.131 6.31256 19.8556C6.10748 19.7091 5.90826 19.5568 5.69147 19.4259C5.64654 19.3966 5.60162 19.3615 5.54889 19.3537C5.50201 19.3458 5.42975 19.3478 5.38287 19.3537C5.3399 19.3595 5.28912 19.3673 5.24811 19.3751C4.96686 19.4337 4.66217 19.508 4.37115 19.5724C4.09381 19.6349 3.78326 19.6564 3.51764 19.758C3.41412 19.797 3.42584 19.8556 3.46686 19.9455C3.52936 20.0861 3.62115 20.215 3.71686 20.3322C3.78131 20.4162 3.86139 20.4943 3.92779 20.5939Z" fill="#FCDE3E"/>
<path d="M7.30659 9.4374C7.24045 9.43745 7.17565 9.41879 7.11967 9.38357C7.06369 9.34836 7.01881 9.29802 6.99021 9.23839C6.96162 9.17875 6.95048 9.11224 6.95808 9.04654C6.96568 8.98084 6.9917 8.91863 7.03315 8.86709C7.12886 8.7499 9.38277 5.98818 13.414 5.36318C13.4594 5.35626 13.5057 5.35834 13.5503 5.36932C13.5949 5.38029 13.6369 5.39995 13.6739 5.42715C13.7109 5.45435 13.7422 5.48858 13.766 5.52787C13.7897 5.56716 13.8055 5.61075 13.8125 5.65615C13.8194 5.70155 13.8173 5.74787 13.8063 5.79246C13.7953 5.83705 13.7757 5.87905 13.7485 5.91605C13.7213 5.95305 13.6871 5.98432 13.6478 6.00809C13.6085 6.03187 13.5649 6.04767 13.5195 6.05459C9.76753 6.63858 7.59956 9.28115 7.57808 9.30654C7.50776 9.39248 7.40816 9.4374 7.30659 9.4374ZM6.47456 21.6991C6.373 21.6991 6.27144 21.6562 6.20308 21.5702C6.10737 21.453 3.88667 18.664 4.12691 14.5937C4.13862 14.4003 4.30269 14.2519 4.49605 14.2636C4.68941 14.2753 4.83589 14.4413 4.82417 14.6347C4.60151 18.4374 6.72456 21.1034 6.74605 21.1288C6.86909 21.2792 6.8437 21.4999 6.69526 21.621C6.63081 21.6718 6.55269 21.6991 6.47456 21.6991ZM9.11519 23.0741C8.9355 23.0741 8.78316 22.9374 8.76753 22.7538C8.75191 22.5604 8.89448 22.3905 9.08784 22.3749C9.12105 22.3729 12.5234 22.0526 15.1054 19.2675C15.169 19.1995 15.2568 19.1595 15.3498 19.1562C15.4428 19.1529 15.5333 19.1866 15.6015 19.2499C15.7441 19.3808 15.7519 19.6034 15.6191 19.746C12.8457 22.7343 9.29487 23.0604 9.14644 23.0741C9.13472 23.0722 9.12495 23.0741 9.11519 23.0741ZM4.24995 9.01748C4.08589 9.01748 3.93941 8.90225 3.90816 8.73428C3.88862 8.63662 3.44722 6.32217 4.39839 3.57998C4.46284 3.39639 4.66011 3.29873 4.8437 3.36318C5.02534 3.42764 5.123 3.6249 5.0605 3.8085C4.16987 6.3749 4.5898 8.57607 4.59566 8.59951C4.63276 8.78897 4.50972 8.97451 4.31831 9.01162C4.29683 9.01553 4.27339 9.01748 4.24995 9.01748ZM14.4277 3.27334C14.3554 3.27334 14.2812 3.2499 14.2207 3.20303C14.2031 3.19131 12.3808 1.86904 9.69136 1.57412C9.49995 1.55459 9.35933 1.38076 9.38081 1.18936C9.40034 0.995997 9.57417 0.859278 9.76558 0.878809C12.6523 1.19326 14.5546 2.57998 14.6347 2.63857C14.789 2.75381 14.8222 2.97256 14.707 3.12881C14.6406 3.22451 14.5351 3.27334 14.4277 3.27334ZM23.2675 8.97061C23.166 8.97061 23.0644 8.92568 22.9941 8.83975C21.2871 6.72842 19.1972 5.91787 19.1777 5.91006C19.0908 5.87722 19.0205 5.81133 18.9821 5.72679C18.9436 5.64225 18.9402 5.54593 18.9726 5.45889C19.041 5.27725 19.2441 5.1874 19.4238 5.25381C19.5175 5.28897 21.7128 6.14053 23.5371 8.39834C23.6601 8.54873 23.6347 8.76943 23.4843 8.89053C23.4218 8.94522 23.3437 8.97061 23.2675 8.97061ZM17.0859 13.705C17.0722 13.705 17.0546 13.703 17.041 13.7011C16.9954 13.6952 16.9514 13.6804 16.9116 13.6574C16.8717 13.6345 16.8368 13.6039 16.8089 13.5674C16.7809 13.5309 16.7604 13.4892 16.7486 13.4448C16.7369 13.4004 16.734 13.354 16.7402 13.3085C17.1875 9.96084 16.748 7.48818 16.7421 7.46279C16.707 7.27334 16.832 7.08975 17.0234 7.05654C17.2148 7.01943 17.3964 7.14834 17.4316 7.33779C17.4492 7.44326 17.8964 9.94522 17.4335 13.4022C17.4101 13.578 17.2597 13.705 17.0859 13.705ZM14.0468 16.5644C14.0351 16.5644 14.0273 16.5644 14.0156 16.5624C9.66402 16.1776 6.80073 13.7226 6.67964 13.619C6.60975 13.558 6.56683 13.4718 6.56024 13.3792C6.55366 13.2867 6.58394 13.1952 6.64448 13.1249C6.77144 12.9784 6.99214 12.9628 7.13862 13.0897C7.16792 13.1132 9.96089 15.5019 14.0781 15.8651C14.1676 15.8736 14.2504 15.9162 14.3094 15.984C14.3685 16.0519 14.3991 16.1398 14.3951 16.2296C14.3911 16.3194 14.3527 16.4043 14.2879 16.4666C14.223 16.5289 14.1367 16.5639 14.0468 16.5644ZM1.54878 12.5507C1.25386 12.5507 0.931593 12.5136 0.630812 12.3983C0.543944 12.3655 0.473609 12.2996 0.435181 12.2151C0.396752 12.1305 0.393356 12.0342 0.425734 11.9472C0.496046 11.7675 0.695265 11.6757 0.878859 11.7421C1.52339 11.9882 2.38472 11.7362 2.39448 11.7343C2.57808 11.6796 2.77339 11.7831 2.82808 11.9706C2.88472 12.1542 2.77925 12.3495 2.59566 12.4062C2.56636 12.414 2.10542 12.5507 1.54878 12.5507ZM20.6386 15.539C20.5058 15.539 20.3808 15.4628 20.3222 15.3358C20.2402 15.162 20.3183 14.953 20.4921 14.871C20.5117 14.8612 22.5468 13.8983 24.0957 11.6796C24.205 11.5194 24.4238 11.4804 24.582 11.5917C24.7402 11.703 24.7792 11.9198 24.6699 12.078C23.0097 14.4589 20.8769 15.4628 20.7871 15.5058C20.7363 15.5272 20.6875 15.539 20.6386 15.539ZM20.6386 21.4511C20.5605 21.4511 20.4824 21.4257 20.416 21.3749C19.6152 20.744 18.8398 19.5976 18.8066 19.5507C18.6972 19.3866 18.7402 19.164 18.9042 19.0526C19.0664 18.9433 19.291 18.9862 19.4003 19.1522C19.4082 19.162 20.1464 20.2519 20.8593 20.8124C21.0136 20.9354 21.041 21.1601 20.9199 21.3163C20.8476 21.4022 20.7441 21.4511 20.6386 21.4511Z" fill="#FCDE3E"/>
<path d="M12.5 24.9453C5.63672 24.9453 0.0546875 19.3633 0.0546875 12.5C0.0546875 5.63867 5.63672 0.0546875 12.5 0.0546875C19.3633 0.0546875 24.9453 5.63867 24.9453 12.498C24.9453 19.3633 19.3613 24.9453 12.5 24.9453ZM12.5 1.45508C6.41016 1.45508 1.45508 6.41016 1.45508 12.5C1.45508 18.5898 6.4082 23.5449 12.498 23.5449C18.5879 23.5449 23.543 18.5898 23.543 12.5C23.5449 6.41016 18.5879 1.45508 12.5 1.45508Z" fill="#FCDE3E"/>
</g>
<defs>
<clipPath id="clip0_10_76">
<rect width="25" height="25" fill="white"/>
</clipPath>
</defs>
</svg>
