<svg width="24" height="24" viewBox="0 0 24 24" fill="none" xmlns="http://www.w3.org/2000/svg">
<path d="M12.7594 1.35563L15.2831 7.11188C15.3781 7.32851 15.5294 7.51569 15.7213 7.65388C15.9133 7.79207 16.1388 7.8762 16.3744 7.8975L22.5225 8.44875C23.2181 8.55 23.4956 9.40312 22.9913 9.89437L18.36 13.785C17.985 14.1 17.8144 14.595 17.9175 15.0731L19.2638 21.375C19.3819 22.0669 18.6563 22.5956 18.0338 22.2675L12.6675 19.125C12.4651 19.0062 12.2347 18.9436 12 18.9436C11.7653 18.9436 11.5349 19.0062 11.3325 19.125L5.96625 22.2656C5.34563 22.5919 4.61813 22.065 4.73625 21.3731L6.0825 15.0712C6.18375 14.5931 6.015 14.0981 5.64 13.7831L1.00688 9.89625C0.504377 9.40687 0.781877 8.55188 1.47563 8.45062L7.62375 7.89937C7.85931 7.87808 8.08484 7.79395 8.27679 7.65576C8.46874 7.51756 8.62007 7.33038 8.715 7.11375L11.2388 1.3575C11.5519 0.7275 12.4481 0.7275 12.7594 1.35563Z" fill="#FDD835"/>
<path d="M12.5756 7.45672L12.1481 3.21547C12.1313 2.97922 12.0825 2.57422 12.4613 2.57422C12.7613 2.57422 12.9244 3.19859 12.9244 3.19859L14.2069 6.60359C14.6906 7.89922 14.4919 8.34359 14.025 8.60609C13.4888 8.90609 12.6975 8.67172 12.5756 7.45672Z" fill="#FFFF8D"/>
<path d="M17.865 13.4079L21.5437 10.5373C21.7256 10.3854 22.0537 10.1435 21.7912 9.86789C21.5831 9.65039 21.0206 9.96351 21.0206 9.96351L17.8012 11.2216C16.8412 11.5535 16.2037 12.0448 16.1475 12.6635C16.0744 13.4885 16.815 14.1241 17.865 13.4079Z" fill="#F4B400"/>
</svg>
