<svg width="25" height="25" viewBox="0 0 25 25" fill="none" xmlns="http://www.w3.org/2000/svg">
<path d="M12.8477 15.7422C12.8477 15.7422 11.6191 17.3789 11.3457 17.7109C11.0723 18.043 10.3711 18.8027 10.0586 18.998C9.74609 19.1934 9.62891 19.543 6.25781 19.543C3.60742 19.543 2.63281 19.25 1.44336 19.25C0.517578 19.25 0.742187 20.8672 0.859375 21.2383C0.976562 21.6094 1.67578 22.8457 3.02344 23.0898C4.26367 23.3164 5.62109 23.168 7.54688 22.8555C9.14453 22.5957 10.5059 22.25 11.1309 21.8398C11.7285 21.4473 12.4023 20.2422 12.752 19.6973C13.1016 19.1523 14.5254 16.9297 14.5254 16.9297L14.5059 16.4805L12.8477 15.7422Z" fill="#FFA828"/>
<path d="M13.4238 15.7871C13.3906 15.8672 11.0293 18.9004 10.8242 19.1406C10.6192 19.3809 10.2774 19.6992 10.334 20.168C10.3906 20.6348 10.8223 20.7598 11.1289 20.6504C11.6758 20.457 11.8281 20.0078 12.125 19.6191C12.3281 19.3535 14.4981 16.2324 14.4981 16.2324L13.4238 15.7871Z" fill="#F08A34"/>
<path d="M12.7852 15.8223L14.793 13.0156L16.3594 14.1289L14.4395 17.0645L12.7852 15.8223Z" fill="#5D6365"/>
<path d="M14.082 14.0059L15.6641 15.1934L14.9863 16.25L13.3418 15.0352L14.082 14.0059Z" fill="#DFE0E0"/>
<path d="M14.6406 13.2187L16.1914 14.3926L22.5195 4.87891L21.1621 3.96875L14.6406 13.2187Z" fill="#FC2929"/>
<path d="M22.4199 1.49787C22.0586 1.52522 21.584 2.44905 21.5664 2.55061C21.5313 2.74592 21.9004 2.91389 21.9004 2.91389L20.9863 4.22444L22.334 5.14631L23.2383 3.84553C23.2383 3.84553 23.5117 4.03889 23.6523 3.94319C23.7988 3.84358 24.4004 2.99397 24.3652 2.75569C24.3359 2.56037 22.7188 1.47639 22.4199 1.49787Z" fill="#5E6367"/>
<path d="M18.3731 20.2441L15.8321 20.6836C15.8321 20.6836 15.7559 21.0469 15.7754 21.8105C15.795 22.5742 15.9082 22.8418 15.9082 22.8418C15.9082 22.8418 16.4532 24.0293 19.1055 24.0684C21.9864 24.1113 22.5977 22.8613 22.5977 22.8613C22.5977 22.8613 22.7149 22.2344 22.7149 21.7578C22.7149 21.4512 22.7032 20.7422 22.6367 20.6523C22.4473 20.4043 18.3731 20.2441 18.3731 20.2441Z" fill="#9A9A9A"/>
<path d="M19.1426 19.1093C16.7949 19.0858 15.8125 20.1015 15.832 20.6835C15.8457 21.1386 16.7383 22.3222 19.289 22.3632C22.0586 22.4081 22.6426 20.8769 22.6504 20.6542C22.6562 20.3944 22.0019 19.1366 19.1426 19.1093Z" fill="#5E6367"/>
</svg>
