<svg width="25" height="24" viewBox="0 0 25 24" fill="none" xmlns="http://www.w3.org/2000/svg">
<path d="M13.2907 1.35563L15.9196 7.11187C16.0185 7.32851 16.1761 7.51569 16.3761 7.65388C16.576 7.79207 16.811 7.8762 17.0563 7.8975L23.4606 8.44875C24.1852 8.55 24.4743 9.40312 23.9489 9.89437L19.1247 13.785C18.7341 14.1 18.5563 14.595 18.6637 15.0731L20.0661 21.375C20.1891 22.0669 19.4333 22.5956 18.7848 22.2675L13.195 19.125C12.9842 19.0062 12.7441 18.9436 12.4997 18.9436C12.2552 18.9436 12.0152 19.0062 11.8044 19.125L6.21453 22.2656C5.56804 22.5919 4.81023 22.065 4.93328 21.3731L6.33562 15.0712C6.44109 14.5931 6.26531 14.0981 5.87468 13.7831L1.04851 9.89625C0.525075 9.40687 0.814138 8.55187 1.53679 8.45062L7.94109 7.89937C8.18647 7.87808 8.42139 7.79394 8.62133 7.65575C8.82128 7.51756 8.97893 7.33038 9.07781 7.11375L11.7067 1.3575C12.0329 0.7275 12.9665 0.7275 13.2907 1.35563Z" fill="#FDD835"/>
<path d="M13.1 7.45696L12.6547 3.21571C12.6371 2.97946 12.5863 2.57446 12.9808 2.57446C13.2933 2.57446 13.4633 3.19884 13.4633 3.19884L14.7992 6.60384C15.3031 7.89946 15.0961 8.34384 14.6097 8.60634C14.0511 8.90634 13.2269 8.67196 13.1 7.45696Z" fill="#FFFF8D"/>
<path d="M18.6097 13.4081L22.4417 10.5375C22.6312 10.3856 22.973 10.1438 22.6995 9.86813C22.4827 9.65063 21.8968 9.96376 21.8968 9.96376L18.5433 11.2219C17.5433 11.5538 16.8792 12.045 16.8206 12.6638C16.7444 13.4888 17.5159 14.1244 18.6097 13.4081Z" fill="#F4B400"/>
</svg>
