<svg width="25" height="25" viewBox="0 0 25 25" fill="none" xmlns="http://www.w3.org/2000/svg">
<path d="M12.8475 15.7422C12.8475 15.7422 11.619 17.3789 11.3456 17.7109C11.0721 18.043 10.371 18.8027 10.0585 18.998C9.74597 19.1934 9.62878 19.543 6.25769 19.543C3.6073 19.543 2.63269 19.25 1.44324 19.25C0.517456 19.25 0.742065 20.8672 0.859253 21.2383C0.97644 21.6094 1.67566 22.8457 3.02332 23.0898C4.26355 23.3164 5.62097 23.168 7.54675 22.8555C9.14441 22.5957 10.5057 22.25 11.1307 21.8398C11.7284 21.4473 12.4022 20.2422 12.7518 19.6973C13.1014 19.1523 14.5253 16.9297 14.5253 16.9297L14.5057 16.4805L12.8475 15.7422Z" fill="#FFA828"/>
<path d="M13.4237 15.7871C13.3905 15.8672 11.0292 18.9004 10.8241 19.1406C10.619 19.3809 10.2772 19.6992 10.3339 20.168C10.3905 20.6348 10.8222 20.7598 11.1288 20.6504C11.6757 20.457 11.828 20.0078 12.1249 19.6191C12.328 19.3535 14.4979 16.2324 14.4979 16.2324L13.4237 15.7871Z" fill="#F08A34"/>
<path d="M12.7852 15.8223L14.793 13.0156L16.3594 14.1289L14.4395 17.0645L12.7852 15.8223Z" fill="#5D6365"/>
<path d="M14.082 14.0059L15.6641 15.1934L14.9863 16.25L13.3418 15.0352L14.082 14.0059Z" fill="#DFE0E0"/>
<path d="M14.6406 13.2187L16.1914 14.3926L22.5195 4.87891L21.1621 3.96875L14.6406 13.2187Z" fill="#FC2929"/>
<path d="M22.4199 1.49787C22.0586 1.52522 21.584 2.44905 21.5664 2.55061C21.5313 2.74592 21.9004 2.91389 21.9004 2.91389L20.9863 4.22444L22.334 5.14631L23.2383 3.84553C23.2383 3.84553 23.5117 4.03889 23.6523 3.94319C23.7988 3.84358 24.4004 2.99397 24.3652 2.75569C24.3359 2.56037 22.7188 1.47639 22.4199 1.49787Z" fill="#5E6367"/>
<path d="M18.3728 20.2441L15.8318 20.6836C15.8318 20.6836 15.7556 21.0469 15.7752 21.8105C15.7947 22.5742 15.908 22.8418 15.908 22.8418C15.908 22.8418 16.4529 24.0293 19.1053 24.0684C21.9861 24.1113 22.5974 22.8613 22.5974 22.8613C22.5974 22.8613 22.7146 22.2344 22.7146 21.7578C22.7146 21.4512 22.7029 20.7422 22.6365 20.6523C22.4471 20.4043 18.3728 20.2441 18.3728 20.2441Z" fill="#9A9A9A"/>
<path d="M19.1424 19.1093C16.7947 19.0858 15.8123 20.1015 15.8318 20.6835C15.8455 21.1386 16.7381 22.3222 19.2889 22.3632C22.0584 22.4081 22.6424 20.8769 22.6502 20.6542C22.656 20.3944 22.0018 19.1366 19.1424 19.1093Z" fill="#5E6367"/>
</svg>
