<svg width="29" height="29" viewBox="0 0 29 29" fill="none" xmlns="http://www.w3.org/2000/svg">
<path d="M15.4175 1.6378L18.467 8.59327C18.5817 8.85504 18.7646 9.08121 18.9965 9.24819C19.2284 9.41517 19.5009 9.51684 19.7856 9.54257L27.2146 10.2087C28.0551 10.331 28.3904 11.3619 27.781 11.9555L22.1849 16.6566C21.7318 17.0373 21.5256 17.6354 21.6502 18.2131L23.2769 25.8279C23.4196 26.6639 22.5428 27.3028 21.7907 26.9063L15.3064 23.1091C15.0619 22.9656 14.7834 22.8899 14.4999 22.8899C14.2163 22.8899 13.9379 22.9656 13.6933 23.1091L7.2091 26.9041C6.45917 27.2983 5.58011 26.6616 5.72285 25.8256L7.34957 18.2108C7.47191 17.6331 7.268 17.035 6.81488 16.6544L1.21652 11.9577C0.609331 11.3664 0.944644 10.3333 1.78292 10.2109L9.21191 9.54483C9.49654 9.5191 9.76905 9.41744 10.001 9.25046C10.2329 9.08348 10.4158 8.8573 10.5305 8.59554L13.58 1.64007C13.9584 0.878819 15.0414 0.878819 15.4175 1.6378Z" fill="#FDD835"/>
<path d="M15.1956 9.01053L14.6791 3.88568C14.6587 3.60021 14.5998 3.11084 15.0574 3.11084C15.4199 3.11084 15.617 3.86529 15.617 3.86529L17.1667 7.97967C17.7512 9.54522 17.5111 10.0822 16.9469 10.3994C16.299 10.7619 15.3429 10.4787 15.1956 9.01053Z" fill="#FFFF8D"/>
<path d="M20.8238 16.2014L25.2689 12.7328C25.4887 12.5493 25.8852 12.257 25.568 11.9239C25.3165 11.6611 24.6368 12.0395 24.6368 12.0395L20.7467 13.5597C19.5867 13.9607 18.8164 14.5543 18.7484 15.302C18.6601 16.2989 19.555 17.0669 20.8238 16.2014Z" fill="#F4B400"/>
</svg>
