<svg width="25" height="24" viewBox="0 0 25 24" fill="none" xmlns="http://www.w3.org/2000/svg">
<path d="M13.291 1.35563L15.9199 7.11187C16.0188 7.32851 16.1764 7.51569 16.3764 7.65388C16.5763 7.79207 16.8113 7.8762 17.0566 7.8975L23.4609 8.44875C24.1855 8.55 24.4746 9.40312 23.9492 9.89437L19.125 13.785C18.7344 14.1 18.5566 14.595 18.6641 15.0731L20.0664 21.375C20.1894 22.0669 19.4336 22.5956 18.7851 22.2675L13.1953 19.125C12.9845 19.0062 12.7444 18.9436 12.5 18.9436C12.2555 18.9436 12.0155 19.0062 11.8047 19.125L6.21483 22.2656C5.56835 22.5919 4.81054 22.065 4.93358 21.3731L6.33593 15.0712C6.4414 14.5931 6.26561 14.0981 5.87499 13.7831L1.04882 9.89625C0.52538 9.40687 0.814443 8.55187 1.5371 8.45062L7.9414 7.89937C8.18677 7.87808 8.42169 7.79394 8.62164 7.65575C8.82159 7.51756 8.97923 7.33038 9.07812 7.11375L11.707 1.3575C12.0332 0.7275 12.9668 0.7275 13.291 1.35563Z" fill="#FDD835"/>
<path d="M13.0996 7.45672L12.6543 3.21547C12.6367 2.97922 12.5859 2.57422 12.9805 2.57422C13.293 2.57422 13.4629 3.19859 13.4629 3.19859L14.7988 6.60359C15.3027 7.89922 15.0957 8.34359 14.6094 8.60609C14.0508 8.90609 13.2266 8.67172 13.0996 7.45672Z" fill="#FFFF8D"/>
<path d="M18.6094 13.4079L22.4414 10.5373C22.6309 10.3854 22.9726 10.1435 22.6992 9.86789C22.4824 9.65039 21.8965 9.96351 21.8965 9.96351L18.543 11.2216C17.543 11.5535 16.8789 12.0448 16.8203 12.6635C16.7441 13.4885 17.5156 14.1241 18.6094 13.4079Z" fill="#F4B400"/>
</svg>
