<svg width="25" height="25" viewBox="0 0 25 25" fill="none" xmlns="http://www.w3.org/2000/svg">
<g clip-path="url(#clip0_194_9739)">
<path d="M12.5 24.2441C18.9872 24.2441 24.2461 18.9861 24.2461 12.5C24.2461 6.01389 18.9872 0.755859 12.5 0.755859C6.01281 0.755859 0.753906 6.01389 0.753906 12.5C0.753906 18.9861 6.01281 24.2441 12.5 24.2441Z" fill="white"/>
<path d="M17.3202 12.3554C16.8652 12.2909 16.4609 12.6542 16.1054 12.8827C15.3378 13.3729 14.6601 13.9413 14.0058 14.5819C13.6015 14.9784 13.0546 15.5058 12.9101 16.0761C12.8437 16.3397 12.9257 16.6425 12.9785 16.9003C13.0702 17.3495 13.2109 17.787 13.3515 18.2226C13.5104 18.7121 13.6942 19.1932 13.9023 19.664C14.0058 19.9003 14.1191 20.1347 14.2304 20.369C14.3339 20.5878 14.4023 20.7167 14.6562 20.7499C14.9413 20.787 15.2265 20.744 15.5097 20.7323C15.9277 20.7167 16.3456 20.6757 16.7578 20.6054C17.3027 20.5136 17.8515 20.414 18.373 20.2284C18.8554 20.0546 19.4081 19.7851 19.6874 19.3417C20.287 18.3886 20.6503 17.3065 20.8495 16.203C20.9081 15.8847 20.9648 15.5605 20.9628 15.2343C20.9648 14.9472 20.9902 14.6522 20.7831 14.4315C20.412 14.0331 19.9726 13.703 19.5175 13.4042C18.8437 12.9667 18.1386 12.4726 17.3202 12.3554ZM4.0683 7.7499C3.64447 7.97451 3.31244 8.50967 3.06439 8.90225C2.5683 9.6835 2.16791 10.5858 1.98041 11.494C1.83783 12.1894 2.14837 12.8671 2.3808 13.5097C2.60736 14.1288 3.00189 14.619 3.43353 15.1054C3.54291 15.2304 3.68158 15.3241 3.79095 15.4472C3.91595 15.5858 4.07416 15.7167 4.23822 15.8085C4.35541 15.8749 4.46087 15.7851 4.58002 15.7577C4.89447 15.6815 5.12884 15.5214 5.414 15.371C5.66986 15.2343 5.93353 15.119 6.19134 14.9823C6.74408 14.6854 7.40228 14.4413 7.8847 14.0331C7.9472 13.9804 8.02923 13.914 8.04681 13.83C8.09173 13.621 8.02923 13.3495 8.01947 13.1366C8.00775 12.8378 8.00384 12.5409 8.00189 12.2421C7.99994 11.5663 8.02533 10.8905 8.02533 10.2147C8.03119 9.83779 8.07806 9.46279 8.06048 9.08584C8.02923 8.52529 7.42377 8.32607 6.96869 8.21279C6.33002 8.05459 5.68744 7.83779 5.03509 7.75772C4.76556 7.72842 4.32025 7.61709 4.0683 7.7499ZM20.6484 6.06436C20.7089 5.64053 20.4257 5.13076 20.2206 4.75186C19.8144 3.996 19.2324 3.25381 18.5058 2.66397C17.9511 2.21279 17.1347 2.0292 16.3749 1.95303C15.0136 1.81436 13.9745 1.89834 13.6874 1.94326C13.3984 1.98818 13.1269 2.07607 12.9726 2.26748C12.6679 2.63857 12.6152 3.16982 12.5507 3.62686C12.457 4.2792 12.3749 4.95107 12.4609 5.60732C12.4745 5.72451 12.4921 5.87881 12.5488 5.98232C12.6562 6.17373 12.8827 6.26943 13.1074 6.36904C14.2714 6.88272 16.4921 8.1542 16.8535 8.32607C17.3925 8.58584 17.9667 8.24014 18.3652 7.96084C18.9179 7.57217 19.5331 7.20693 20.0214 6.76748C20.2226 6.58779 20.6113 6.31436 20.6484 6.06436ZM3.92767 20.5937C3.97455 20.6659 4.01947 20.7206 4.09173 20.7753C4.20697 20.8632 4.31634 20.953 4.42572 21.0487C5.3808 21.8866 6.49994 22.5175 7.60931 23.1229C7.9433 23.3065 8.26166 23.494 8.6015 23.664C8.96869 23.8456 9.34759 23.9687 9.74212 24.078C10.0097 24.1522 10.2812 24.2245 10.5585 24.2519C10.8163 24.2772 11.08 24.3378 11.3398 24.3417C11.4882 24.3437 11.6249 24.3378 11.7695 24.3183C11.6992 24.205 11.6367 24.0604 11.5761 23.9394C11.4804 23.7499 11.3827 23.5585 11.2851 23.371C11.1718 23.1542 11.0839 22.9276 10.9687 22.7128C10.8788 22.5487 10.7617 22.3788 10.5995 22.2831C10.3827 22.1542 10.1757 22.0272 9.93939 21.9315C9.07611 21.58 8.30267 21.0839 7.49994 20.619C7.09369 20.3827 6.69525 20.1308 6.31244 19.8554C6.10736 19.7089 5.90814 19.5565 5.69134 19.4257C5.64642 19.3964 5.6015 19.3612 5.54877 19.3534C5.50189 19.3456 5.42962 19.3476 5.38275 19.3534C5.33978 19.3593 5.289 19.3671 5.24798 19.3749C4.96673 19.4335 4.66205 19.5077 4.37103 19.5722C4.09369 19.6347 3.78314 19.6562 3.51752 19.7577C3.414 19.7968 3.42572 19.8554 3.46673 19.9452C3.52923 20.0858 3.62103 20.2147 3.71673 20.3319C3.78119 20.4159 3.86127 20.494 3.92767 20.5937Z" fill="#FCDE3E"/>
<path d="M7.30623 9.4374C7.24009 9.43745 7.17529 9.41879 7.1193 9.38357C7.06332 9.34836 7.01844 9.29802 6.98985 9.23839C6.96125 9.17875 6.95011 9.11224 6.95771 9.04654C6.96531 8.98084 6.99134 8.91863 7.03279 8.86709C7.12849 8.7499 9.3824 5.98818 13.4136 5.36318C13.459 5.35626 13.5054 5.35834 13.55 5.36932C13.5946 5.38029 13.6365 5.39995 13.6735 5.42715C13.7105 5.45435 13.7418 5.48858 13.7656 5.52787C13.7894 5.56716 13.8052 5.61075 13.8121 5.65615C13.819 5.70155 13.8169 5.74787 13.806 5.79246C13.795 5.83705 13.7753 5.87905 13.7481 5.91605C13.7209 5.95305 13.6867 5.98432 13.6474 6.00809C13.6081 6.03187 13.5645 6.04767 13.5191 6.05459C9.76717 6.63858 7.5992 9.28115 7.57771 9.30654C7.5074 9.39248 7.40779 9.4374 7.30623 9.4374ZM6.4742 21.6991C6.37263 21.6991 6.27107 21.6562 6.20271 21.5702C6.10701 21.453 3.8863 18.664 4.12654 14.5937C4.13826 14.4003 4.30232 14.2519 4.49568 14.2636C4.68904 14.2753 4.83552 14.4413 4.8238 14.6347C4.60115 18.4374 6.7242 21.1034 6.74568 21.1288C6.86873 21.2792 6.84334 21.4999 6.6949 21.621C6.63045 21.6718 6.55232 21.6991 6.4742 21.6991ZM9.11482 23.0741C8.93513 23.0741 8.78279 22.9374 8.76716 22.7538C8.75154 22.5604 8.89412 22.3905 9.08748 22.3749C9.12068 22.3729 12.523 22.0526 15.1051 19.2675C15.1686 19.1995 15.2565 19.1595 15.3495 19.1562C15.4425 19.1529 15.533 19.1866 15.6011 19.2499C15.7437 19.3808 15.7515 19.6034 15.6187 19.746C12.8453 22.7343 9.29451 23.0604 9.14607 23.0741C9.13435 23.0722 9.12459 23.0741 9.11482 23.0741ZM4.24959 9.01748C4.08552 9.01748 3.93904 8.90225 3.90779 8.73428C3.88826 8.63662 3.44685 6.32217 4.39802 3.57998C4.46248 3.39639 4.65974 3.29873 4.84334 3.36318C5.02498 3.42764 5.12263 3.6249 5.06013 3.8085C4.16951 6.3749 4.58943 8.57607 4.59529 8.59951C4.6324 8.78897 4.50935 8.97451 4.31795 9.01162C4.29646 9.01553 4.27302 9.01748 4.24959 9.01748ZM14.4273 3.27334C14.3551 3.27334 14.2808 3.2499 14.2203 3.20303C14.2027 3.19131 12.3804 1.86904 9.69099 1.57412C9.49959 1.55459 9.35896 1.38076 9.38045 1.18936C9.39998 0.995997 9.5738 0.859278 9.76521 0.878809C12.6519 1.19326 14.5543 2.57998 14.6344 2.63857C14.7886 2.75381 14.8219 2.97256 14.7066 3.12881C14.6402 3.22451 14.5347 3.27334 14.4273 3.27334ZM23.2672 8.97061C23.1656 8.97061 23.064 8.92568 22.9937 8.83975C21.2867 6.72842 19.1969 5.91787 19.1773 5.91006C19.0905 5.87722 19.0201 5.81133 18.9817 5.72679C18.9433 5.64225 18.9399 5.54593 18.9722 5.45889C19.0406 5.27725 19.2437 5.1874 19.4234 5.25381C19.5172 5.28897 21.7125 6.14053 23.5367 8.39834C23.6597 8.54873 23.6344 8.76943 23.484 8.89053C23.4215 8.94522 23.3433 8.97061 23.2672 8.97061ZM17.0855 13.705C17.0719 13.705 17.0543 13.703 17.0406 13.7011C16.995 13.6952 16.951 13.6804 16.9112 13.6574C16.8713 13.6345 16.8364 13.6039 16.8085 13.5674C16.7805 13.5309 16.7601 13.4892 16.7483 13.4448C16.7365 13.4004 16.7336 13.354 16.7398 13.3085C17.1871 9.96084 16.7476 7.48818 16.7418 7.46279C16.7066 7.27334 16.8316 7.08975 17.023 7.05654C17.2144 7.01943 17.3961 7.14834 17.4312 7.33779C17.4488 7.44326 17.8961 9.94522 17.4332 13.4022C17.4097 13.578 17.2594 13.705 17.0855 13.705ZM14.0465 16.5644C14.0347 16.5644 14.0269 16.5644 14.0152 16.5624C9.66365 16.1776 6.80037 13.7226 6.67927 13.619C6.60938 13.558 6.56646 13.4718 6.55988 13.3792C6.55329 13.2867 6.58357 13.1952 6.64412 13.1249C6.77107 12.9784 6.99177 12.9628 7.13826 13.0897C7.16755 13.1132 9.96052 15.5019 14.0777 15.8651C14.1672 15.8736 14.2501 15.9162 14.3091 15.984C14.3681 16.0519 14.3988 16.1398 14.3947 16.2296C14.3907 16.3194 14.3523 16.4043 14.2875 16.4666C14.2227 16.5289 14.1364 16.5639 14.0465 16.5644ZM1.54841 12.5507C1.25349 12.5507 0.931227 12.5136 0.630446 12.3983C0.543578 12.3655 0.473243 12.2996 0.434815 12.2151C0.396386 12.1305 0.39299 12.0342 0.425367 11.9472C0.49568 11.7675 0.694899 11.6757 0.878492 11.7421C1.52302 11.9882 2.38435 11.7362 2.39412 11.7343C2.57771 11.6796 2.77302 11.7831 2.82771 11.9706C2.88435 12.1542 2.77888 12.3495 2.59529 12.4062C2.56599 12.414 2.10505 12.5507 1.54841 12.5507ZM20.6383 15.539C20.5054 15.539 20.3804 15.4628 20.3219 15.3358C20.2398 15.162 20.3179 14.953 20.4918 14.871C20.5113 14.8612 22.5465 13.8983 24.0953 11.6796C24.2047 11.5194 24.4234 11.4804 24.5816 11.5917C24.7398 11.703 24.7789 11.9198 24.6695 12.078C23.0094 14.4589 20.8765 15.4628 20.7867 15.5058C20.7359 15.5272 20.6871 15.539 20.6383 15.539ZM20.6383 21.4511C20.5601 21.4511 20.482 21.4257 20.4156 21.3749C19.6148 20.744 18.8394 19.5976 18.8062 19.5507C18.6969 19.3866 18.7398 19.164 18.9039 19.0526C19.066 18.9433 19.2906 18.9862 19.4 19.1522C19.4078 19.162 20.1461 20.2519 20.859 20.8124C21.0133 20.9354 21.0406 21.1601 20.9195 21.3163C20.8472 21.4022 20.7437 21.4511 20.6383 21.4511Z" fill="#FCDE3E"/>
<path d="M12.5 24.9453C5.63672 24.9453 0.0546875 19.3633 0.0546875 12.5C0.0546875 5.63867 5.63672 0.0546875 12.5 0.0546875C19.3633 0.0546875 24.9453 5.63867 24.9453 12.498C24.9453 19.3633 19.3613 24.9453 12.5 24.9453ZM12.5 1.45508C6.41016 1.45508 1.45508 6.41016 1.45508 12.5C1.45508 18.5898 6.4082 23.5449 12.498 23.5449C18.5879 23.5449 23.543 18.5898 23.543 12.5C23.5449 6.41016 18.5879 1.45508 12.5 1.45508Z" fill="#FCDE3E"/>
</g>
<defs>
<clipPath id="clip0_194_9739">
<rect width="25" height="25" fill="white"/>
</clipPath>
</defs>
</svg>
