<svg width="25" height="24" viewBox="0 0 25 24" fill="none" xmlns="http://www.w3.org/2000/svg">
<path d="M13.2912 1.35563L15.9201 7.11187C16.019 7.32851 16.1766 7.51569 16.3766 7.65388C16.5765 7.79207 16.8114 7.8762 17.0568 7.8975L23.4611 8.44875C24.1857 8.55 24.4748 9.40312 23.9494 9.89437L19.1252 13.785C18.7345 14.1 18.5568 14.595 18.6642 15.0731L20.0666 21.375C20.1896 22.0669 19.4338 22.5956 18.7853 22.2675L13.1955 19.125C12.9847 19.0062 12.7446 18.9436 12.5002 18.9436C12.2557 18.9436 12.0157 19.0062 11.8049 19.125L6.21502 22.2656C5.56853 22.5919 4.81072 22.065 4.93377 21.3731L6.33611 15.0712C6.44158 14.5931 6.2658 14.0981 5.87517 13.7831L1.049 9.89625C0.525563 9.40687 0.814626 8.55187 1.53728 8.45062L7.94158 7.89937C8.18695 7.87808 8.42187 7.79394 8.62182 7.65575C8.82177 7.51756 8.97941 7.33038 9.0783 7.11375L11.7072 1.3575C12.0334 0.7275 12.967 0.7275 13.2912 1.35563Z" fill="#FDD835"/>
<path d="M13.0995 7.45672L12.6542 3.21547C12.6366 2.97922 12.5858 2.57422 12.9803 2.57422C13.2928 2.57422 13.4628 3.19859 13.4628 3.19859L14.7987 6.60359C15.3026 7.89922 15.0956 8.34359 14.6093 8.60609C14.0507 8.90609 13.2264 8.67172 13.0995 7.45672Z" fill="#FFFF8D"/>
<path d="M18.6092 13.4079L22.4412 10.5373C22.6307 10.3854 22.9725 10.1435 22.699 9.86789C22.4822 9.65039 21.8963 9.96351 21.8963 9.96351L18.5428 11.2216C17.5428 11.5535 16.8787 12.0448 16.8201 12.6635C16.744 13.4885 17.5154 14.1241 18.6092 13.4079Z" fill="#F4B400"/>
</svg>
