<svg width="29" height="29" viewBox="0 0 29 29" fill="none" xmlns="http://www.w3.org/2000/svg">
<path d="M15.4176 1.6378L18.4671 8.59327C18.5818 8.85504 18.7647 9.08121 18.9966 9.24819C19.2286 9.41517 19.5011 9.51684 19.7857 9.54257L27.2147 10.2087C28.0552 10.331 28.3905 11.3619 27.7811 11.9555L22.185 16.6566C21.7319 17.0373 21.5257 17.6354 21.6503 18.2131L23.277 25.8279C23.4198 26.6639 22.543 27.3028 21.7908 26.9063L15.3066 23.1091C15.062 22.9656 14.7836 22.8899 14.5 22.8899C14.2164 22.8899 13.938 22.9656 13.6934 23.1091L7.20922 26.9041C6.4593 27.2983 5.58023 26.6616 5.72297 25.8256L7.34969 18.2108C7.47203 17.6331 7.26812 17.035 6.815 16.6544L1.21664 11.9577C0.609453 11.3664 0.944766 10.3333 1.78305 10.2109L9.21203 9.54483C9.49667 9.5191 9.76917 9.41744 10.0011 9.25046C10.2331 9.08348 10.4159 8.8573 10.5306 8.59554L13.5802 1.64007C13.9585 0.878819 15.0415 0.878819 15.4176 1.6378Z" fill="#FDD835"/>
<path d="M15.1956 9.01053L14.679 3.88568C14.6586 3.60021 14.5997 3.11084 15.0574 3.11084C15.4199 3.11084 15.617 3.86529 15.617 3.86529L17.1667 7.97967C17.7512 9.54522 17.511 10.0822 16.9469 10.3994C16.2989 10.7619 15.3428 10.4787 15.1956 9.01053Z" fill="#FFFF8D"/>
<path d="M20.8238 16.2014L25.2689 12.7328C25.4887 12.5493 25.8852 12.257 25.568 11.9239C25.3165 11.6611 24.6368 12.0395 24.6368 12.0395L20.7468 13.5597C19.5868 13.9607 18.8164 14.5543 18.7485 15.302C18.6601 16.2989 19.555 17.0669 20.8238 16.2014Z" fill="#F4B400"/>
</svg>
