<svg width="24" height="24" viewBox="0 0 24 24" fill="none" xmlns="http://www.w3.org/2000/svg">
<path d="M12.7593 1.35563L15.2831 7.11188C15.378 7.32851 15.5293 7.51569 15.7213 7.65388C15.9132 7.79207 16.1388 7.8762 16.3743 7.8975L22.5224 8.44875C23.2181 8.55 23.4956 9.40312 22.9912 9.89437L18.3599 13.785C17.9849 14.1 17.8143 14.595 17.9174 15.0731L19.2637 21.375C19.3818 22.0669 18.6562 22.5956 18.0337 22.2675L12.6674 19.125C12.465 19.0062 12.2346 18.9436 11.9999 18.9436C11.7653 18.9436 11.5348 19.0062 11.3324 19.125L5.96619 22.2656C5.34557 22.5919 4.61807 22.065 4.73619 21.3731L6.08244 15.0712C6.18369 14.5931 6.01494 14.0981 5.63994 13.7831L1.00682 9.89625C0.504316 9.40687 0.781816 8.55188 1.47557 8.45062L7.62369 7.89937C7.85925 7.87808 8.08477 7.79395 8.27672 7.65576C8.46867 7.51756 8.62001 7.33038 8.71494 7.11375L11.2387 1.3575C11.5518 0.7275 12.4481 0.7275 12.7593 1.35563Z" fill="#FDD835"/>
<path d="M12.5756 7.45672L12.1481 3.21547C12.1312 2.97922 12.0825 2.57422 12.4612 2.57422C12.7612 2.57422 12.9243 3.19859 12.9243 3.19859L14.2068 6.60359C14.6906 7.89922 14.4918 8.34359 14.025 8.60609C13.4887 8.90609 12.6975 8.67172 12.5756 7.45672Z" fill="#FFFF8D"/>
<path d="M17.8651 13.4079L21.5438 10.5373C21.7257 10.3854 22.0538 10.1435 21.7913 9.86789C21.5832 9.65039 21.0207 9.96351 21.0207 9.96351L17.8013 11.2216C16.8413 11.5535 16.2038 12.0448 16.1476 12.6635C16.0744 13.4885 16.8151 14.1241 17.8651 13.4079Z" fill="#F4B400"/>
</svg>
