<svg version="1.1" id="Layer_1" xmlns="http://www.w3.org/2000/svg" xmlns:xlink="http://www.w3.org/1999/xlink" x="0px" y="0px"
	 width="100%" viewBox="0 0 50 50" enable-background="new 0 0 50 50" xml:space="preserve">
<path fill="#000000" opacity="1.000000" stroke="none" 
	d="
M30.000561,51.000000 
	C20.000404,51.000000 10.500421,51.000000 1.000328,51.000000 
	C1.000218,34.333508 1.000218,17.667013 1.000109,1.000390 
	C17.666466,1.000260 34.332932,1.000260 50.999550,1.000130 
	C50.999699,17.666437 50.999699,34.332874 50.999847,50.999657 
	C44.166912,51.000000 37.333824,51.000000 30.000561,51.000000 
M8.363999,41.213326 
	C20.011814,41.302879 31.659609,41.396484 43.307587,41.452515 
	C43.537201,41.453617 43.768936,41.014103 43.997578,40.499985 
	C43.997578,40.499985 43.995556,40.219807 43.854038,39.700001 
	C40.464447,33.739868 39.472622,27.800009 43.787296,21.431389 
	C43.551952,20.961750 43.316612,20.492113 42.872929,19.596415 
	C42.475716,19.329300 42.080444,18.832039 41.681007,18.828669 
	C31.199606,18.740246 20.717613,18.670700 10.236352,18.723415 
	C9.469042,18.727272 8.706498,19.678995 7.956299,20.771662 
	C7.964612,21.158640 7.972924,21.545618 8.378013,22.540699 
	C9.252421,27.024799 10.126830,31.508900 11.001136,36.615459 
	C11.001131,37.028423 11.001127,37.441383 10.537460,38.089218 
	C9.693121,38.800163 8.848781,39.511105 8.002204,40.485168 
	C8.002204,40.485168 7.999834,40.752399 8.363999,41.213326 
z"/>
<path fill="#0D0D0D" opacity="1.000000" stroke="none" 
	d="
M44.004467,21.906847 
	C39.472622,27.800009 40.464447,33.739868 43.457458,39.919151 
	C31.375399,40.166218 19.689920,40.194130 8.004440,40.222046 
	C8.848781,39.511105 9.693121,38.800163 11.185209,37.998070 
	C13.220609,37.901855 14.608261,37.896790 16.253223,37.925076 
	C17.668682,37.658611 18.826830,37.358788 20.261837,37.073402 
	C21.357038,35.059540 22.175379,33.031242 22.997173,30.585979 
	C22.996029,28.779133 22.991428,27.389248 22.833164,25.821270 
	C21.772741,25.756689 20.865986,25.870201 19.750523,25.832760 
	C16.653481,23.960686 13.926132,23.158724 12.005360,27.417137 
	C12.004038,29.222158 12.009508,30.610664 12.012239,32.332726 
	C12.010367,33.111076 12.011235,33.555866 11.895773,34.254799 
	C11.520041,35.003628 11.260640,35.498314 11.001238,35.993000 
	C10.126830,31.508900 9.252421,27.024799 8.650337,22.248016 
	C20.616596,21.939173 32.310532,21.923010 44.004467,21.906847 
M36.578182,25.704185 
	C35.601944,25.722904 33.774071,25.703718 33.771309,25.765770 
	C33.612499,29.333643 33.538269,32.911858 33.729950,36.474308 
	C33.743057,36.717896 35.859367,36.848316 37.560127,37.056526 
	C40.301857,34.702808 41.057896,27.559992 38.700462,25.488016 
	C38.461002,25.277552 37.579273,25.797838 36.578182,25.704185 
M27.282381,25.739185 
	C26.717058,25.569456 25.867193,25.073187 25.629925,25.279936 
	C22.918812,27.642336 23.525684,35.002342 27.546806,37.975376 
	C27.546806,33.618378 27.546806,29.959808 27.282381,25.739185 
M31.397642,26.350735 
	C30.850315,26.277905 30.302990,26.205076 29.755661,26.132246 
	C29.571806,29.506865 29.387951,32.881485 29.204096,36.256104 
	C30.016645,36.277504 30.829197,36.298908 31.641747,36.320309 
	C31.641747,33.190731 31.641747,30.061155 31.397642,26.350735 
z"/>
<path fill="#000000" opacity="1.000000" stroke="none" 
	d="
M43.895882,21.669117 
	C32.310532,21.923010 20.616596,21.939173 8.451948,21.943966 
	C7.972924,21.545618 7.964612,21.158640 8.423231,20.468994 
	C20.287197,20.118378 31.684233,20.070425 43.081268,20.022474 
	C43.316612,20.492113 43.551952,20.961750 43.895882,21.669117 
z"/>
<path fill="#1C1C1C" opacity="1.000000" stroke="none" 
	d="
M42.977097,19.809444 
	C31.684233,20.070425 20.287197,20.118378 8.415951,20.178185 
	C8.706498,19.678995 9.469042,18.727272 10.236352,18.723415 
	C20.717613,18.670700 31.199606,18.740246 41.681007,18.828669 
	C42.080444,18.832039 42.475716,19.329300 42.977097,19.809444 
z"/>
<path fill="#2A2A2A" opacity="1.000000" stroke="none" 
	d="
M43.999680,40.780163 
	C43.768936,41.014103 43.537201,41.453617 43.307587,41.452515 
	C31.659609,41.396484 20.011814,41.302879 8.648012,41.039665 
	C20.621243,40.837391 32.310463,40.808777 43.999680,40.780163 
z"/>
<path fill="#000000" opacity="1.000000" stroke="none" 
	d="
M43.998627,40.640076 
	C32.310463,40.808777 20.621243,40.837391 8.465929,40.809204 
	C7.999834,40.752399 8.002204,40.485168 8.003323,40.353607 
	C19.689920,40.194130 31.375399,40.166218 43.528217,40.179054 
	C43.995556,40.219807 43.997578,40.499985 43.998627,40.640076 
z"/>
<path fill="#000000" opacity="1.000000" stroke="none" 
	d="
M15.995913,37.891720 
	C14.608261,37.896790 13.220609,37.901855 11.417040,37.880638 
	C11.001127,37.441383 11.001131,37.028423 11.001187,36.304230 
	C11.260640,35.498314 11.520041,35.003628 12.230277,34.329773 
	C13.786045,35.397640 14.890979,36.644680 15.995913,37.891720 
z"/>
<path fill="#000000" opacity="1.000000" stroke="none" 
	d="
M16.253222,37.925076 
	C14.890979,36.644680 13.786045,35.397640 12.346607,34.075630 
	C12.011235,33.555866 12.010367,33.111076 12.337975,32.258839 
	C13.511532,31.036356 14.356614,30.221319 15.201696,29.406282 
	C14.138515,28.604395 13.075333,27.802505 12.012152,27.000618 
	C13.926132,23.158724 16.653481,23.960686 20.129799,25.835907 
	C21.474133,25.993128 22.230480,25.996246 22.986830,25.999363 
	C22.991428,27.389248 22.996029,28.779133 22.754425,30.811996 
	C21.667143,33.322971 20.826061,35.190968 19.984978,37.058964 
	C18.826830,37.358788 17.668682,37.658611 16.253222,37.925076 
z"/>
<path fill="#000000" opacity="1.000000" stroke="none" 
	d="
M27.414593,26.020212 
	C27.546806,29.959808 27.546806,33.618378 27.546806,37.975376 
	C23.525684,35.002342 22.918812,27.642336 25.629925,25.279936 
	C25.867193,25.073187 26.717058,25.569456 27.414593,26.020212 
z"/>
<path fill="#000000" opacity="1.000000" stroke="none" 
	d="
M36.997555,37.031364 
	C35.859367,36.848316 33.743057,36.717896 33.729950,36.474308 
	C33.538269,32.911858 33.612499,29.333643 33.771309,25.765770 
	C33.774071,25.703718 35.601944,25.722904 36.787640,26.302204 
	C36.997250,30.277269 36.997402,33.654316 36.997555,37.031364 
z"/>
<path fill="#000000" opacity="1.000000" stroke="none" 
	d="
M31.519695,26.641155 
	C31.641747,30.061155 31.641747,33.190731 31.641747,36.320309 
	C30.829197,36.298908 30.016645,36.277504 29.204096,36.256104 
	C29.387951,32.881485 29.571806,29.506865 29.755661,26.132246 
	C30.302990,26.205076 30.850315,26.277905 31.519695,26.641155 
z"/>
<path fill="#000000" opacity="1.000000" stroke="none" 
	d="
M37.278839,37.043945 
	C36.997402,33.654316 36.997250,30.277269 36.996346,26.439619 
	C37.579273,25.797838 38.461002,25.277552 38.700462,25.488016 
	C41.057896,27.559992 40.301857,34.702808 37.278839,37.043945 
z"/>
<path fill="#000000" opacity="1.000000" stroke="none" 
	d="
M12.005360,27.417137 
	C13.075333,27.802505 14.138515,28.604395 15.201696,29.406282 
	C14.356614,30.221319 13.511532,31.036356 12.340714,31.925282 
	C12.009508,30.610664 12.004038,29.222158 12.005360,27.417137 
z"/>
<path fill="#000000" opacity="1.000000" stroke="none" 
	d="
M20.261837,37.073402 
	C20.826061,35.190968 21.667143,33.322971 22.750971,31.228958 
	C22.175379,33.031242 21.357038,35.059540 20.261837,37.073402 
z"/>
<path fill="#000000" opacity="1.000000" stroke="none" 
	d="
M22.833164,25.821270 
	C22.230480,25.996246 21.474133,25.993128 20.338507,25.986862 
	C20.865986,25.870201 21.772741,25.756689 22.833164,25.821270 
z"/>
</svg>