<svg width="34" height="34" viewBox="0 0 34 34" fill="none" xmlns="http://www.w3.org/2000/svg">
<path d="M26.0155 26.0156C30.9947 21.0365 30.9947 12.9636 26.0155 7.98442L28.019 5.98096C34.1045 12.0666 34.1045 21.9335 28.019 28.0191L26.0155 26.0156ZM7.98423 7.98442C3.00504 12.9636 3.00504 21.0365 7.98423 26.0156L5.98076 28.0191C-0.104915 21.9335 -0.104915 12.0666 5.98076 5.98096L7.98423 7.98442ZM22.0085 22.0086C24.7748 19.2424 24.7748 14.7574 22.0085 11.9912L24.0119 9.98773C27.8847 13.8604 27.8847 20.1393 24.0119 24.012L22.0085 22.0086ZM11.9912 11.9912C9.22494 14.7574 9.22494 19.2424 11.9912 22.0086L9.98769 24.012C6.11499 20.1393 6.11499 13.8604 9.98769 9.98773L11.9912 11.9912ZM16.9998 19.8333C18.5647 19.8333 19.8332 18.5648 19.8332 17C19.8332 15.4351 18.5647 14.1666 16.9998 14.1666C15.435 14.1666 14.1665 15.4351 14.1665 17C14.1665 18.5648 15.435 19.8333 16.9998 19.8333Z" fill="#70CB7A"/>
</svg>
