<svg width="13" height="13" viewBox="0 0 13 13" fill="none" xmlns="http://www.w3.org/2000/svg">
<path d="M6.50066 1.08334C9.49228 1.08334 11.9173 3.50839 11.9173 6.50001C11.9173 9.49164 9.49228 11.9167 6.50066 11.9167C5.54341 11.9182 4.60301 11.6649 3.77608 11.1827L1.08616 11.9167L1.81849 9.22568C1.33592 8.39848 1.08239 7.45768 1.08399 6.50001C1.08399 3.50839 3.50903 1.08334 6.50066 1.08334ZM4.65466 3.95418L4.54633 3.95851C4.47619 3.96278 4.40765 3.98121 4.34483 4.01268C4.28607 4.04595 4.23243 4.08755 4.18558 4.13618C4.12058 4.19739 4.08374 4.25047 4.0442 4.30193C3.84385 4.56242 3.73598 4.88222 3.73762 5.21084C3.7387 5.47626 3.80803 5.73464 3.91637 5.97622C4.13791 6.4648 4.50245 6.98209 4.98345 7.46147C5.09937 7.57684 5.21312 7.69276 5.33553 7.80055C5.9332 8.32676 6.64542 8.70624 7.41553 8.9088L7.7232 8.95593C7.82341 8.96134 7.92362 8.95376 8.02437 8.94889C8.18212 8.94074 8.33616 8.89803 8.47558 8.82376C8.54651 8.78722 8.61573 8.74746 8.68303 8.70459C8.68303 8.70459 8.70633 8.68943 8.75074 8.65584C8.82387 8.60168 8.86883 8.56322 8.92949 8.49984C8.97445 8.45326 9.01345 8.39855 9.04324 8.33626C9.08549 8.24797 9.12774 8.07951 9.14507 7.93922C9.15808 7.83197 9.15428 7.77347 9.15266 7.73718C9.15049 7.67922 9.10228 7.61909 9.04974 7.59364L8.73449 7.45226C8.73449 7.45226 8.26324 7.24697 7.97508 7.11589C7.94492 7.10272 7.91261 7.09519 7.87974 7.09368C7.84268 7.08987 7.80524 7.09404 7.76992 7.10591C7.7346 7.11777 7.70224 7.13706 7.67499 7.16247C7.67228 7.16139 7.63599 7.19226 7.24437 7.66676C7.22189 7.69696 7.19093 7.71979 7.15543 7.73233C7.11993 7.74487 7.0815 7.74656 7.04503 7.73718C7.00975 7.72772 6.97517 7.71577 6.94158 7.70143C6.87441 7.67326 6.85112 7.66243 6.80508 7.64293C6.49419 7.50726 6.20636 7.32397 5.95195 7.09964C5.8837 7.04005 5.82033 6.97505 5.75533 6.91222C5.54223 6.70814 5.35651 6.47726 5.20283 6.22539L5.17087 6.17393C5.14791 6.13935 5.12935 6.10205 5.11562 6.06289C5.09503 5.98326 5.14866 5.91934 5.14866 5.91934C5.14866 5.91934 5.28028 5.77526 5.34149 5.69726C5.40108 5.62143 5.45145 5.54776 5.48395 5.49522C5.54787 5.3923 5.56791 5.28668 5.53433 5.20489C5.38266 4.83439 5.22558 4.46551 5.06416 4.09934C5.0322 4.02676 4.93741 3.97476 4.85128 3.96447C4.82203 3.96122 4.79278 3.95797 4.76353 3.9558C4.69079 3.95219 4.6179 3.95291 4.54524 3.95797L4.65412 3.95364L4.65466 3.95418Z" fill="black"/>
</svg>
