<svg width="13" height="13" viewBox="0 0 13 13" fill="none" xmlns="http://www.w3.org/2000/svg">
<path d="M6.50066 1.0835C9.49228 1.0835 11.9173 3.50854 11.9173 6.50016C11.9173 9.49179 9.49228 11.9168 6.50066 11.9168C5.54341 11.9184 4.60301 11.665 3.77608 11.1829L1.08616 11.9168L1.81849 9.22583C1.33592 8.39864 1.08239 7.45783 1.08399 6.50016C1.08399 3.50854 3.50903 1.0835 6.50066 1.0835ZM4.65466 3.95433L4.54633 3.95866C4.47619 3.96293 4.40765 3.98136 4.34483 4.01283C4.28607 4.0461 4.23243 4.0877 4.18558 4.13633C4.12058 4.19754 4.08374 4.25062 4.0442 4.30208C3.84385 4.56257 3.73598 4.88237 3.73762 5.211C3.7387 5.47641 3.80803 5.73479 3.91637 5.97637C4.13791 6.46495 4.50245 6.98225 4.98345 7.46162C5.09937 7.577 5.21312 7.69291 5.33553 7.8007C5.9332 8.32691 6.64542 8.70639 7.41553 8.90896L7.7232 8.95608C7.82341 8.9615 7.92362 8.95391 8.02437 8.94904C8.18212 8.9409 8.33616 8.89818 8.47558 8.82391C8.54651 8.78738 8.61573 8.74761 8.68303 8.70475C8.68303 8.70475 8.70633 8.68958 8.75074 8.656C8.82387 8.60183 8.86883 8.56337 8.92949 8.5C8.97445 8.45341 9.01345 8.39871 9.04324 8.33641C9.08549 8.24812 9.12774 8.07966 9.14507 7.93937C9.15808 7.83212 9.15428 7.77362 9.15266 7.73733C9.15049 7.67937 9.10228 7.61925 9.04974 7.59379L8.73449 7.45241C8.73449 7.45241 8.26324 7.24712 7.97508 7.11604C7.94492 7.10287 7.91261 7.09534 7.87974 7.09383C7.84268 7.09002 7.80524 7.09419 7.76992 7.10606C7.7346 7.11792 7.70224 7.13721 7.67499 7.16262C7.67228 7.16154 7.63599 7.19241 7.24437 7.66691C7.22189 7.69712 7.19093 7.71994 7.15543 7.73248C7.11993 7.74503 7.0815 7.74671 7.04503 7.73733C7.00975 7.72787 6.97517 7.71592 6.94158 7.70158C6.87441 7.67341 6.85112 7.66258 6.80508 7.64308C6.49419 7.50742 6.20636 7.32412 5.95195 7.09979C5.8837 7.04021 5.82033 6.9752 5.75533 6.91237C5.54223 6.70829 5.35651 6.47742 5.20283 6.22554L5.17087 6.17408C5.14791 6.1395 5.12935 6.1022 5.11562 6.06304C5.09503 5.98341 5.14866 5.9195 5.14866 5.9195C5.14866 5.9195 5.28028 5.77541 5.34149 5.69741C5.40108 5.62158 5.45145 5.54791 5.48395 5.49537C5.54787 5.39245 5.56791 5.28683 5.53433 5.20504C5.38266 4.83454 5.22558 4.46566 5.06416 4.0995C5.0322 4.02691 4.93741 3.97491 4.85128 3.96462C4.82203 3.96137 4.79278 3.95812 4.76353 3.95595C4.69079 3.95234 4.6179 3.95306 4.54524 3.95812L4.65412 3.95379L4.65466 3.95433Z" fill="black"/>
</svg>
