<svg width="13" height="13" viewBox="0 0 13 13" fill="none" xmlns="http://www.w3.org/2000/svg">
<path d="M6.50066 1.08325C9.49228 1.08325 11.9173 3.50829 11.9173 6.49992C11.9173 9.49154 9.49228 11.9166 6.50066 11.9166C5.54341 11.9181 4.60301 11.6648 3.77608 11.1826L1.08616 11.9166L1.81849 9.22558C1.33592 8.39839 1.08239 7.45758 1.08399 6.49992C1.08399 3.50829 3.50903 1.08325 6.50066 1.08325ZM4.65466 3.95409L4.54633 3.95842C4.47619 3.96269 4.40765 3.98112 4.34483 4.01259C4.28607 4.04586 4.23243 4.08746 4.18558 4.13609C4.12058 4.19729 4.08374 4.25038 4.0442 4.30184C3.84385 4.56232 3.73598 4.88213 3.73762 5.21075C3.7387 5.47617 3.80803 5.73454 3.91637 5.97613C4.13791 6.46471 4.50245 6.982 4.98345 7.46138C5.09937 7.57675 5.21312 7.69267 5.33553 7.80046C5.9332 8.32667 6.64542 8.70615 7.41553 8.90871L7.7232 8.95584C7.82341 8.96125 7.92362 8.95367 8.02437 8.94879C8.18212 8.94065 8.33616 8.89794 8.47558 8.82367C8.54651 8.78713 8.61573 8.74737 8.68303 8.7045C8.68303 8.7045 8.70633 8.68934 8.75074 8.65575C8.82387 8.60159 8.86883 8.56313 8.92949 8.49975C8.97445 8.45317 9.01345 8.39846 9.04324 8.33617C9.08549 8.24788 9.12774 8.07942 9.14507 7.93913C9.15808 7.83188 9.15428 7.77338 9.15266 7.73709C9.15049 7.67913 9.10228 7.619 9.04974 7.59354L8.73449 7.45217C8.73449 7.45217 8.26324 7.24688 7.97508 7.11579C7.94492 7.10263 7.91261 7.0951 7.87974 7.09359C7.84268 7.08978 7.80524 7.09395 7.76992 7.10581C7.7346 7.11768 7.70224 7.13697 7.67499 7.16238C7.67228 7.16129 7.63599 7.19217 7.24437 7.66667C7.22189 7.69687 7.19093 7.7197 7.15543 7.73224C7.11993 7.74478 7.0815 7.74647 7.04503 7.73709C7.00975 7.72762 6.97517 7.71568 6.94158 7.70134C6.87441 7.67317 6.85112 7.66234 6.80508 7.64284C6.49419 7.50717 6.20636 7.32387 5.95195 7.09954C5.8837 7.03996 5.82033 6.97496 5.75533 6.91213C5.54223 6.70804 5.35651 6.47717 5.20283 6.22529L5.17087 6.17384C5.14791 6.13926 5.12935 6.10196 5.11562 6.06279C5.09503 5.98317 5.14866 5.91925 5.14866 5.91925C5.14866 5.91925 5.28028 5.77517 5.34149 5.69717C5.40108 5.62134 5.45145 5.54767 5.48395 5.49513C5.54787 5.39221 5.56791 5.28659 5.53433 5.20479C5.38266 4.83429 5.22558 4.46542 5.06416 4.09925C5.0322 4.02667 4.93741 3.97467 4.85128 3.96438C4.82203 3.96113 4.79278 3.95788 4.76353 3.95571C4.69079 3.9521 4.6179 3.95282 4.54524 3.95788L4.65412 3.95354L4.65466 3.95409Z" fill="black"/>
</svg>
