<svg width="13" height="13" viewBox="0 0 13 13" fill="none" xmlns="http://www.w3.org/2000/svg">
<path d="M6.50054 1.0835C9.49216 1.0835 11.9172 3.50854 11.9172 6.50016C11.9172 9.49179 9.49216 11.9168 6.50054 11.9168C5.54329 11.9184 4.60289 11.665 3.77595 11.1829L1.08604 11.9168L1.81837 9.22583C1.3358 8.39864 1.08227 7.45783 1.08387 6.50016C1.08387 3.50854 3.50891 1.0835 6.50054 1.0835ZM4.65454 3.95433L4.5462 3.95866C4.47607 3.96293 4.40753 3.98136 4.3447 4.01283C4.28594 4.0461 4.23231 4.0877 4.18545 4.13633C4.12045 4.19754 4.08362 4.25062 4.04408 4.30208C3.84373 4.56257 3.73586 4.88237 3.73749 5.211C3.73858 5.47641 3.80791 5.73479 3.91624 5.97637C4.13779 6.46495 4.50233 6.98225 4.98333 7.46162C5.09925 7.577 5.213 7.69291 5.33541 7.8007C5.93308 8.32691 6.6453 8.70639 7.41541 8.90896L7.72308 8.95608C7.82329 8.9615 7.9235 8.95391 8.02425 8.94904C8.182 8.9409 8.33604 8.89818 8.47545 8.82391C8.54639 8.78738 8.61561 8.74761 8.68291 8.70475C8.68291 8.70475 8.7062 8.68958 8.75062 8.656C8.82375 8.60183 8.8687 8.56337 8.92937 8.5C8.97433 8.45341 9.01333 8.39871 9.04312 8.33641C9.08537 8.24812 9.12762 8.07966 9.14495 7.93937C9.15795 7.83212 9.15416 7.77362 9.15254 7.73733C9.15037 7.67937 9.10216 7.61925 9.04962 7.59379L8.73437 7.45241C8.73437 7.45241 8.26312 7.24712 7.97495 7.11604C7.9448 7.10287 7.91249 7.09534 7.87962 7.09383C7.84256 7.09002 7.80511 7.09419 7.7698 7.10606C7.73448 7.11792 7.70211 7.13721 7.67487 7.16262C7.67216 7.16154 7.63587 7.19241 7.24425 7.66691C7.22177 7.69712 7.1908 7.71994 7.1553 7.73248C7.1198 7.74503 7.08137 7.74671 7.04491 7.73733C7.00963 7.72787 6.97505 7.71592 6.94145 7.70158C6.87429 7.67341 6.851 7.66258 6.80495 7.64308C6.49407 7.50742 6.20624 7.32412 5.95183 7.09979C5.88358 7.04021 5.8202 6.9752 5.7552 6.91237C5.5421 6.70829 5.35639 6.47742 5.2027 6.22554L5.17074 6.17408C5.14779 6.1395 5.12923 6.1022 5.1155 6.06304C5.09491 5.98341 5.14854 5.9195 5.14854 5.9195C5.14854 5.9195 5.28016 5.77541 5.34137 5.69741C5.40095 5.62158 5.45133 5.54791 5.48383 5.49537C5.54774 5.39245 5.56779 5.28683 5.5342 5.20504C5.38254 4.83454 5.22545 4.46566 5.06404 4.0995C5.03208 4.02691 4.93729 3.97491 4.85116 3.96462C4.82191 3.96137 4.79266 3.95812 4.76341 3.95595C4.69067 3.95234 4.61778 3.95306 4.54512 3.95812L4.654 3.95379L4.65454 3.95433Z" fill="black"/>
</svg>
