<svg width="22" height="22" viewBox="0 0 22 22" fill="none" xmlns="http://www.w3.org/2000/svg">
<path d="M10.1857 2.18506C14.5426 2.18506 18.0787 5.72111 18.0787 10.078C18.0787 14.4349 14.5426 17.971 10.1857 17.971C5.82877 17.971 2.29272 14.4349 2.29272 10.078C2.29272 5.72111 5.82877 2.18506 10.1857 2.18506ZM10.1857 16.217C13.5775 16.217 16.3247 13.4698 16.3247 10.078C16.3247 6.68624 13.5775 3.93905 10.1857 3.93905C6.79391 3.93905 4.04672 6.68624 4.04672 10.078C4.04672 13.4698 6.79391 16.217 10.1857 16.217ZM17.6273 16.2793L20.1078 18.7598L18.8675 20.0001L16.387 17.5196L17.6273 16.2793Z" fill="white"/>
</svg>
