<svg width="22" height="22" viewBox="0 0 22 22" fill="none" xmlns="http://www.w3.org/2000/svg">
<path d="M10.1859 2.18506C14.5428 2.18506 18.0788 5.72111 18.0788 10.078C18.0788 14.4349 14.5428 17.971 10.1859 17.971C5.82896 17.971 2.29291 14.4349 2.29291 10.078C2.29291 5.72111 5.82896 2.18506 10.1859 2.18506ZM10.1859 16.217C13.5777 16.217 16.3248 13.4698 16.3248 10.078C16.3248 6.68624 13.5777 3.93905 10.1859 3.93905C6.79409 3.93905 4.0469 6.68624 4.0469 10.078C4.0469 13.4698 6.79409 16.217 10.1859 16.217ZM17.6274 16.2793L20.1079 18.7598L18.8677 20.0001L16.3872 17.5196L17.6274 16.2793Z" fill="white"/>
</svg>
