<svg width="25" height="25" viewBox="0 0 25 25" fill="none" xmlns="http://www.w3.org/2000/svg">
<g clip-path="url(#clip0_687_2576)">
<path opacity="0.15" d="M2.23926 23.4165C2.23926 23.556 2.50465 23.6942 3.02029 23.8231C3.53592 23.952 4.2917 24.0691 5.24446 24.1678C6.19723 24.2665 7.32833 24.3447 8.57318 24.3981C9.81803 24.4515 11.1523 24.479 12.4997 24.479C13.8471 24.479 15.1813 24.4515 16.4262 24.3981C17.671 24.3447 18.8021 24.2665 19.7549 24.1678C20.7077 24.0691 21.4634 23.952 21.9791 23.8231C22.4947 23.6942 22.7601 23.556 22.7601 23.4165C22.7601 23.277 22.4947 23.1388 21.9791 23.0099C21.4634 22.881 20.7077 22.7639 19.7549 22.6652C18.8021 22.5665 17.671 22.4883 16.4262 22.4349C15.1813 22.3815 13.8471 22.354 12.4997 22.354C11.1523 22.354 9.81803 22.3815 8.57318 22.4349C7.32833 22.4883 6.19723 22.5665 5.24446 22.6652C4.2917 22.7639 3.53592 22.881 3.02029 23.0099C2.50465 23.1388 2.23926 23.277 2.23926 23.4165Z" fill="#45413C"/>
<path d="M22.9165 2.99472C22.8518 2.77924 22.7347 2.58317 22.5756 2.42409C22.4166 2.26501 22.2205 2.1479 22.005 2.08326C16.2394 0.328055 9.98938 1.49993 5.72896 5.7291C1.46854 9.95826 0.322709 16.2395 2.08313 22.0103C2.14676 22.2249 2.26298 22.4202 2.42125 22.5785C2.57951 22.7367 2.7748 22.853 2.98938 22.9166C8.76021 24.677 15.005 23.5051 19.2706 19.2708C23.5363 15.0364 24.6717 8.76035 22.9165 2.99472Z" fill="#BF8256"/>
<path d="M5.72929 9.45826C9.97408 5.21347 16.2241 4.0416 21.9897 5.81243C22.1981 5.87705 22.3876 5.99144 22.5419 6.1457C22.6961 6.29997 22.8105 6.48947 22.8751 6.69785C23.2136 7.78946 23.4473 8.91085 23.573 10.0468C23.8343 7.67593 23.611 5.27668 22.9168 2.99472C22.8531 2.77962 22.7369 2.58371 22.5787 2.42462C22.4205 2.26553 22.2253 2.14823 22.0105 2.08326C16.2449 0.328055 9.99492 1.49993 5.72929 5.7291C4.07765 7.41469 2.82927 9.45251 2.07786 11.6896C1.32645 13.9267 1.09154 16.3049 1.39075 18.6458C1.74257 15.1769 3.27403 11.9338 5.72929 9.45826Z" fill="#DEA47A"/>
<path d="M22.9165 2.99472C22.8518 2.77924 22.7347 2.58317 22.5756 2.42409C22.4166 2.26501 22.2205 2.1479 22.005 2.08326C16.2394 0.328055 9.98938 1.49993 5.72896 5.7291C1.46854 9.95826 0.322709 16.2395 2.08313 22.0103C2.14676 22.2249 2.26298 22.4202 2.42125 22.5785C2.57951 22.7367 2.7748 22.853 2.98938 22.9166C8.76021 24.677 15.005 23.5051 19.2706 19.2708C23.5363 15.0364 24.6717 8.76035 22.9165 2.99472Z" stroke="#45413C" stroke-linecap="round" stroke-linejoin="round"/>
<path d="M22.9163 3.0835V2.99495C22.8526 2.77985 22.7364 2.58395 22.5782 2.42485C22.4201 2.26576 22.2248 2.14846 22.0101 2.0835H21.9215L2.08301 21.9168V22.0106C2.14712 22.2258 2.26414 22.4214 2.42336 22.5797C2.58257 22.7381 2.77892 22.8539 2.99447 22.9168H3.08301L22.9163 3.0835Z" fill="#915E3A" stroke="#45413C" stroke-linecap="round" stroke-linejoin="round"/>
<path d="M15.7553 7.74951L17.2584 9.25212L9.25163 17.2589L7.74902 15.7563L15.7553 7.74951Z" fill="#E0E0E0" stroke="#45413C" stroke-linecap="round" stroke-linejoin="round"/>
<path d="M11.0003 10.9998C11.1331 10.8675 11.3129 10.7932 11.5003 10.7932C11.6878 10.7932 11.8676 10.8675 12.0003 10.9998L14.0055 13.0207C14.0929 13.0789 14.1661 13.1558 14.2201 13.2458C14.2741 13.3358 14.3074 13.4367 14.3175 13.5412C14.3277 13.6456 14.3146 13.751 14.2791 13.8498C14.2435 13.9486 14.1865 14.0382 14.1121 14.1122C14.0377 14.1862 13.9478 14.2428 13.8488 14.2778C13.7499 14.3128 13.6444 14.3254 13.54 14.3146C13.4356 14.3039 13.3349 14.27 13.2452 14.2156C13.1554 14.1612 13.0789 14.0875 13.0212 13.9998L11.0003 11.979C10.8743 11.8472 10.8039 11.6718 10.8039 11.4894C10.8039 11.307 10.8743 11.1317 11.0003 10.9998ZM11.7503 16.255C11.6176 16.3874 11.4378 16.4616 11.2503 16.4616C11.0629 16.4616 10.8831 16.3874 10.7503 16.255L8.75032 14.2498C8.67817 14.1857 8.61989 14.1075 8.57905 14.0201C8.53821 13.9326 8.51568 13.8377 8.51284 13.7412C8.51 13.6447 8.52691 13.5487 8.56253 13.459C8.59815 13.3693 8.65174 13.2878 8.72 13.2195C8.78825 13.1513 8.86974 13.0977 8.95945 13.062C9.04917 13.0264 9.14522 13.0095 9.2417 13.0123C9.33819 13.0152 9.43308 13.0377 9.52054 13.0786C9.60801 13.1194 9.6862 13.1777 9.75032 13.2498L11.7503 15.255C11.8826 15.3878 11.9569 15.5676 11.9569 15.755C11.9569 15.9425 11.8826 16.1223 11.7503 16.255ZM16.2555 11.7498C16.1228 11.8821 15.943 11.9564 15.7555 11.9564C15.5681 11.9564 15.3883 11.8821 15.2555 11.7498L13.2555 9.74984C13.1834 9.68571 13.1251 9.60752 13.0843 9.52006C13.0434 9.43259 13.0209 9.3377 13.018 9.24122C13.0152 9.14473 13.0321 9.04868 13.0677 8.95897C13.1034 8.86925 13.1569 8.78776 13.2252 8.71951C13.2935 8.65125 13.3749 8.59767 13.4647 8.56204C13.5544 8.52642 13.6504 8.50951 13.7469 8.51235C13.8434 8.51519 13.9383 8.53772 14.0258 8.57856C14.1132 8.6194 14.1914 8.67768 14.2555 8.74984L16.2555 10.7498C16.3878 10.8826 16.4621 11.0624 16.4621 11.2498C16.4621 11.4373 16.3878 11.6171 16.2555 11.7498ZM23.693 8.17692L20.7607 5.24463L18.2555 7.74463L23.1097 12.604C23.5051 11.1618 23.7013 9.67231 23.693 8.17692ZM7.75033 18.255L5.24512 20.755L8.18262 23.6925C9.67629 23.7008 11.1641 23.5046 12.6045 23.1092L7.75033 18.255Z" fill="#F0F0F0" stroke="#45413C" stroke-linecap="round" stroke-linejoin="round"/>
<path d="M1.31277 16.8228L4.24506 19.755L6.7711 17.255L1.8961 12.4009C1.50044 13.8412 1.30417 15.3291 1.31277 16.8228Z" fill="#F0F0F0"/>
<path d="M2.92157 13.4219C2.33479 14.6155 1.90919 15.8818 1.65595 17.1875L1.31741 16.849C1.30061 15.3534 1.49524 13.863 1.89553 12.4219L2.92157 13.4219Z" fill="white"/>
<path d="M19.7549 4.24504L17.2601 6.77108L12.3955 1.89087C13.8343 1.49564 15.3201 1.29765 16.8122 1.30233L19.7549 4.24504Z" fill="#F0F0F0"/>
<path d="M19.7549 4.24504L17.2601 6.77108L12.3955 1.89087C13.8343 1.49564 15.3201 1.29765 16.8122 1.30233L19.7549 4.24504Z" fill="#F0F0F0"/>
<path d="M19.7549 4.24501L18.859 5.14605C17.7684 5.01792 16.6685 4.98829 15.5726 5.05751L12.3955 1.89084C13.8345 1.4965 15.3202 1.29852 16.8122 1.3023L19.7549 4.24501Z" fill="white"/>
<path d="M19.7555 4.24504L17.2607 6.77108L12.3961 1.89087C13.8349 1.49564 15.3207 1.29765 16.8128 1.30233L19.7555 4.24504ZM1.31277 16.8232L4.24506 19.7555L6.7711 17.2555L1.8961 12.4013C1.50044 13.8416 1.30417 15.3295 1.31277 16.8232Z" stroke="#45413C" stroke-linecap="round" stroke-linejoin="round"/>
</g>
<defs>
<clipPath id="clip0_687_2576">
<rect width="25" height="25" fill="white"/>
</clipPath>
</defs>
</svg>
