<svg width="25" height="25" viewBox="0 0 25 25" fill="none" xmlns="http://www.w3.org/2000/svg">
<g clip-path="url(#clip0_687_529)">
<path opacity="0.15" d="M2.23926 23.4167C2.23926 23.5563 2.50465 23.6944 3.02029 23.8233C3.53592 23.9523 4.2917 24.0694 5.24446 24.168C6.19723 24.2667 7.32833 24.345 8.57318 24.3984C9.81803 24.4518 11.1523 24.4792 12.4997 24.4792C13.8471 24.4792 15.1813 24.4518 16.4262 24.3984C17.671 24.345 18.8021 24.2667 19.7549 24.168C20.7077 24.0694 21.4634 23.9523 21.9791 23.8233C22.4947 23.6944 22.7601 23.5563 22.7601 23.4167C22.7601 23.2772 22.4947 23.1391 21.9791 23.0101C21.4634 22.8812 20.7077 22.7641 19.7549 22.6654C18.8021 22.5668 17.671 22.4885 16.4262 22.4351C15.1813 22.3817 13.8471 22.3542 12.4997 22.3542C11.1523 22.3542 9.81803 22.3817 8.57318 22.4351C7.32833 22.4885 6.19723 22.5668 5.24446 22.6654C4.2917 22.7641 3.53592 22.8812 3.02029 23.0101C2.50465 23.1391 2.23926 23.2772 2.23926 23.4167Z" fill="#45413C"/>
<path d="M22.9165 2.99472C22.8518 2.77924 22.7347 2.58317 22.5756 2.42409C22.4166 2.26501 22.2205 2.1479 22.005 2.08326C16.2394 0.328055 9.98938 1.49993 5.72896 5.7291C1.46854 9.95826 0.322709 16.2395 2.08313 22.0103C2.14676 22.2249 2.26298 22.4202 2.42125 22.5785C2.57951 22.7367 2.7748 22.853 2.98938 22.9166C8.76021 24.677 15.005 23.5051 19.2706 19.2708C23.5363 15.0364 24.6717 8.76035 22.9165 2.99472Z" fill="#BF8256"/>
<path d="M5.72929 9.45826C9.97408 5.21347 16.2241 4.0416 21.9897 5.81243C22.1981 5.87705 22.3876 5.99144 22.5419 6.1457C22.6961 6.29997 22.8105 6.48947 22.8751 6.69785C23.2136 7.78946 23.4473 8.91085 23.573 10.0468C23.8343 7.67593 23.611 5.27668 22.9168 2.99472C22.8531 2.77962 22.7369 2.58371 22.5787 2.42462C22.4205 2.26553 22.2253 2.14823 22.0105 2.08326C16.2449 0.328055 9.99492 1.49993 5.72929 5.7291C4.07765 7.41469 2.82927 9.45251 2.07786 11.6896C1.32645 13.9267 1.09154 16.3049 1.39075 18.6458C1.74257 15.1769 3.27403 11.9338 5.72929 9.45826Z" fill="#DEA47A"/>
<path d="M22.9165 2.99472C22.8518 2.77924 22.7347 2.58317 22.5756 2.42409C22.4166 2.26501 22.2205 2.1479 22.005 2.08326C16.2394 0.328055 9.98938 1.49993 5.72896 5.7291C1.46854 9.95826 0.322709 16.2395 2.08313 22.0103C2.14676 22.2249 2.26298 22.4202 2.42125 22.5785C2.57951 22.7367 2.7748 22.853 2.98938 22.9166C8.76021 24.677 15.005 23.5051 19.2706 19.2708C23.5363 15.0364 24.6717 8.76035 22.9165 2.99472Z" stroke="#45413C" stroke-linecap="round" stroke-linejoin="round"/>
<path d="M22.9163 3.08325V2.99471C22.8526 2.7796 22.7364 2.5837 22.5782 2.42461C22.4201 2.26552 22.2248 2.14822 22.0101 2.08325H21.9215L2.08301 21.9166V22.0103C2.14712 22.2255 2.26414 22.4212 2.42336 22.5795C2.58257 22.7378 2.77892 22.8537 2.99447 22.9166H3.08301L22.9163 3.08325Z" fill="#915E3A" stroke="#45413C" stroke-linecap="round" stroke-linejoin="round"/>
<path d="M15.7553 7.74951L17.2584 9.25212L9.25163 17.2589L7.74902 15.7563L15.7553 7.74951Z" fill="#E0E0E0" stroke="#45413C" stroke-linecap="round" stroke-linejoin="round"/>
<path d="M11.0003 11.0001C11.1331 10.8678 11.3129 10.7935 11.5003 10.7935C11.6878 10.7935 11.8676 10.8678 12.0003 11.0001L14.0055 13.0209C14.0929 13.0791 14.1661 13.156 14.2201 13.2461C14.2741 13.3361 14.3074 13.437 14.3175 13.5414C14.3277 13.6459 14.3146 13.7513 14.2791 13.85C14.2435 13.9488 14.1865 14.0384 14.1121 14.1124C14.0377 14.1865 13.9478 14.243 13.8488 14.278C13.7499 14.313 13.6444 14.3256 13.54 14.3149C13.4356 14.3041 13.3349 14.2703 13.2452 14.2158C13.1554 14.1614 13.0789 14.0877 13.0212 14.0001L11.0003 11.9792C10.8743 11.8474 10.8039 11.6721 10.8039 11.4897C10.8039 11.3073 10.8743 11.1319 11.0003 11.0001ZM11.7503 16.2553C11.6176 16.3876 11.4378 16.4619 11.2503 16.4619C11.0629 16.4619 10.8831 16.3876 10.7503 16.2553L8.75032 14.2501C8.67817 14.186 8.61989 14.1078 8.57905 14.0203C8.53821 13.9328 8.51568 13.8379 8.51284 13.7415C8.51 13.645 8.52691 13.5489 8.56253 13.4592C8.59815 13.3695 8.65174 13.288 8.72 13.2198C8.78825 13.1515 8.86974 13.0979 8.95945 13.0623C9.04917 13.0267 9.14522 13.0098 9.2417 13.0126C9.33819 13.0154 9.43308 13.038 9.52054 13.0788C9.60801 13.1196 9.6862 13.1779 9.75032 13.2501L11.7503 15.2553C11.8826 15.3881 11.9569 15.5679 11.9569 15.7553C11.9569 15.9427 11.8826 16.1225 11.7503 16.2553ZM16.2555 11.7501C16.1228 11.8824 15.943 11.9567 15.7555 11.9567C15.5681 11.9567 15.3883 11.8824 15.2555 11.7501L13.2555 9.75008C13.1834 9.68596 13.1251 9.60776 13.0843 9.5203C13.0434 9.43284 13.0209 9.33795 13.018 9.24146C13.0152 9.14497 13.0321 9.04892 13.0677 8.95921C13.1034 8.86949 13.1569 8.78801 13.2252 8.71975C13.2935 8.65149 13.3749 8.59791 13.4647 8.56229C13.5544 8.52666 13.6504 8.50975 13.7469 8.51259C13.8434 8.51543 13.9383 8.53796 14.0258 8.5788C14.1132 8.61964 14.1914 8.67793 14.2555 8.75008L16.2555 10.7501C16.3878 10.8828 16.4621 11.0626 16.4621 11.2501C16.4621 11.4375 16.3878 11.6173 16.2555 11.7501ZM23.693 8.17716L20.7607 5.24487L18.2555 7.74487L23.1097 12.6042C23.5051 11.162 23.7013 9.67255 23.693 8.17716ZM7.75033 18.2553L5.24512 20.7553L8.18262 23.6928C9.67629 23.7011 11.1641 23.5048 12.6045 23.1095L7.75033 18.2553Z" fill="#F0F0F0" stroke="#45413C" stroke-linecap="round" stroke-linejoin="round"/>
<path d="M1.31277 16.823L4.24506 19.7553L6.7711 17.2553L1.8961 12.4011C1.50044 13.8415 1.30417 15.3293 1.31277 16.823Z" fill="#F0F0F0"/>
<path d="M2.92157 13.4219C2.33479 14.6155 1.90919 15.8818 1.65595 17.1875L1.31741 16.849C1.30061 15.3534 1.49524 13.863 1.89553 12.4219L2.92157 13.4219Z" fill="white"/>
<path d="M19.7549 4.24479L17.2601 6.77083L12.3955 1.89062C13.8343 1.4954 15.3201 1.29741 16.8122 1.30208L19.7549 4.24479Z" fill="#F0F0F0"/>
<path d="M19.7549 4.24479L17.2601 6.77083L12.3955 1.89062C13.8343 1.4954 15.3201 1.29741 16.8122 1.30208L19.7549 4.24479Z" fill="#F0F0F0"/>
<path d="M19.7549 4.24476L18.859 5.14581C17.7684 5.01768 16.6685 4.98804 15.5726 5.05726L12.3955 1.8906C13.8345 1.49625 15.3202 1.29828 16.8122 1.30206L19.7549 4.24476Z" fill="white"/>
<path d="M19.7555 4.24479L17.2607 6.77083L12.3961 1.89062C13.8349 1.4954 15.3207 1.29741 16.8128 1.30208L19.7555 4.24479ZM1.31277 16.8229L4.24506 19.7552L6.7711 17.2552L1.8961 12.401C1.50044 13.8414 1.30417 15.3292 1.31277 16.8229Z" stroke="#45413C" stroke-linecap="round" stroke-linejoin="round"/>
</g>
<defs>
<clipPath id="clip0_687_529">
<rect width="25" height="25" fill="white"/>
</clipPath>
</defs>
</svg>
