<svg width="25" height="25" viewBox="0 0 25 25" fill="none" xmlns="http://www.w3.org/2000/svg">
<g clip-path="url(#clip0_687_2967)">
<path opacity="0.15" d="M2.23956 23.4165C2.23956 23.556 2.50496 23.6942 3.02059 23.8231C3.53622 23.952 4.292 24.0691 5.24477 24.1678C6.19754 24.2665 7.32864 24.3447 8.57349 24.3981C9.81834 24.4515 11.1526 24.479 12.5 24.479C13.8474 24.479 15.1816 24.4515 16.4265 24.3981C17.6713 24.3447 18.8024 24.2665 19.7552 24.1678C20.708 24.0691 21.4637 23.952 21.9794 23.8231C22.495 23.6942 22.7604 23.556 22.7604 23.4165C22.7604 23.277 22.495 23.1388 21.9794 23.0099C21.4637 22.881 20.708 22.7639 19.7552 22.6652C18.8024 22.5665 17.6713 22.4883 16.4265 22.4349C15.1816 22.3815 13.8474 22.354 12.5 22.354C11.1526 22.354 9.81834 22.3815 8.57349 22.4349C7.32864 22.4883 6.19754 22.5665 5.24477 22.6652C4.292 22.7639 3.53622 22.881 3.02059 23.0099C2.50496 23.1388 2.23956 23.277 2.23956 23.4165Z" fill="#45413C"/>
<path d="M22.9166 2.99472C22.852 2.77924 22.7349 2.58317 22.5758 2.42409C22.4167 2.26501 22.2207 2.1479 22.0052 2.08326C16.2396 0.328055 9.98956 1.49993 5.72914 5.7291C1.46873 9.95826 0.322892 16.2395 2.08331 22.0103C2.14694 22.2249 2.26317 22.4202 2.42143 22.5785C2.57969 22.7367 2.77498 22.853 2.98956 22.9166C8.76039 24.677 15.0052 23.5051 19.2708 19.2708C23.5364 15.0364 24.6719 8.76035 22.9166 2.99472Z" fill="#BF8256"/>
<path d="M5.72917 9.45826C9.97396 5.21347 16.224 4.0416 21.9896 5.81243C22.198 5.87705 22.3875 5.99144 22.5417 6.1457C22.696 6.29997 22.8104 6.48947 22.875 6.69785C23.2135 7.78946 23.4472 8.91085 23.5729 10.0468C23.8342 7.67593 23.6109 5.27668 22.9167 2.99472C22.8529 2.77962 22.7368 2.58371 22.5786 2.42462C22.4204 2.26553 22.2252 2.14823 22.0104 2.08326C16.2448 0.328055 9.99479 1.49993 5.72917 5.7291C4.07752 7.41469 2.82915 9.45251 2.07774 11.6896C1.32633 13.9267 1.09142 16.3049 1.39063 18.6458C1.74245 15.1769 3.27391 11.9338 5.72917 9.45826Z" fill="#DEA47A"/>
<path d="M22.9166 2.99472C22.852 2.77924 22.7349 2.58317 22.5758 2.42409C22.4167 2.26501 22.2207 2.1479 22.0052 2.08326C16.2396 0.328055 9.98956 1.49993 5.72914 5.7291C1.46873 9.95826 0.322892 16.2395 2.08331 22.0103C2.14694 22.2249 2.26317 22.4202 2.42143 22.5785C2.57969 22.7367 2.77498 22.853 2.98956 22.9166C8.76039 24.677 15.0052 23.5051 19.2708 19.2708C23.5364 15.0364 24.6719 8.76035 22.9166 2.99472Z" stroke="#45413C" stroke-linecap="round" stroke-linejoin="round"/>
<path d="M22.9166 3.0835V2.99495C22.8529 2.77985 22.7367 2.58395 22.5786 2.42485C22.4204 2.26576 22.2251 2.14846 22.0104 2.0835H21.9219L2.08331 21.9168V22.0106C2.14743 22.2258 2.26444 22.4214 2.42366 22.5797C2.58288 22.7381 2.77923 22.8539 2.99477 22.9168H3.08331L22.9166 3.0835Z" fill="#915E3A" stroke="#45413C" stroke-linecap="round" stroke-linejoin="round"/>
<path d="M15.7552 7.74951L17.2583 9.25212L9.25157 17.2589L7.74896 15.7563L15.7552 7.74951Z" fill="#E0E0E0" stroke="#45413C" stroke-linecap="round" stroke-linejoin="round"/>
<path d="M11 10.9998C11.1328 10.8675 11.3126 10.7932 11.5 10.7932C11.6875 10.7932 11.8673 10.8675 12 10.9998L14.0052 13.0207C14.0925 13.0789 14.1658 13.1558 14.2198 13.2458C14.2738 13.3358 14.307 13.4367 14.3172 13.5412C14.3274 13.6456 14.3143 13.751 14.2788 13.8498C14.2432 13.9486 14.1862 14.0382 14.1118 14.1122C14.0374 14.1862 13.9475 14.2428 13.8485 14.2778C13.7496 14.3128 13.6441 14.3254 13.5397 14.3146C13.4353 14.3039 13.3346 14.27 13.2449 14.2156C13.1551 14.1612 13.0786 14.0875 13.0209 13.9998L11 11.979C10.874 11.8472 10.8036 11.6718 10.8036 11.4894C10.8036 11.307 10.874 11.1317 11 10.9998ZM11.75 16.255C11.6173 16.3874 11.4375 16.4616 11.25 16.4616C11.0626 16.4616 10.8828 16.3874 10.75 16.255L8.75002 14.2498C8.67787 14.1857 8.61958 14.1075 8.57874 14.0201C8.5379 13.9326 8.51537 13.8377 8.51253 13.7412C8.50969 13.6447 8.5266 13.5487 8.56223 13.459C8.59785 13.3693 8.65143 13.2878 8.71969 13.2195C8.78795 13.1513 8.86943 13.0977 8.95915 13.062C9.04886 13.0264 9.14491 13.0095 9.2414 13.0123C9.33789 13.0152 9.43277 13.0377 9.52024 13.0786C9.6077 13.1194 9.6859 13.1777 9.75002 13.2498L11.75 15.255C11.8823 15.3878 11.9566 15.5676 11.9566 15.755C11.9566 15.9425 11.8823 16.1223 11.75 16.255ZM16.2552 11.7498C16.1225 11.8821 15.9427 11.9564 15.7552 11.9564C15.5678 11.9564 15.388 11.8821 15.2552 11.7498L13.2552 9.74984C13.1831 9.68571 13.1248 9.60752 13.0839 9.52006C13.0431 9.43259 13.0206 9.3377 13.0177 9.24122C13.0149 9.14473 13.0318 9.04868 13.0674 8.95897C13.1031 8.86925 13.1566 8.78776 13.2249 8.71951C13.2932 8.65125 13.3746 8.59767 13.4644 8.56204C13.5541 8.52642 13.6501 8.50951 13.7466 8.51235C13.8431 8.51519 13.938 8.53772 14.0254 8.57856C14.1129 8.6194 14.1911 8.67768 14.2552 8.74984L16.2552 10.7498C16.3875 10.8826 16.4618 11.0624 16.4618 11.2498C16.4618 11.4373 16.3875 11.6171 16.2552 11.7498ZM23.6927 8.17692L20.7604 5.24463L18.2552 7.74463L23.1094 12.604C23.5048 11.1618 23.701 9.67231 23.6927 8.17692ZM7.75002 18.255L5.24481 20.755L8.18231 23.6925C9.67598 23.7008 11.1638 23.5046 12.6042 23.1092L7.75002 18.255Z" fill="#F0F0F0" stroke="#45413C" stroke-linecap="round" stroke-linejoin="round"/>
<path d="M1.31253 16.8228L4.24482 19.755L6.77086 17.255L1.89586 12.4009C1.5002 13.8412 1.30393 15.3291 1.31253 16.8228Z" fill="#F0F0F0"/>
<path d="M2.92188 13.4219C2.33509 14.6155 1.90949 15.8818 1.65625 17.1875L1.31771 16.849C1.30091 15.3534 1.49554 13.863 1.89584 12.4219L2.92188 13.4219Z" fill="white"/>
<path d="M19.7552 4.24504L17.2604 6.77108L12.3958 1.89087C13.8346 1.49564 15.3204 1.29765 16.8125 1.30233L19.7552 4.24504Z" fill="#F0F0F0"/>
<path d="M19.7552 4.24504L17.2604 6.77108L12.3958 1.89087C13.8346 1.49564 15.3204 1.29765 16.8125 1.30233L19.7552 4.24504Z" fill="#F0F0F0"/>
<path d="M19.7552 4.24501L18.8594 5.14605C17.7687 5.01792 16.6688 4.98829 15.5729 5.05751L12.3958 1.89084C13.8348 1.4965 15.3205 1.29852 16.8125 1.3023L19.7552 4.24501Z" fill="white"/>
<path d="M19.7552 4.24504L17.2604 6.77108L12.3959 1.89087C13.8346 1.49564 15.3204 1.29765 16.8125 1.30233L19.7552 4.24504ZM1.31253 16.8232L4.24482 19.7555L6.77086 17.2555L1.89586 12.4013C1.5002 13.8416 1.30393 15.3295 1.31253 16.8232Z" stroke="#45413C" stroke-linecap="round" stroke-linejoin="round"/>
</g>
<defs>
<clipPath id="clip0_687_2967">
<rect width="25" height="25" fill="white"/>
</clipPath>
</defs>
</svg>
