<svg width="25" height="25" viewBox="0 0 25 25" fill="none" xmlns="http://www.w3.org/2000/svg">
<g clip-path="url(#clip0_186_5775)">
<path opacity="0.15" d="M2.23975 23.4165C2.23975 23.556 2.50514 23.6942 3.02077 23.8231C3.53641 23.952 4.29218 24.0691 5.24495 24.1678C6.19772 24.2665 7.32882 24.3447 8.57367 24.3981C9.81852 24.4515 11.1527 24.479 12.5002 24.479C13.8476 24.479 15.1818 24.4515 16.4267 24.3981C17.6715 24.3447 18.8026 24.2665 19.7554 24.1678C20.7081 24.0691 21.4639 23.952 21.9796 23.8231C22.4952 23.6942 22.7606 23.556 22.7606 23.4165C22.7606 23.277 22.4952 23.1388 21.9796 23.0099C21.4639 22.881 20.7081 22.7639 19.7554 22.6652C18.8026 22.5665 17.6715 22.4883 16.4267 22.4349C15.1818 22.3815 13.8476 22.354 12.5002 22.354C11.1527 22.354 9.81852 22.3815 8.57367 22.4349C7.32882 22.4883 6.19772 22.5665 5.24495 22.6652C4.29218 22.7639 3.53641 22.881 3.02077 23.0099C2.50514 23.1388 2.23975 23.277 2.23975 23.4165Z" fill="#45413C"/>
<path d="M22.9165 2.99472C22.8518 2.77924 22.7347 2.58317 22.5756 2.42409C22.4166 2.26501 22.2205 2.1479 22.005 2.08326C16.2394 0.328055 9.98938 1.49993 5.72896 5.7291C1.46854 9.95826 0.322709 16.2395 2.08313 22.0103C2.14676 22.2249 2.26298 22.4202 2.42125 22.5785C2.57951 22.7367 2.7748 22.853 2.98938 22.9166C8.76021 24.677 15.005 23.5051 19.2706 19.2708C23.5363 15.0364 24.6717 8.76035 22.9165 2.99472Z" fill="#BF8256"/>
<path d="M5.72929 9.45826C9.97408 5.21347 16.2241 4.0416 21.9897 5.81243C22.1981 5.87705 22.3876 5.99144 22.5419 6.1457C22.6961 6.29997 22.8105 6.48947 22.8751 6.69785C23.2136 7.78946 23.4473 8.91085 23.573 10.0468C23.8343 7.67593 23.611 5.27668 22.9168 2.99472C22.8531 2.77962 22.7369 2.58371 22.5787 2.42462C22.4205 2.26553 22.2253 2.14823 22.0105 2.08326C16.2449 0.328055 9.99492 1.49993 5.72929 5.7291C4.07765 7.41469 2.82927 9.45251 2.07786 11.6896C1.32645 13.9267 1.09154 16.3049 1.39075 18.6458C1.74257 15.1769 3.27403 11.9338 5.72929 9.45826Z" fill="#DEA47A"/>
<path d="M22.9165 2.99472C22.8518 2.77924 22.7347 2.58317 22.5756 2.42409C22.4166 2.26501 22.2205 2.1479 22.005 2.08326C16.2394 0.328055 9.98938 1.49993 5.72896 5.7291C1.46854 9.95826 0.322709 16.2395 2.08313 22.0103C2.14676 22.2249 2.26298 22.4202 2.42125 22.5785C2.57951 22.7367 2.7748 22.853 2.98938 22.9166C8.76021 24.677 15.005 23.5051 19.2706 19.2708C23.5363 15.0364 24.6717 8.76035 22.9165 2.99472Z" stroke="#45413C" stroke-linecap="round" stroke-linejoin="round"/>
<path d="M22.9168 3.0835V2.99495C22.8531 2.77985 22.7369 2.58395 22.5787 2.42485C22.4205 2.26576 22.2253 2.14846 22.0106 2.0835H21.922L2.0835 21.9168V22.0106C2.14761 22.2258 2.26463 22.4214 2.42384 22.5797C2.58306 22.7381 2.77941 22.8539 2.99495 22.9168H3.0835L22.9168 3.0835Z" fill="#915E3A" stroke="#45413C" stroke-linecap="round" stroke-linejoin="round"/>
<path d="M15.7553 7.74951L17.2584 9.25212L9.25163 17.2589L7.74902 15.7563L15.7553 7.74951Z" fill="#E0E0E0" stroke="#45413C" stroke-linecap="round" stroke-linejoin="round"/>
<path d="M10.9998 10.9998C11.1326 10.8675 11.3124 10.7932 11.4998 10.7932C11.6873 10.7932 11.8671 10.8675 11.9998 10.9998L14.005 13.0207C14.0924 13.0789 14.1657 13.1558 14.2196 13.2458C14.2736 13.3358 14.3069 13.4367 14.3171 13.5412C14.3273 13.6456 14.3141 13.751 14.2786 13.8498C14.2431 13.9486 14.186 14.0382 14.1116 14.1122C14.0372 14.1862 13.9473 14.2428 13.8483 14.2778C13.7494 14.3128 13.6439 14.3254 13.5395 14.3146C13.4351 14.3039 13.3344 14.27 13.2447 14.2156C13.1549 14.1612 13.0784 14.0875 13.0207 13.9998L10.9998 11.979C10.8738 11.8472 10.8034 11.6718 10.8034 11.4894C10.8034 11.307 10.8738 11.1317 10.9998 10.9998ZM11.7498 16.255C11.6171 16.3874 11.4373 16.4616 11.2498 16.4616C11.0624 16.4616 10.8826 16.3874 10.7498 16.255L8.74984 14.2498C8.67768 14.1857 8.6194 14.1075 8.57856 14.0201C8.53772 13.9326 8.51519 13.8377 8.51235 13.7412C8.50951 13.6447 8.52642 13.5487 8.56204 13.459C8.59767 13.3693 8.65125 13.2878 8.71951 13.2195C8.78776 13.1513 8.86925 13.0977 8.95897 13.062C9.04868 13.0264 9.14473 13.0095 9.24122 13.0123C9.3377 13.0152 9.43259 13.0377 9.52006 13.0786C9.60752 13.1194 9.68571 13.1777 9.74984 13.2498L11.7498 15.255C11.8821 15.3878 11.9564 15.5676 11.9564 15.755C11.9564 15.9425 11.8821 16.1223 11.7498 16.255ZM16.255 11.7498C16.1223 11.8821 15.9425 11.9564 15.755 11.9564C15.5676 11.9564 15.3878 11.8821 15.255 11.7498L13.255 9.74984C13.1829 9.68571 13.1246 9.60752 13.0838 9.52006C13.0429 9.43259 13.0204 9.3377 13.0176 9.24122C13.0147 9.14473 13.0316 9.04868 13.0672 8.95897C13.1029 8.86925 13.1565 8.78776 13.2247 8.71951C13.293 8.65125 13.3745 8.59767 13.4642 8.56204C13.5539 8.52642 13.6499 8.50951 13.7464 8.51235C13.8429 8.51519 13.9378 8.53772 14.0253 8.57856C14.1127 8.6194 14.1909 8.67768 14.255 8.74984L16.255 10.7498C16.3874 10.8826 16.4616 11.0624 16.4616 11.2498C16.4616 11.4373 16.3874 11.6171 16.255 11.7498ZM23.6925 8.17692L20.7603 5.24463L18.255 7.74463L23.1092 12.604C23.5046 11.1618 23.7008 9.67231 23.6925 8.17692ZM7.74984 18.255L5.24463 20.755L8.18213 23.6925C9.6758 23.7008 11.1636 23.5046 12.604 23.1092L7.74984 18.255Z" fill="#F0F0F0" stroke="#45413C" stroke-linecap="round" stroke-linejoin="round"/>
<path d="M1.31228 16.8228L4.24457 19.755L6.77062 17.255L1.89562 12.4009C1.49996 13.8412 1.30368 15.3291 1.31228 16.8228Z" fill="#F0F0F0"/>
<path d="M2.92206 13.4219C2.33527 14.6155 1.90968 15.8818 1.65644 17.1875L1.3179 16.849C1.30109 15.3534 1.49573 13.863 1.89602 12.4219L2.92206 13.4219Z" fill="white"/>
<path d="M19.7554 4.24504L17.2606 6.77108L12.396 1.89087C13.8348 1.49564 15.3206 1.29765 16.8127 1.30233L19.7554 4.24504Z" fill="#F0F0F0"/>
<path d="M19.7554 4.24504L17.2606 6.77108L12.396 1.89087C13.8348 1.49564 15.3206 1.29765 16.8127 1.30233L19.7554 4.24504Z" fill="#F0F0F0"/>
<path d="M19.7554 4.24501L18.8595 5.14605C17.7689 5.01792 16.669 4.98829 15.5731 5.05751L12.396 1.89084C13.835 1.4965 15.3206 1.29852 16.8127 1.3023L19.7554 4.24501Z" fill="white"/>
<path d="M19.755 4.24504L17.2602 6.77108L12.3956 1.89087C13.8344 1.49564 15.3202 1.29765 16.8123 1.30233L19.755 4.24504ZM1.31228 16.8232L4.24457 19.7555L6.77062 17.2555L1.89562 12.4013C1.49996 13.8416 1.30368 15.3295 1.31228 16.8232Z" stroke="#45413C" stroke-linecap="round" stroke-linejoin="round"/>
</g>
<defs>
<clipPath id="clip0_186_5775">
<rect width="25" height="25" fill="white"/>
</clipPath>
</defs>
</svg>
