<svg width="25" height="25" viewBox="0 0 25 25" fill="none" xmlns="http://www.w3.org/2000/svg">
<g clip-path="url(#clip0_687_1508)">
<path d="M12.5 25C19.4036 25 25 19.4036 25 12.5C25 5.59644 19.4036 0 12.5 0C5.59644 0 0 5.59644 0 12.5C0 19.4036 5.59644 25 12.5 25Z" fill="#F5F8FA"/>
<path d="M12.5 7.63895C12.3158 7.63895 12.1392 7.56579 12.0089 7.43555C11.8787 7.30532 11.8055 7.12868 11.8055 6.94451V2.0834C11.8055 1.89922 11.8787 1.72258 12.0089 1.59235C12.1392 1.46211 12.3158 1.38895 12.5 1.38895C12.6842 1.38895 12.8608 1.46211 12.991 1.59235C13.1213 1.72258 13.1944 1.89922 13.1944 2.0834V6.94451C13.1944 7.12868 13.1213 7.30532 12.991 7.43555C12.8608 7.56579 12.6842 7.63895 12.5 7.63895ZM7.92845 10.764C7.85728 10.764 7.78653 10.753 7.71873 10.7313L2.1347 8.96603C1.95909 8.91051 1.81273 8.78749 1.72782 8.62404C1.6429 8.4606 1.6264 8.27012 1.68193 8.09451C1.73746 7.91889 1.86047 7.77253 2.02392 7.68762C2.18736 7.60271 2.37784 7.5862 2.55345 7.64173L8.13818 9.40701C8.2966 9.45679 8.43193 9.5617 8.51965 9.7027C8.60736 9.8437 8.64164 10.0115 8.61628 10.1756C8.59091 10.3397 8.50758 10.4893 8.38139 10.5972C8.2552 10.7052 8.09451 10.7643 7.92845 10.764ZM17.3903 10.5619C17.2235 10.561 17.0626 10.5001 16.9369 10.3904C16.8112 10.2807 16.7292 10.1295 16.7058 9.96431C16.6824 9.79916 16.7192 9.6311 16.8094 9.49079C16.8996 9.35049 17.0372 9.2473 17.1972 9.20006L21.8847 7.84034C22.0608 7.79175 22.2489 7.8145 22.4084 7.90366C22.5678 7.99282 22.6857 8.14122 22.7365 8.31669C22.7873 8.49217 22.7669 8.68059 22.6797 8.84113C22.5926 9.00167 22.4456 9.12139 22.2708 9.17437L17.5833 10.5341C17.5206 10.5525 17.4556 10.5618 17.3903 10.5619ZM18.7798 20.9494C18.6715 20.9494 18.5647 20.9242 18.4678 20.8756C18.371 20.827 18.2869 20.7564 18.2222 20.6695L14.4312 15.5771C14.3746 15.5042 14.3332 15.4206 14.3093 15.3314C14.2853 15.2422 14.2795 15.1492 14.292 15.0577C14.3044 14.9662 14.3351 14.8781 14.382 14.7986C14.4289 14.7191 14.4913 14.6497 14.5654 14.5946C14.6394 14.5394 14.7238 14.4996 14.8134 14.4774C14.9031 14.4553 14.9962 14.4512 15.0875 14.4655C15.1787 14.4798 15.2662 14.5121 15.3447 14.5606C15.4233 14.6091 15.4914 14.6728 15.5451 14.748L19.3361 19.8403C19.4129 19.9436 19.4595 20.0661 19.4708 20.1943C19.482 20.3225 19.4574 20.4513 19.3997 20.5663C19.342 20.6813 19.2535 20.778 19.1441 20.8457C19.0346 20.9133 18.9085 20.9492 18.7798 20.9494ZM6.07568 20.8917C5.94887 20.8916 5.82453 20.8568 5.71612 20.791C5.60771 20.7252 5.51938 20.631 5.46071 20.5186C5.40203 20.4062 5.37526 20.2799 5.38328 20.1533C5.39131 20.0268 5.43383 19.9049 5.50623 19.8008L9.06526 14.6792C9.11634 14.6021 9.18232 14.536 9.2593 14.4848C9.33629 14.4335 9.42274 14.3981 9.51357 14.3807C9.60441 14.3634 9.69781 14.3643 9.78828 14.3835C9.87876 14.4027 9.96449 14.4397 10.0404 14.4925C10.1164 14.5453 10.181 14.6127 10.2306 14.6908C10.2801 14.7689 10.3136 14.8561 10.3289 14.9473C10.3443 15.0385 10.3413 15.1319 10.3201 15.2219C10.2989 15.3119 10.26 15.3968 10.2055 15.4716L6.64651 20.5931C6.58273 20.6855 6.49743 20.7609 6.39798 20.8129C6.29853 20.865 6.18791 20.892 6.07568 20.8917ZM2.43054 18.7931C2.12498 18.7931 1.84443 18.5896 1.7604 18.2806L0.240954 12.682C0.217106 12.594 0.210835 12.5021 0.222497 12.4116C0.23416 12.3211 0.263529 12.2338 0.308926 12.1547C0.354324 12.0756 0.414861 12.0062 0.487082 11.9505C0.559303 11.8947 0.641793 11.8538 0.729843 11.8299C0.817892 11.8061 0.909777 11.7998 1.00025 11.8115C1.09072 11.8231 1.17801 11.8525 1.25714 11.8979C1.33626 11.9433 1.40567 12.0038 1.46139 12.0761C1.51712 12.1483 1.55808 12.2308 1.58193 12.3188L3.10137 17.9174C3.12951 18.0204 3.13347 18.1286 3.11293 18.2333C3.0924 18.3381 3.04793 18.4368 2.98299 18.5215C2.91805 18.6063 2.8344 18.6749 2.73857 18.722C2.64274 18.7691 2.53732 18.7935 2.43054 18.7931ZM15.2778 23.6112H9.02776C8.84358 23.6112 8.66695 23.538 8.53671 23.4078C8.40648 23.2775 8.33331 23.1009 8.33331 22.9167C8.33331 22.7326 8.40648 22.5559 8.53671 22.4257C8.66695 22.2954 8.84358 22.2223 9.02776 22.2223H15.2778C15.4619 22.2223 15.6386 22.2954 15.7688 22.4257C15.899 22.5559 15.9722 22.7326 15.9722 22.9167C15.9722 23.1009 15.899 23.2775 15.7688 23.4078C15.6386 23.538 15.4619 23.6112 15.2778 23.6112ZM22.3097 18.8369C22.2043 18.837 22.1003 18.8131 22.0056 18.7671C21.9108 18.721 21.8278 18.654 21.7628 18.5711C21.6978 18.4881 21.6525 18.3915 21.6305 18.2885C21.6084 18.1854 21.6101 18.0787 21.6354 17.9764L23.1111 11.9869C23.1308 11.8962 23.1685 11.8104 23.222 11.7345C23.2755 11.6586 23.3436 11.5942 23.4224 11.5451C23.5011 11.496 23.5889 11.4632 23.6806 11.4487C23.7723 11.4341 23.8659 11.438 23.956 11.4603C24.0462 11.4825 24.1309 11.5226 24.2053 11.5781C24.2796 11.6337 24.3421 11.7036 24.389 11.7837C24.4359 11.8638 24.4662 11.9525 24.4783 12.0445C24.4903 12.1365 24.4837 12.23 24.459 12.3195L22.9833 18.3091C22.9048 18.6251 22.6215 18.8369 22.3097 18.8369ZM21.05 5.33895C20.9281 5.33901 20.8083 5.30691 20.7028 5.24589L15.4514 2.2077C15.3724 2.16199 15.3033 2.10116 15.2478 2.02871C15.1924 1.95625 15.1518 1.87358 15.1283 1.78542C15.1048 1.69726 15.0989 1.60534 15.111 1.51491C15.1231 1.42448 15.1528 1.33732 15.1986 1.25839C15.2441 1.17934 15.3048 1.11006 15.3772 1.05451C15.4495 0.99896 15.5321 0.958244 15.6203 0.934695C15.7084 0.911146 15.8003 0.905227 15.8907 0.917278C15.9812 0.92933 16.0683 0.959114 16.1472 1.00492L21.3986 4.04312C21.5311 4.11962 21.6346 4.23772 21.6931 4.37909C21.7515 4.52046 21.7617 4.67718 21.7219 4.82492C21.6822 4.97265 21.5948 5.10312 21.4733 5.19607C21.3518 5.28902 21.203 5.33925 21.05 5.33895ZM3.82012 5.33895C3.67296 5.33921 3.52953 5.29271 3.41051 5.20616C3.29149 5.11962 3.20303 4.9975 3.15792 4.85743C3.1128 4.71735 3.11334 4.56657 3.15947 4.42683C3.2056 4.28708 3.29492 4.16561 3.41456 4.07992L7.71179 0.997978C7.8617 0.898515 8.04434 0.861047 8.2213 0.893451C8.39827 0.925855 8.55578 1.02561 8.66072 1.17174C8.76566 1.31786 8.80987 1.49899 8.78403 1.67703C8.7582 1.85508 8.66435 2.01617 8.5222 2.12645L4.22429 5.2084C4.10651 5.29306 3.96517 5.33871 3.82012 5.33895Z" fill="#CCD6DD"/>
<path d="M17.7035 9.38611L12.6979 5.85625C12.5797 5.77316 12.4386 5.72891 12.2941 5.72966C12.1497 5.73041 12.009 5.77611 11.8917 5.86042L6.91458 9.44861C6.79824 9.53253 6.71074 9.65043 6.66411 9.78609C6.61748 9.92175 6.614 10.0685 6.65417 10.2062L8.39028 16.1667C8.43235 16.3109 8.52007 16.4376 8.64028 16.5278C8.76048 16.6179 8.90669 16.6667 9.05694 16.6667H15.2778C15.4232 16.6667 15.565 16.6211 15.6831 16.5362C15.8012 16.4514 15.8897 16.3316 15.9361 16.1937L17.9618 10.175C18.0094 10.0332 18.01 9.87985 17.9635 9.73771C17.9169 9.59557 17.8257 9.47225 17.7035 9.38611ZM0.897222 13.5708C1.02051 13.5709 1.14159 13.5381 1.24801 13.4758C1.35443 13.4136 1.44237 13.3241 1.50278 13.2167L3.84653 9.05C3.88189 8.98695 3.9072 8.91877 3.92153 8.84792L4.84722 4.30555C4.86795 4.20463 4.86594 4.10036 4.84134 4.00031C4.81674 3.90026 4.77016 3.80695 4.70499 3.72715C4.63982 3.64735 4.5577 3.58307 4.46458 3.53897C4.37146 3.49488 4.2697 3.47207 4.16667 3.47222H3.86944C1.48958 5.74792 0 8.94722 0 12.5C0 12.6847 0.0194444 12.8646 0.0277778 13.0472L0.445833 13.4042C0.572222 13.5125 0.732639 13.5708 0.897222 13.5708ZM7.37292 2.07986C7.40928 2.15486 7.46315 2.22001 7.52999 2.26981C7.59683 2.31961 7.67467 2.35259 7.75694 2.36597L12.184 3.08958C12.24 3.09793 12.2968 3.09793 12.3528 3.08958L16.5778 2.39514C16.6469 2.38393 16.7131 2.35885 16.7723 2.32141C16.8315 2.28396 16.8825 2.23493 16.9223 2.17726C16.9621 2.11958 16.9898 2.05446 17.0037 1.98581C17.0177 1.91716 17.0176 1.8464 17.0035 1.77778L16.8007 0.775694C15.4241 0.265359 13.9681 0.00274223 12.5 0C10.816 0 9.2125 0.3375 7.74653 0.941666L7.38472 1.60139C7.34476 1.67443 7.32283 1.75596 7.32078 1.83919C7.31872 1.92242 7.3366 2.00494 7.37292 2.07986ZM21.6208 3.97153L20.5764 3.90556C20.4974 3.90075 20.4184 3.9138 20.3452 3.94374C20.272 3.97367 20.2064 4.01973 20.1535 4.07847C20.1011 4.13724 20.0629 4.20725 20.0418 4.28309C20.0208 4.35894 20.0174 4.43861 20.0319 4.51597L20.8424 8.82014C20.8542 8.87551 20.8761 8.92823 20.9069 8.97569C21.9431 10.7146 23.0958 12.6569 23.2549 12.991C23.2715 13.0493 23.2979 13.0458 23.334 13.0958C23.4312 13.2312 23.5924 13.1944 23.759 13.1944H23.7639C23.9014 13.1944 23.9882 13.2597 24.9917 12.6715C24.9924 12.6139 25 12.5576 25 12.5C25 9.1993 23.7111 6.20555 21.6208 3.97153ZM10.0979 23.1778C10.1054 23.0393 10.0577 22.9034 9.96528 22.8L6.84028 19.3278C6.79863 19.2816 6.74899 19.2432 6.69375 19.2146C2.60694 17.0833 2.53125 17.0583 2.48125 17.041C2.42696 17.0234 2.37027 17.0142 2.31319 17.0139C1.94028 17.0139 1.83056 17.059 1.49028 18.4194C3.06 21.3306 5.717 23.5031 8.88194 24.4632L9.92361 23.5375C10.0271 23.4454 10.0897 23.316 10.0979 23.1778ZM22.4819 17.2285C22.4168 17.201 22.3467 17.1871 22.276 17.1877C22.2053 17.1883 22.1355 17.2034 22.0708 17.2319L17.8465 19.084C17.7728 19.1159 17.7076 19.1647 17.6562 19.2264L14.7049 22.7562C14.6608 22.8091 14.6276 22.8702 14.6073 22.936C14.5869 23.0018 14.5797 23.0709 14.5862 23.1394C14.5926 23.208 14.6126 23.2746 14.6449 23.3354C14.6772 23.3962 14.7211 23.45 14.7743 23.4937C15.2486 23.8819 15.65 24.209 16.0014 24.4937C19.0521 23.5989 21.6478 21.5763 23.2611 18.8368L22.7667 17.525C22.7418 17.4588 22.7038 17.3984 22.6548 17.3474C22.6059 17.2964 22.5471 17.256 22.4819 17.2285Z" fill="#31373D"/>
</g>
<defs>
<clipPath id="clip0_687_1508">
<rect width="25" height="25" fill="white"/>
</clipPath>
</defs>
</svg>
