<svg width="25" height="25" viewBox="0 0 25 25" fill="none" xmlns="http://www.w3.org/2000/svg">
<g clip-path="url(#clip0_158_8584)">
<path d="M12.5 25C19.4036 25 25 19.4036 25 12.5C25 5.59644 19.4036 0 12.5 0C5.59644 0 0 5.59644 0 12.5C0 19.4036 5.59644 25 12.5 25Z" fill="#F5F8FA"/>
<path d="M12.5 7.63871C12.3158 7.63871 12.1392 7.56554 12.009 7.43531C11.8787 7.30508 11.8056 7.12844 11.8056 6.94426V2.08315C11.8056 1.89897 11.8787 1.72234 12.009 1.5921C12.1392 1.46187 12.3158 1.38871 12.5 1.38871C12.6842 1.38871 12.8608 1.46187 12.9911 1.5921C13.1213 1.72234 13.1945 1.89897 13.1945 2.08315V6.94426C13.1945 7.12844 13.1213 7.30508 12.9911 7.43531C12.8608 7.56554 12.6842 7.63871 12.5 7.63871ZM7.92848 10.7637C7.85731 10.7637 7.78656 10.7527 7.71876 10.7311L2.13473 8.96579C1.95912 8.91026 1.81276 8.78724 1.72785 8.6238C1.64293 8.46036 1.62643 8.26988 1.68196 8.09426C1.73749 7.91865 1.8605 7.77229 2.02395 7.68737C2.18739 7.60246 2.37787 7.58595 2.55348 7.64148L8.13821 9.40676C8.29663 9.45655 8.43196 9.56145 8.51968 9.70245C8.60739 9.84346 8.64167 10.0112 8.61631 10.1753C8.59094 10.3394 8.50761 10.489 8.38142 10.597C8.25523 10.7049 8.09454 10.7641 7.92848 10.7637ZM17.3903 10.5616C17.2235 10.5607 17.0626 10.4998 16.9369 10.3901C16.8113 10.2804 16.7293 10.1292 16.7059 9.96407C16.6824 9.79892 16.7192 9.63085 16.8094 9.49055C16.8996 9.35025 17.0373 9.24706 17.1972 9.19982L21.8847 7.8401C22.0608 7.7915 22.249 7.81425 22.4084 7.90341C22.5679 7.99258 22.6857 8.14097 22.7365 8.31645C22.7873 8.49192 22.7669 8.68034 22.6798 8.84088C22.5926 9.00142 22.4457 9.12115 22.2708 9.17412L17.5833 10.5338C17.5206 10.5522 17.4556 10.5616 17.3903 10.5616ZM18.7799 20.9491C18.6715 20.9492 18.5647 20.9239 18.4679 20.8753C18.371 20.8267 18.2869 20.7562 18.2222 20.6693L14.4313 15.5769C14.3747 15.5039 14.3332 15.4204 14.3093 15.3312C14.2854 15.242 14.2795 15.1489 14.292 15.0574C14.3045 14.9659 14.3351 14.8779 14.382 14.7983C14.429 14.7188 14.4913 14.6494 14.5654 14.5943C14.6395 14.5392 14.7238 14.4994 14.8134 14.4772C14.9031 14.455 14.9963 14.451 15.0875 14.4653C15.1787 14.4796 15.2662 14.5119 15.3448 14.5604C15.4234 14.6089 15.4915 14.6726 15.5452 14.7477L19.3361 19.8401C19.4129 19.9433 19.4596 20.0659 19.4708 20.194C19.482 20.3222 19.4574 20.451 19.3998 20.566C19.3421 20.681 19.2536 20.7778 19.1441 20.8454C19.0346 20.9131 18.9085 20.949 18.7799 20.9491ZM6.07571 20.8915C5.94891 20.8914 5.82456 20.8565 5.71615 20.7908C5.60774 20.725 5.51941 20.6308 5.46074 20.5184C5.40206 20.406 5.37529 20.2796 5.38331 20.1531C5.39134 20.0265 5.43386 19.9046 5.50626 19.8005L9.06529 14.679C9.11637 14.6019 9.18235 14.5358 9.25933 14.4845C9.33632 14.4333 9.42277 14.3979 9.5136 14.3805C9.60444 14.3631 9.69784 14.364 9.78831 14.3832C9.87879 14.4024 9.96452 14.4395 10.0405 14.4923C10.1164 14.5451 10.1811 14.6125 10.2306 14.6906C10.2801 14.7687 10.3136 14.8559 10.329 14.9471C10.3443 15.0383 10.3414 15.1316 10.3202 15.2217C10.299 15.3117 10.26 15.3966 10.2056 15.4713L6.64654 20.5929C6.58276 20.6852 6.49746 20.7607 6.39801 20.8127C6.29856 20.8647 6.18794 20.8918 6.07571 20.8915ZM2.43057 18.7929C2.12501 18.7929 1.84446 18.5894 1.76043 18.2804L0.240985 12.6818C0.217137 12.5937 0.210865 12.5018 0.222528 12.4114C0.234191 12.3209 0.263559 12.2336 0.308957 12.1545C0.354354 12.0753 0.414892 12.0059 0.487113 11.9502C0.559334 11.8945 0.641824 11.8535 0.729873 11.8297C0.817923 11.8058 0.909807 11.7996 1.00028 11.8112C1.09075 11.8229 1.17804 11.8523 1.25717 11.8977C1.33629 11.943 1.4057 12.0036 1.46142 12.0758C1.51715 12.148 1.55811 12.2305 1.58196 12.3186L3.1014 17.9172C3.12954 18.0202 3.1335 18.1283 3.11296 18.2331C3.09243 18.3379 3.04796 18.4365 2.98302 18.5213C2.91808 18.6061 2.83443 18.6747 2.7386 18.7218C2.64277 18.7689 2.53735 18.7932 2.43057 18.7929ZM15.2778 23.6109H9.02779C8.84361 23.6109 8.66698 23.5378 8.53674 23.4075C8.40651 23.2773 8.33335 23.1007 8.33335 22.9165C8.33335 22.7323 8.40651 22.5557 8.53674 22.4254C8.66698 22.2952 8.84361 22.222 9.02779 22.222H15.2778C15.462 22.222 15.6386 22.2952 15.7688 22.4254C15.8991 22.5557 15.9722 22.7323 15.9722 22.9165C15.9722 23.1007 15.8991 23.2773 15.7688 23.4075C15.6386 23.5378 15.462 23.6109 15.2778 23.6109ZM22.3097 18.8366C22.2044 18.8368 22.1004 18.8129 22.0056 18.7668C21.9108 18.7208 21.8278 18.6537 21.7628 18.5708C21.6978 18.4879 21.6526 18.3912 21.6305 18.2882C21.6084 18.1852 21.6101 18.0785 21.6354 17.9762L23.1111 11.9866C23.1309 11.8959 23.1686 11.8101 23.222 11.7342C23.2755 11.6584 23.3436 11.594 23.4224 11.5449C23.5012 11.4958 23.589 11.463 23.6806 11.4484C23.7723 11.4338 23.866 11.4378 23.9561 11.46C24.0462 11.4823 24.1309 11.5223 24.2053 11.5779C24.2797 11.6334 24.3421 11.7033 24.389 11.7834C24.4359 11.8635 24.4663 11.9522 24.4783 12.0443C24.4903 12.1363 24.4838 12.2298 24.459 12.3193L22.9833 18.3088C22.9049 18.6248 22.6215 18.8366 22.3097 18.8366ZM21.05 5.33871C20.9281 5.33877 20.8083 5.30667 20.7028 5.24565L15.4514 2.20746C15.3725 2.16174 15.3033 2.10092 15.2478 2.02846C15.1924 1.95601 15.1518 1.87334 15.1283 1.78518C15.1048 1.69702 15.099 1.6051 15.111 1.51467C15.1231 1.42424 15.1529 1.33707 15.1986 1.25815C15.2441 1.1791 15.3048 1.10981 15.3772 1.05426C15.4496 0.998716 15.5322 0.957999 15.6203 0.93445C15.7084 0.910901 15.8003 0.904983 15.8908 0.917034C15.9812 0.929086 16.0683 0.95887 16.1472 1.00468L21.3986 4.04287C21.5311 4.11937 21.6346 4.23748 21.6931 4.37885C21.7516 4.52022 21.7617 4.67694 21.722 4.82467C21.6822 4.9724 21.5948 5.10288 21.4733 5.19583C21.3518 5.28878 21.203 5.33901 21.05 5.33871ZM3.82015 5.33871C3.67299 5.33896 3.52956 5.29246 3.41054 5.20592C3.29152 5.11937 3.20307 4.99725 3.15795 4.85718C3.11283 4.71711 3.11337 4.56633 3.1595 4.42658C3.20563 4.28684 3.29495 4.16536 3.4146 4.07968L7.71182 0.997734C7.86173 0.898271 8.04437 0.860803 8.22133 0.893207C8.3983 0.925611 8.55581 1.02536 8.66075 1.17149C8.76569 1.31762 8.8099 1.49875 8.78407 1.67679C8.75823 1.85483 8.66438 2.01593 8.52223 2.12621L4.22432 5.20815C4.10654 5.29281 3.9652 5.33847 3.82015 5.33871Z" fill="#CCD6DD"/>
<path d="M17.7035 9.38611L12.6979 5.85625C12.5797 5.77316 12.4386 5.72891 12.2941 5.72966C12.1497 5.73041 12.009 5.77611 11.8917 5.86042L6.91458 9.44861C6.79824 9.53253 6.71074 9.65043 6.66411 9.78609C6.61748 9.92175 6.614 10.0685 6.65417 10.2062L8.39028 16.1667C8.43235 16.3109 8.52007 16.4376 8.64028 16.5278C8.76048 16.6179 8.90669 16.6667 9.05694 16.6667H15.2778C15.4232 16.6667 15.565 16.6211 15.6831 16.5362C15.8012 16.4514 15.8897 16.3316 15.9361 16.1937L17.9618 10.175C18.0094 10.0332 18.01 9.87985 17.9635 9.73771C17.9169 9.59557 17.8257 9.47225 17.7035 9.38611ZM0.897222 13.5708C1.02051 13.5709 1.14159 13.5381 1.24801 13.4758C1.35443 13.4136 1.44237 13.3241 1.50278 13.2167L3.84653 9.05C3.88189 8.98695 3.9072 8.91877 3.92153 8.84792L4.84722 4.30555C4.86795 4.20463 4.86594 4.10036 4.84134 4.00031C4.81674 3.90026 4.77016 3.80695 4.70499 3.72715C4.63982 3.64735 4.5577 3.58307 4.46458 3.53897C4.37146 3.49488 4.2697 3.47207 4.16667 3.47222H3.86944C1.48958 5.74792 0 8.94722 0 12.5C0 12.6847 0.0194444 12.8646 0.0277778 13.0472L0.445833 13.4042C0.572222 13.5125 0.732639 13.5708 0.897222 13.5708ZM7.37292 2.07986C7.40928 2.15486 7.46315 2.22001 7.52999 2.26981C7.59683 2.31961 7.67467 2.35259 7.75694 2.36597L12.184 3.08958C12.24 3.09793 12.2968 3.09793 12.3528 3.08958L16.5778 2.39514C16.6469 2.38393 16.7131 2.35885 16.7723 2.32141C16.8315 2.28396 16.8825 2.23493 16.9223 2.17726C16.9621 2.11958 16.9898 2.05446 17.0037 1.98581C17.0177 1.91716 17.0176 1.8464 17.0035 1.77778L16.8007 0.775694C15.4241 0.265359 13.9681 0.00274223 12.5 0C10.816 0 9.2125 0.3375 7.74653 0.941666L7.38472 1.60139C7.34476 1.67443 7.32283 1.75596 7.32078 1.83919C7.31872 1.92242 7.3366 2.00494 7.37292 2.07986ZM21.6208 3.97153L20.5764 3.90556C20.4974 3.90075 20.4184 3.9138 20.3452 3.94374C20.272 3.97367 20.2064 4.01973 20.1535 4.07847C20.1011 4.13724 20.0629 4.20725 20.0418 4.28309C20.0208 4.35894 20.0174 4.43861 20.0319 4.51597L20.8424 8.82014C20.8542 8.87551 20.8761 8.92823 20.9069 8.97569C21.9431 10.7146 23.0958 12.6569 23.2549 12.991C23.2715 13.0493 23.2979 13.0458 23.334 13.0958C23.4312 13.2312 23.5924 13.1944 23.759 13.1944H23.7639C23.9014 13.1944 23.9882 13.2597 24.9917 12.6715C24.9924 12.6139 25 12.5576 25 12.5C25 9.1993 23.7111 6.20555 21.6208 3.97153ZM10.0979 23.1778C10.1054 23.0393 10.0577 22.9034 9.96528 22.8L6.84028 19.3278C6.79863 19.2816 6.74899 19.2432 6.69375 19.2146C2.60694 17.0833 2.53125 17.0583 2.48125 17.041C2.42696 17.0234 2.37027 17.0142 2.31319 17.0139C1.94028 17.0139 1.83056 17.059 1.49028 18.4194C3.06 21.3306 5.717 23.5031 8.88194 24.4632L9.92361 23.5375C10.0271 23.4454 10.0897 23.316 10.0979 23.1778ZM22.4819 17.2285C22.4168 17.201 22.3467 17.1871 22.276 17.1877C22.2053 17.1883 22.1355 17.2034 22.0708 17.2319L17.8465 19.084C17.7728 19.1159 17.7076 19.1647 17.6562 19.2264L14.7049 22.7562C14.6608 22.8091 14.6276 22.8702 14.6073 22.936C14.5869 23.0018 14.5797 23.0709 14.5862 23.1394C14.5926 23.208 14.6126 23.2746 14.6449 23.3354C14.6772 23.3962 14.7211 23.45 14.7743 23.4937C15.2486 23.8819 15.65 24.209 16.0014 24.4937C19.0521 23.5989 21.6478 21.5763 23.2611 18.8368L22.7667 17.525C22.7418 17.4588 22.7038 17.3984 22.6548 17.3474C22.6059 17.2964 22.5471 17.256 22.4819 17.2285Z" fill="#31373D"/>
</g>
<defs>
<clipPath id="clip0_158_8584">
<rect width="25" height="25" fill="white"/>
</clipPath>
</defs>
</svg>
