<svg width="12" height="9" viewBox="0 0 12 9" fill="none" xmlns="http://www.w3.org/2000/svg">
<path d="M11.3317 0.984277C10.9146 1.15653 10.465 1.26972 9.99917 1.32385C10.4758 1.06302 10.8442 0.649623 11.0175 0.152563C10.5679 0.398632 10.0696 0.570881 9.54417 0.669308C9.11625 0.246069 8.515 0 7.8325 0C6.55958 0 5.51958 0.944906 5.51958 2.11127C5.51958 2.2786 5.54125 2.44101 5.57917 2.59357C3.65083 2.50498 1.93375 1.66343 0.790833 0.388789C0.590417 0.698836 0.476667 1.06302 0.476667 1.44689C0.476667 2.18017 0.882917 2.8298 1.51125 3.1989C1.12667 3.1989 0.769167 3.10047 0.455 2.95283V2.96759C0.455 3.99124 1.25667 4.84756 2.31833 5.0395C1.97748 5.12425 1.61963 5.13604 1.27292 5.07395C1.42004 5.49348 1.70817 5.86058 2.0968 6.12364C2.48544 6.3867 2.95503 6.53249 3.43958 6.54052C2.61822 7.1313 1.60008 7.45064 0.5525 7.44605C0.368333 7.44605 0.184167 7.43621 0 7.41652C1.02917 8.01693 2.25333 8.36635 3.56417 8.36635C7.8325 8.36635 10.1779 5.14777 10.1779 2.35734C10.1779 2.26384 10.1779 2.17525 10.1725 2.08174C10.6275 1.78646 11.0175 1.41244 11.3317 0.984277Z" fill="black"/>
</svg>
