<svg width="17" height="15" viewBox="0 0 17 15" fill="none" xmlns="http://www.w3.org/2000/svg">
<path d="M16.0208 3.54167H16.8125V11.4583H16.0208V13.8333C16.0208 14.2706 15.6664 14.625 15.2292 14.625H0.979167C0.541945 14.625 0.1875 14.2706 0.1875 13.8333V1.16667C0.1875 0.729445 0.541945 0.375 0.979167 0.375H15.2292C15.6664 0.375 16.0208 0.729445 16.0208 1.16667V3.54167ZM14.4375 11.4583H9.68752C7.50141 11.4583 5.72917 9.68611 5.72917 7.5C5.72917 5.31388 7.50141 3.54167 9.68752 3.54167H14.4375V1.95833H1.77083V13.0417H14.4375V11.4583ZM15.2292 9.875V5.125H9.68752C8.3758 5.125 7.31252 6.18829 7.31252 7.5C7.31252 8.81171 8.3758 9.875 9.68752 9.875H15.2292ZM9.68752 6.70833H12.0625V8.29167H9.68752V6.70833Z" fill="white"/>
</svg>
