<svg width="19" height="19" viewBox="0 0 19 19" fill="none" xmlns="http://www.w3.org/2000/svg">
<path d="M17.4208 5.54167H18.2124V13.4583H17.4208V15.8333C17.4208 16.2706 17.0663 16.625 16.6291 16.625H2.37907C1.94185 16.625 1.5874 16.2706 1.5874 15.8333V3.16667C1.5874 2.72945 1.94185 2.375 2.37907 2.375H16.6291C17.0663 2.375 17.4208 2.72945 17.4208 3.16667V5.54167ZM15.8374 13.4583H11.0874C8.90131 13.4583 7.12907 11.6861 7.12907 9.5C7.12907 7.31388 8.90131 5.54167 11.0874 5.54167H15.8374V3.95833H3.17074V15.0417H15.8374V13.4583ZM16.6291 11.875V7.125H11.0874C9.77571 7.125 8.71242 8.18829 8.71242 9.5C8.71242 10.8117 9.77571 11.875 11.0874 11.875H16.6291ZM11.0874 8.70833H13.4624V10.2917H11.0874V8.70833Z" fill="white"/>
</svg>
